M48
; DRILL file {KiCad 9.0.0} date 2025-03-17T13:33:31-0600
; FORMAT={-:-/ absolute / metric / decimal}
; #@! TF.CreationDate,2025-03-17T13:33:31-06:00
; #@! TF.GenerationSoftware,Kicad,Pcbnew,9.0.0
; #@! TF.FileFunction,Plated,1,2,PTH
FMAT,2
METRIC
; #@! TA.AperFunction,Plated,PTH,ViaDrill
T1C0.300
; #@! TA.AperFunction,Plated,PTH,ComponentDrill
T2C0.600
; #@! TA.AperFunction,Plated,PTH,ComponentDrill
T3C0.650
; #@! TA.AperFunction,Plated,PTH,ComponentDrill
T4C1.000
%
G90
G05
T1
X102.7Y-72.249
X102.7Y-76.349
X103.5Y-112.3
X103.6Y-97.0
X103.6Y-101.0
X105.1Y-109.8
X107.5Y-77.949
X108.4Y-113.6
X110.5Y-77.949
X111.2Y-111.9
X111.3Y-110.6
X111.4Y-104.8
X111.4Y-108.1
X111.4Y-109.4
X114.4Y-97.7
X114.7Y-86.9
X115.4Y-102.0
X115.7Y-110.5
X116.8Y-78.7
X117.2Y-91.4
X117.5Y-107.8
X118.4Y-107.8
X119.0Y-88.3
X119.3Y-95.9
X120.0Y-87.2
X121.2Y-116.2
X122.4Y-94.4
X123.2Y-78.7
X126.1Y-104.9
X126.5Y-84.6
X129.2Y-75.15
X129.6Y-116.2
X132.683Y-93.0
X134.183Y-100.933
X137.4Y-72.45
X137.4Y-76.55
T3
X134.355Y-80.69
X134.355Y-81.96
X134.355Y-83.23
X134.355Y-84.5
X134.355Y-85.77
X135.625Y-80.69
X135.625Y-81.96
X135.625Y-83.23
X135.625Y-84.5
X135.625Y-85.77
T4
X118.725Y-81.5
X121.265Y-81.5
X130.42Y-111.0
X132.96Y-111.0
X132.975Y-106.0
X135.5Y-111.0
X135.515Y-106.0
T2
X115.7Y-73.0G85X115.7Y-72.4
G05
X115.7Y-77.43G85X115.7Y-76.33
G05
X124.336Y-73.0G85X124.336Y-72.4
G05
X124.336Y-77.43G85X124.336Y-76.33
G05
M30
