%TF.GenerationSoftware,KiCad,Pcbnew,9.0.0*%
%TF.CreationDate,2025-03-17T13:33:28-06:00*%
%TF.ProjectId,TempLog,54656d70-4c6f-4672-9e6b-696361645f70,rev?*%
%TF.SameCoordinates,Original*%
%TF.FileFunction,Paste,Top*%
%TF.FilePolarity,Positive*%
%FSLAX46Y46*%
G04 Gerber Fmt 4.6, Leading zero omitted, Abs format (unit mm)*
G04 Created by KiCad (PCBNEW 9.0.0) date 2025-03-17 13:33:28*
%MOMM*%
%LPD*%
G01*
G04 APERTURE LIST*
G04 Aperture macros list*
%AMRoundRect*
0 Rectangle with rounded corners*
0 $1 Rounding radius*
0 $2 $3 $4 $5 $6 $7 $8 $9 X,Y pos of 4 corners*
0 Add a 4 corners polygon primitive as box body*
4,1,4,$2,$3,$4,$5,$6,$7,$8,$9,$2,$3,0*
0 Add four circle primitives for the rounded corners*
1,1,$1+$1,$2,$3*
1,1,$1+$1,$4,$5*
1,1,$1+$1,$6,$7*
1,1,$1+$1,$8,$9*
0 Add four rect primitives between the rounded corners*
20,1,$1+$1,$2,$3,$4,$5,0*
20,1,$1+$1,$4,$5,$6,$7,0*
20,1,$1+$1,$6,$7,$8,$9,0*
20,1,$1+$1,$8,$9,$2,$3,0*%
G04 Aperture macros list end*
%ADD10RoundRect,0.250000X-0.262500X-0.450000X0.262500X-0.450000X0.262500X0.450000X-0.262500X0.450000X0*%
%ADD11R,0.600000X1.000000*%
%ADD12O,1.000000X1.600000*%
%ADD13O,1.000000X2.100000*%
%ADD14R,0.300000X1.000000*%
%ADD15RoundRect,0.075000X-0.075000X-0.662500X0.075000X-0.662500X0.075000X0.662500X-0.075000X0.662500X0*%
%ADD16RoundRect,0.075000X-0.662500X-0.075000X0.662500X-0.075000X0.662500X0.075000X-0.662500X0.075000X0*%
%ADD17RoundRect,0.125000X-0.687500X-0.125000X0.687500X-0.125000X0.687500X0.125000X-0.687500X0.125000X0*%
%ADD18RoundRect,0.250000X-0.475000X0.250000X-0.475000X-0.250000X0.475000X-0.250000X0.475000X0.250000X0*%
%ADD19RoundRect,0.250000X0.450000X-0.262500X0.450000X0.262500X-0.450000X0.262500X-0.450000X-0.262500X0*%
%ADD20R,2.400000X2.000000*%
%ADD21RoundRect,0.250000X0.250000X0.475000X-0.250000X0.475000X-0.250000X-0.475000X0.250000X-0.475000X0*%
%ADD22RoundRect,0.250000X0.262500X0.450000X-0.262500X0.450000X-0.262500X-0.450000X0.262500X-0.450000X0*%
%ADD23R,1.800000X1.000000*%
%ADD24RoundRect,0.250000X0.475000X-0.250000X0.475000X0.250000X-0.475000X0.250000X-0.475000X-0.250000X0*%
%ADD25R,1.000000X0.900000*%
%ADD26RoundRect,0.250000X-0.250000X-0.475000X0.250000X-0.475000X0.250000X0.475000X-0.250000X0.475000X0*%
%ADD27RoundRect,0.150000X-0.675000X-0.150000X0.675000X-0.150000X0.675000X0.150000X-0.675000X0.150000X0*%
%ADD28RoundRect,0.243750X0.243750X0.456250X-0.243750X0.456250X-0.243750X-0.456250X0.243750X-0.456250X0*%
%ADD29RoundRect,0.150000X-0.150000X0.512500X-0.150000X-0.512500X0.150000X-0.512500X0.150000X0.512500X0*%
G04 APERTURE END LIST*
D10*
%TO.C,R13*%
X118912500Y-114750000D03*
X117087500Y-114750000D03*
%TD*%
D11*
%TO.C,J6*%
X117568000Y-77455000D03*
X122468000Y-77455000D03*
D12*
X115700000Y-72700000D03*
D13*
X115700000Y-76880000D03*
X124336000Y-76880000D03*
D12*
X124336000Y-72700000D03*
D11*
X116793000Y-77455000D03*
X123243000Y-77455000D03*
D14*
X121768000Y-77455000D03*
X120768000Y-77455000D03*
X119268000Y-77455000D03*
X118268000Y-77455000D03*
X118768000Y-77455000D03*
X119768000Y-77455000D03*
X120268000Y-77455000D03*
X121268000Y-77455000D03*
%TD*%
D15*
%TO.C,U1*%
X117250000Y-92837500D03*
X118250000Y-92837500D03*
X118750000Y-92837500D03*
X119250000Y-92837500D03*
X119750000Y-92837500D03*
X120250000Y-92837500D03*
X120750000Y-92837500D03*
X121250000Y-92837500D03*
X121750000Y-92837500D03*
X122250000Y-92837500D03*
X122750000Y-92837500D03*
D16*
X124162500Y-94250000D03*
X124162500Y-94750000D03*
X124162500Y-95250000D03*
X124162500Y-95750000D03*
X124162500Y-96250000D03*
X124162500Y-96750000D03*
X124162500Y-97250000D03*
X124162500Y-97750000D03*
X124162500Y-98250000D03*
X124162500Y-98750000D03*
X124162500Y-99250000D03*
X124162500Y-99750000D03*
D15*
X122750000Y-101162500D03*
X121750000Y-101162500D03*
X121250000Y-101162500D03*
X120750000Y-101162500D03*
X120250000Y-101162500D03*
X119750000Y-101162500D03*
X119250000Y-101162500D03*
X118750000Y-101162500D03*
X118250000Y-101162500D03*
X117750000Y-101162500D03*
X117250000Y-101162500D03*
D16*
X115837500Y-99750000D03*
X115837500Y-99250000D03*
X115837500Y-98750000D03*
X115837500Y-98250000D03*
X115837500Y-97250000D03*
X115837500Y-96750000D03*
X115837500Y-96250000D03*
X115837500Y-95750000D03*
X115837500Y-95250000D03*
X115837500Y-94750000D03*
X115837500Y-94250000D03*
D15*
X117750000Y-92837500D03*
D16*
X115837500Y-97750000D03*
D15*
X122250000Y-101162500D03*
%TD*%
D17*
%TO.C,U3*%
X127312500Y-114225000D03*
X123087500Y-114875000D03*
X123087500Y-114225000D03*
X127312500Y-114875000D03*
X127312500Y-115525000D03*
X123087500Y-115525000D03*
X127312500Y-116175000D03*
X123087500Y-116175000D03*
%TD*%
D18*
%TO.C,C1*%
X131000000Y-73300000D03*
X131000000Y-75200000D03*
%TD*%
%TO.C,C2*%
X116550000Y-86050000D03*
X116550000Y-87950000D03*
%TD*%
D19*
%TO.C,R10*%
X111500000Y-74412500D03*
X111500000Y-72587500D03*
%TD*%
D20*
%TO.C,Y1*%
X110700000Y-100850000D03*
X110700000Y-97150000D03*
%TD*%
D18*
%TO.C,C7*%
X124400000Y-103050000D03*
X124400000Y-104950000D03*
%TD*%
D21*
%TO.C,C12*%
X105050000Y-94500000D03*
X106950000Y-94500000D03*
%TD*%
D22*
%TO.C,R6*%
X134170000Y-102500000D03*
X135995000Y-102500000D03*
%TD*%
D23*
%TO.C,Y2*%
X110000000Y-94250000D03*
X110000000Y-91750000D03*
%TD*%
D21*
%TO.C,C11*%
X105050000Y-92000000D03*
X106950000Y-92000000D03*
%TD*%
%TO.C,C9*%
X106950000Y-97000000D03*
X105050000Y-97000000D03*
%TD*%
D24*
%TO.C,C5*%
X126500000Y-87950000D03*
X126500000Y-86050000D03*
%TD*%
D22*
%TO.C,R11*%
X106087500Y-79500000D03*
X107912500Y-79500000D03*
%TD*%
D24*
%TO.C,C3*%
X123550000Y-87950000D03*
X123550000Y-86050000D03*
%TD*%
D25*
%TO.C,SW1*%
X134200000Y-76550000D03*
X134200000Y-72450000D03*
X135800000Y-72450000D03*
X135800000Y-76550000D03*
%TD*%
D10*
%TO.C,R9*%
X135995000Y-99500000D03*
X134170000Y-99500000D03*
%TD*%
D26*
%TO.C,C6*%
X113450000Y-103500000D03*
X115350000Y-103500000D03*
%TD*%
D27*
%TO.C,U2*%
X113625000Y-108095000D03*
X113625000Y-109365000D03*
X113625000Y-110635000D03*
X113625000Y-111905000D03*
X108375000Y-110635000D03*
X108375000Y-109365000D03*
X108375000Y-108095000D03*
X108375000Y-111905000D03*
%TD*%
D21*
%TO.C,C10*%
X106950000Y-101000000D03*
X105050000Y-101000000D03*
%TD*%
D28*
%TO.C,D2*%
X134125000Y-96466666D03*
X136000000Y-96466666D03*
%TD*%
D29*
%TO.C,U6*%
X120950000Y-88337500D03*
X119050000Y-88337500D03*
X119050000Y-86062500D03*
X120950000Y-86062500D03*
X120000000Y-86062500D03*
%TD*%
D25*
%TO.C,SW2*%
X105800000Y-72248529D03*
X105800000Y-76348529D03*
X104200000Y-76348529D03*
X104200000Y-72248529D03*
%TD*%
D22*
%TO.C,R12*%
X125087500Y-109500000D03*
X126912500Y-109500000D03*
%TD*%
D18*
%TO.C,C8*%
X109000000Y-74450000D03*
X109000000Y-72550000D03*
%TD*%
D24*
%TO.C,C4*%
X114300000Y-92150000D03*
X114300000Y-90250000D03*
%TD*%
D10*
%TO.C,R8*%
X134107500Y-93033333D03*
X135932500Y-93033333D03*
%TD*%
D28*
%TO.C,D1*%
X134062500Y-90000000D03*
X135937500Y-90000000D03*
%TD*%
M02*
