%TF.GenerationSoftware,KiCad,Pcbnew,9.0.0*%
%TF.CreationDate,2025-03-17T13:33:28-06:00*%
%TF.ProjectId,TempLog,54656d70-4c6f-4672-9e6b-696361645f70,rev?*%
%TF.SameCoordinates,Original*%
%TF.FileFunction,Copper,L1,Top*%
%TF.FilePolarity,Positive*%
%FSLAX46Y46*%
G04 Gerber Fmt 4.6, Leading zero omitted, Abs format (unit mm)*
G04 Created by KiCad (PCBNEW 9.0.0) date 2025-03-17 13:33:28*
%MOMM*%
%LPD*%
G01*
G04 APERTURE LIST*
G04 Aperture macros list*
%AMRoundRect*
0 Rectangle with rounded corners*
0 $1 Rounding radius*
0 $2 $3 $4 $5 $6 $7 $8 $9 X,Y pos of 4 corners*
0 Add a 4 corners polygon primitive as box body*
4,1,4,$2,$3,$4,$5,$6,$7,$8,$9,$2,$3,0*
0 Add four circle primitives for the rounded corners*
1,1,$1+$1,$2,$3*
1,1,$1+$1,$4,$5*
1,1,$1+$1,$6,$7*
1,1,$1+$1,$8,$9*
0 Add four rect primitives between the rounded corners*
20,1,$1+$1,$2,$3,$4,$5,0*
20,1,$1+$1,$4,$5,$6,$7,0*
20,1,$1+$1,$6,$7,$8,$9,0*
20,1,$1+$1,$8,$9,$2,$3,0*%
G04 Aperture macros list end*
%TA.AperFunction,ComponentPad*%
%ADD10R,1.700000X1.700000*%
%TD*%
%TA.AperFunction,ComponentPad*%
%ADD11O,1.700000X1.700000*%
%TD*%
%TA.AperFunction,SMDPad,CuDef*%
%ADD12C,1.000000*%
%TD*%
%TA.AperFunction,SMDPad,CuDef*%
%ADD13RoundRect,0.250000X-0.262500X-0.450000X0.262500X-0.450000X0.262500X0.450000X-0.262500X0.450000X0*%
%TD*%
%TA.AperFunction,SMDPad,CuDef*%
%ADD14R,0.600000X1.000000*%
%TD*%
%TA.AperFunction,ComponentPad*%
%ADD15O,1.000000X1.600000*%
%TD*%
%TA.AperFunction,ComponentPad*%
%ADD16O,1.000000X2.100000*%
%TD*%
%TA.AperFunction,SMDPad,CuDef*%
%ADD17R,0.300000X1.000000*%
%TD*%
%TA.AperFunction,SMDPad,CuDef*%
%ADD18RoundRect,0.075000X-0.075000X-0.662500X0.075000X-0.662500X0.075000X0.662500X-0.075000X0.662500X0*%
%TD*%
%TA.AperFunction,SMDPad,CuDef*%
%ADD19RoundRect,0.075000X-0.662500X-0.075000X0.662500X-0.075000X0.662500X0.075000X-0.662500X0.075000X0*%
%TD*%
%TA.AperFunction,SMDPad,CuDef*%
%ADD20RoundRect,0.125000X-0.687500X-0.125000X0.687500X-0.125000X0.687500X0.125000X-0.687500X0.125000X0*%
%TD*%
%TA.AperFunction,SMDPad,CuDef*%
%ADD21RoundRect,0.250000X-0.475000X0.250000X-0.475000X-0.250000X0.475000X-0.250000X0.475000X0.250000X0*%
%TD*%
%TA.AperFunction,SMDPad,CuDef*%
%ADD22RoundRect,0.250000X0.450000X-0.262500X0.450000X0.262500X-0.450000X0.262500X-0.450000X-0.262500X0*%
%TD*%
%TA.AperFunction,SMDPad,CuDef*%
%ADD23R,2.400000X2.000000*%
%TD*%
%TA.AperFunction,SMDPad,CuDef*%
%ADD24RoundRect,0.250000X0.250000X0.475000X-0.250000X0.475000X-0.250000X-0.475000X0.250000X-0.475000X0*%
%TD*%
%TA.AperFunction,SMDPad,CuDef*%
%ADD25RoundRect,0.250000X0.262500X0.450000X-0.262500X0.450000X-0.262500X-0.450000X0.262500X-0.450000X0*%
%TD*%
%TA.AperFunction,SMDPad,CuDef*%
%ADD26R,1.800000X1.000000*%
%TD*%
%TA.AperFunction,SMDPad,CuDef*%
%ADD27RoundRect,0.250000X0.475000X-0.250000X0.475000X0.250000X-0.475000X0.250000X-0.475000X-0.250000X0*%
%TD*%
%TA.AperFunction,SMDPad,CuDef*%
%ADD28R,1.000000X0.900000*%
%TD*%
%TA.AperFunction,SMDPad,CuDef*%
%ADD29RoundRect,0.250000X-0.250000X-0.475000X0.250000X-0.475000X0.250000X0.475000X-0.250000X0.475000X0*%
%TD*%
%TA.AperFunction,SMDPad,CuDef*%
%ADD30RoundRect,0.150000X-0.675000X-0.150000X0.675000X-0.150000X0.675000X0.150000X-0.675000X0.150000X0*%
%TD*%
%TA.AperFunction,ComponentPad*%
%ADD31O,1.000000X1.000000*%
%TD*%
%TA.AperFunction,ComponentPad*%
%ADD32R,1.000000X1.000000*%
%TD*%
%TA.AperFunction,SMDPad,CuDef*%
%ADD33RoundRect,0.243750X0.243750X0.456250X-0.243750X0.456250X-0.243750X-0.456250X0.243750X-0.456250X0*%
%TD*%
%TA.AperFunction,SMDPad,CuDef*%
%ADD34RoundRect,0.150000X-0.150000X0.512500X-0.150000X-0.512500X0.150000X-0.512500X0.150000X0.512500X0*%
%TD*%
%TA.AperFunction,ViaPad*%
%ADD35C,0.600000*%
%TD*%
%TA.AperFunction,Conductor*%
%ADD36C,0.200000*%
%TD*%
%TA.AperFunction,Conductor*%
%ADD37C,0.250000*%
%TD*%
%TA.AperFunction,Conductor*%
%ADD38C,0.500000*%
%TD*%
G04 APERTURE END LIST*
D10*
%TO.P,J3,1,Pin_1*%
%TO.N,GND*%
X135500000Y-111000000D03*
D11*
%TO.P,J3,2,Pin_2*%
%TO.N,USART1_RX*%
X132960000Y-111000000D03*
%TO.P,J3,3,Pin_3*%
%TO.N,USART1_TX*%
X130420000Y-111000000D03*
%TD*%
D12*
%TO.P,TP14,1,1*%
%TO.N,SCL*%
X121250000Y-111500000D03*
%TD*%
%TO.P,TP13,1,1*%
%TO.N,SDA*%
X123000000Y-109500000D03*
%TD*%
D13*
%TO.P,R13,2*%
%TO.N,SCL*%
X118912500Y-114750000D03*
%TO.P,R13,1*%
%TO.N,+3V3*%
X117087500Y-114750000D03*
%TD*%
D14*
%TO.P,J6,VBUS,VBUS*%
%TO.N,VBUS*%
X117568000Y-77455000D03*
X122468000Y-77455000D03*
D15*
%TO.P,J6,S,SHIELD*%
%TO.N,GND*%
X115700000Y-72700000D03*
D16*
%TO.P,J6,NC3,NC*%
%TO.N,unconnected-(J6-NC-PadNC3)*%
X115700000Y-76880000D03*
%TO.P,J6,NC2,NC*%
%TO.N,unconnected-(J6-NC-PadNC2)*%
X124336000Y-76880000D03*
D15*
%TO.P,J6,NC1,NC*%
%TO.N,unconnected-(J6-NC-PadNC1)*%
X124336000Y-72700000D03*
D14*
%TO.P,J6,GND,GND*%
%TO.N,GND*%
X116793000Y-77455000D03*
X123243000Y-77455000D03*
D17*
%TO.P,J6,B8,NC*%
%TO.N,unconnected-(J6-NC-PadB8)*%
X121768000Y-77455000D03*
%TO.P,J6,B7,D-*%
%TO.N,unconnected-(J6-D--PadA7)_1*%
X120768000Y-77455000D03*
%TO.P,J6,B6,D+*%
%TO.N,unconnected-(J6-D+-PadA6)*%
X119268000Y-77455000D03*
%TO.P,J6,B5,CC2*%
%TO.N,unconnected-(J6-CC2-PadB5)*%
X118268000Y-77455000D03*
%TO.P,J6,A8,NC*%
%TO.N,unconnected-(J6-NC-PadA8)*%
X118768000Y-77455000D03*
%TO.P,J6,A7,D-*%
%TO.N,unconnected-(J6-D--PadA7)*%
X119768000Y-77455000D03*
%TO.P,J6,A6,D+*%
%TO.N,unconnected-(J6-D+-PadA6)_1*%
X120268000Y-77455000D03*
%TO.P,J6,A5,CC1*%
%TO.N,unconnected-(J6-CC1-PadA5)*%
X121268000Y-77455000D03*
%TD*%
D12*
%TO.P,TP7,1,1*%
%TO.N,FLASH_MOSI*%
X102400000Y-111250000D03*
%TD*%
%TO.P,TP10,1,1*%
%TO.N,USART1_TX*%
X133500000Y-116500000D03*
%TD*%
D18*
%TO.P,U1,48,VDD*%
%TO.N,+3V3*%
X117250000Y-92837500D03*
%TO.P,U1,46,PB9*%
%TO.N,BTN_1*%
X118250000Y-92837500D03*
%TO.P,U1,45,PB8*%
%TO.N,unconnected-(U1-PB8-Pad45)*%
X118750000Y-92837500D03*
%TO.P,U1,44,BOOT0*%
%TO.N,BOOT0*%
X119250000Y-92837500D03*
%TO.P,U1,43,PB7*%
%TO.N,unconnected-(U1-PB7-Pad43)*%
X119750000Y-92837500D03*
%TO.P,U1,42,PB6*%
%TO.N,unconnected-(U1-PB6-Pad42)*%
X120250000Y-92837500D03*
%TO.P,U1,41,PB5*%
%TO.N,unconnected-(U1-PB5-Pad41)*%
X120750000Y-92837500D03*
%TO.P,U1,40,PB4*%
%TO.N,unconnected-(U1-PB4-Pad40)*%
X121250000Y-92837500D03*
%TO.P,U1,39,PB3*%
%TO.N,unconnected-(U1-PB3-Pad39)*%
X121750000Y-92837500D03*
%TO.P,U1,38,PA15*%
%TO.N,unconnected-(U1-PA15-Pad38)*%
X122250000Y-92837500D03*
%TO.P,U1,37,PA14*%
%TO.N,SWDCLK*%
X122750000Y-92837500D03*
D19*
%TO.P,U1,36,PF7*%
%TO.N,unconnected-(U1-PF7-Pad36)*%
X124162500Y-94250000D03*
%TO.P,U1,35,PF6*%
%TO.N,unconnected-(U1-PF6-Pad35)*%
X124162500Y-94750000D03*
%TO.P,U1,34,PA13*%
%TO.N,SWDIO*%
X124162500Y-95250000D03*
%TO.P,U1,33,PA12*%
%TO.N,LED0*%
X124162500Y-95750000D03*
%TO.P,U1,32,PA11*%
%TO.N,LED1*%
X124162500Y-96250000D03*
%TO.P,U1,31,PA10*%
%TO.N,USART1_RX*%
X124162500Y-96750000D03*
%TO.P,U1,30,PA9*%
%TO.N,USART1_TX*%
X124162500Y-97250000D03*
%TO.P,U1,29,PA8*%
%TO.N,Net-(U1-PA8)*%
X124162500Y-97750000D03*
%TO.P,U1,28,PB15*%
%TO.N,unconnected-(U1-PB15-Pad28)*%
X124162500Y-98250000D03*
%TO.P,U1,27,PB14*%
%TO.N,unconnected-(U1-PB14-Pad27)*%
X124162500Y-98750000D03*
%TO.P,U1,26,PB13*%
%TO.N,unconnected-(U1-PB13-Pad26)*%
X124162500Y-99250000D03*
%TO.P,U1,25,PB12*%
%TO.N,unconnected-(U1-PB12-Pad25)*%
X124162500Y-99750000D03*
D18*
%TO.P,U1,24,VDD*%
%TO.N,+3V3*%
X122750000Y-101162500D03*
%TO.P,U1,22,PB11*%
%TO.N,SDA*%
X121750000Y-101162500D03*
%TO.P,U1,21,PB10*%
%TO.N,SCL*%
X121250000Y-101162500D03*
%TO.P,U1,20,PB2*%
%TO.N,unconnected-(U1-PB2-Pad20)*%
X120750000Y-101162500D03*
%TO.P,U1,19,PB1*%
%TO.N,unconnected-(U1-PB1-Pad19)*%
X120250000Y-101162500D03*
%TO.P,U1,18,PB0*%
%TO.N,FLASH_nWP*%
X119750000Y-101162500D03*
%TO.P,U1,17,PA7*%
%TO.N,FLASH_MOSI*%
X119250000Y-101162500D03*
%TO.P,U1,16,PA6*%
%TO.N,FLASH_MISO*%
X118750000Y-101162500D03*
%TO.P,U1,15,PA5*%
%TO.N,FLASH_SCK*%
X118250000Y-101162500D03*
%TO.P,U1,14,PA4*%
%TO.N,FLASH_nCS*%
X117750000Y-101162500D03*
%TO.P,U1,13,PA3*%
%TO.N,unconnected-(U1-PA3-Pad13)*%
X117250000Y-101162500D03*
D19*
%TO.P,U1,12,PA2*%
%TO.N,unconnected-(U1-PA2-Pad12)*%
X115837500Y-99750000D03*
%TO.P,U1,11,PA1*%
%TO.N,unconnected-(U1-PA1-Pad11)*%
X115837500Y-99250000D03*
%TO.P,U1,10,PA0*%
%TO.N,unconnected-(U1-PA0-Pad10)*%
X115837500Y-98750000D03*
%TO.P,U1,9,VDDA*%
%TO.N,+3V3*%
X115837500Y-98250000D03*
%TO.P,U1,7,NRST*%
%TO.N,NRST*%
X115837500Y-97250000D03*
%TO.P,U1,6,PF1*%
%TO.N,OSC_OUT*%
X115837500Y-96750000D03*
%TO.P,U1,5,PF0*%
%TO.N,OSC_IN*%
X115837500Y-96250000D03*
%TO.P,U1,4,PC15*%
%TO.N,OSC32_OUT*%
X115837500Y-95750000D03*
%TO.P,U1,3,PC14*%
%TO.N,OSC32_IN*%
X115837500Y-95250000D03*
%TO.P,U1,2,PC13*%
%TO.N,unconnected-(U1-PC13-Pad2)*%
X115837500Y-94750000D03*
%TO.P,U1,1,VDD*%
%TO.N,+3V3*%
X115837500Y-94250000D03*
D18*
%TO.P,U1,47,VSS*%
%TO.N,GND*%
X117750000Y-92837500D03*
D19*
%TO.P,U1,8,VSSA*%
X115837500Y-97750000D03*
D18*
%TO.P,U1,23,VSS*%
X122250000Y-101162500D03*
%TD*%
D12*
%TO.P,TP12,1,1*%
%TO.N,Net-(U1-PA8)*%
X127000000Y-101000000D03*
%TD*%
D20*
%TO.P,U3,8,V+*%
%TO.N,+3V3*%
X127312500Y-114225000D03*
%TO.P,U3,2,SCL*%
%TO.N,SCL*%
X123087500Y-114875000D03*
%TO.P,U3,1,SDA*%
%TO.N,SDA*%
X123087500Y-114225000D03*
%TO.P,U3,7,A0*%
%TO.N,GND*%
X127312500Y-114875000D03*
%TO.P,U3,6,A1*%
X127312500Y-115525000D03*
%TO.P,U3,3,ALERT*%
X123087500Y-115525000D03*
%TO.P,U3,5,A2*%
X127312500Y-116175000D03*
%TO.P,U3,4,GND*%
X123087500Y-116175000D03*
%TD*%
D21*
%TO.P,C1,1*%
%TO.N,NRST*%
X131000000Y-73300000D03*
%TO.P,C1,2*%
%TO.N,GND*%
X131000000Y-75200000D03*
%TD*%
%TO.P,C2,1*%
%TO.N,VCC*%
X116550000Y-86050000D03*
%TO.P,C2,2*%
%TO.N,GND*%
X116550000Y-87950000D03*
%TD*%
D22*
%TO.P,R10,1*%
%TO.N,Net-(C8-Pad2)*%
X111500000Y-74412500D03*
%TO.P,R10,2*%
%TO.N,GND*%
X111500000Y-72587500D03*
%TD*%
D23*
%TO.P,Y1,2,2*%
%TO.N,OSC_OUT*%
X110700000Y-100850000D03*
%TO.P,Y1,1,1*%
%TO.N,OSC_IN*%
X110700000Y-97150000D03*
%TD*%
D21*
%TO.P,C7,1*%
%TO.N,+3V3*%
X124400000Y-103050000D03*
%TO.P,C7,2*%
%TO.N,GND*%
X124400000Y-104950000D03*
%TD*%
D24*
%TO.P,C12,2*%
%TO.N,GND*%
X105050000Y-94500000D03*
%TO.P,C12,1*%
%TO.N,OSC32_OUT*%
X106950000Y-94500000D03*
%TD*%
D12*
%TO.P,TP9,1,1*%
%TO.N,FLASH_nWP*%
X102400000Y-116000000D03*
%TD*%
D25*
%TO.P,R6,2*%
%TO.N,BOOT0*%
X134170000Y-102500000D03*
%TO.P,R6,1*%
%TO.N,GND*%
X135995000Y-102500000D03*
%TD*%
D12*
%TO.P,TP6,1,1*%
%TO.N,FLASH_SCK*%
X102400000Y-108875000D03*
%TD*%
%TO.P,TP5,1,1*%
%TO.N,FLASH_nCS*%
X102400000Y-106500000D03*
%TD*%
D26*
%TO.P,Y2,2,2*%
%TO.N,OSC32_OUT*%
X110000000Y-94250000D03*
%TO.P,Y2,1,1*%
%TO.N,OSC32_IN*%
X110000000Y-91750000D03*
%TD*%
D24*
%TO.P,C11,2*%
%TO.N,GND*%
X105050000Y-92000000D03*
%TO.P,C11,1*%
%TO.N,OSC32_IN*%
X106950000Y-92000000D03*
%TD*%
D12*
%TO.P,TP8,1,1*%
%TO.N,FLASH_MISO*%
X102400000Y-113625000D03*
%TD*%
D24*
%TO.P,C9,1*%
%TO.N,OSC_IN*%
X106950000Y-97000000D03*
%TO.P,C9,2*%
%TO.N,GND*%
X105050000Y-97000000D03*
%TD*%
D27*
%TO.P,C5,1*%
%TO.N,+3V3*%
X126500000Y-87950000D03*
%TO.P,C5,2*%
%TO.N,GND*%
X126500000Y-86050000D03*
%TD*%
D25*
%TO.P,R11,2*%
%TO.N,BTN_1*%
X106087500Y-79500000D03*
%TO.P,R11,1*%
%TO.N,+3V3*%
X107912500Y-79500000D03*
%TD*%
D27*
%TO.P,C3,1*%
%TO.N,+3V3*%
X123550000Y-87950000D03*
%TO.P,C3,2*%
%TO.N,GND*%
X123550000Y-86050000D03*
%TD*%
D28*
%TO.P,SW1,2,2*%
%TO.N,NRST*%
X134200000Y-76550000D03*
X134200000Y-72450000D03*
%TO.P,SW1,1,1*%
%TO.N,GND*%
X135800000Y-72450000D03*
X135800000Y-76550000D03*
%TD*%
D12*
%TO.P,TP11,1,1*%
%TO.N,USART1_RX*%
X133500000Y-114000000D03*
%TD*%
D13*
%TO.P,R9,2*%
%TO.N,Net-(D2-K)*%
X135995000Y-99500000D03*
%TO.P,R9,1*%
%TO.N,GND*%
X134170000Y-99500000D03*
%TD*%
D29*
%TO.P,C6,1*%
%TO.N,+3V3*%
X113450000Y-103500000D03*
%TO.P,C6,2*%
%TO.N,GND*%
X115350000Y-103500000D03*
%TD*%
D30*
%TO.P,U2,8,VCC*%
%TO.N,+3V3*%
X113625000Y-108095000D03*
%TO.P,U2,7,NC*%
%TO.N,unconnected-(U2-NC-Pad7)*%
X113625000Y-109365000D03*
%TO.P,U2,6,SCLK*%
%TO.N,FLASH_SCK*%
X113625000Y-110635000D03*
%TO.P,U2,5,SI/IO0*%
%TO.N,FLASH_MOSI*%
X113625000Y-111905000D03*
%TO.P,U2,3,~{WP}*%
%TO.N,FLASH_nWP*%
X108375000Y-110635000D03*
%TO.P,U2,2,O1/SO*%
%TO.N,FLASH_MISO*%
X108375000Y-109365000D03*
%TO.P,U2,1,~{CS}*%
%TO.N,FLASH_nCS*%
X108375000Y-108095000D03*
%TO.P,U2,4,VSS*%
%TO.N,GND*%
X108375000Y-111905000D03*
%TD*%
D31*
%TO.P,J1,10,Pin_10*%
%TO.N,NRST*%
X134355000Y-80690000D03*
%TO.P,J1,8,Pin_8*%
%TO.N,unconnected-(J1-Pin_8-Pad8)*%
X134355000Y-81960000D03*
%TO.P,J1,7,Pin_7*%
%TO.N,unconnected-(J1-Pin_7-Pad7)*%
X135625000Y-81960000D03*
%TO.P,J1,6,Pin_6*%
%TO.N,unconnected-(J1-Pin_6-Pad6)*%
X134355000Y-83230000D03*
%TO.P,J1,4,Pin_4*%
%TO.N,SWDCLK*%
X134355000Y-84500000D03*
%TO.P,J1,2,Pin_2*%
%TO.N,SWDIO*%
X134355000Y-85770000D03*
D32*
%TO.P,J1,1,Pin_1*%
%TO.N,+3V3*%
X135625000Y-85770000D03*
D31*
%TO.P,J1,9,Pin_9*%
%TO.N,GND*%
X135625000Y-80690000D03*
%TO.P,J1,5,Pin_5*%
X135625000Y-83230000D03*
%TO.P,J1,3,Pin_3*%
X135625000Y-84500000D03*
%TD*%
D24*
%TO.P,C10,1*%
%TO.N,OSC_OUT*%
X106950000Y-101000000D03*
%TO.P,C10,2*%
%TO.N,GND*%
X105050000Y-101000000D03*
%TD*%
D33*
%TO.P,D2,2,A*%
%TO.N,LED1*%
X134125000Y-96466666D03*
%TO.P,D2,1,K*%
%TO.N,Net-(D2-K)*%
X136000000Y-96466666D03*
%TD*%
D34*
%TO.P,U6,5,VOUT*%
%TO.N,+3V3*%
X120950000Y-88337500D03*
%TO.P,U6,4,NC*%
%TO.N,unconnected-(U6-NC-Pad4)*%
X119050000Y-88337500D03*
%TO.P,U6,3,EN*%
%TO.N,VCC*%
X119050000Y-86062500D03*
%TO.P,U6,1,VIN*%
X120950000Y-86062500D03*
%TO.P,U6,2,GND*%
%TO.N,GND*%
X120000000Y-86062500D03*
%TD*%
D28*
%TO.P,SW2,2,2*%
%TO.N,BTN_1*%
X105800000Y-72248529D03*
X105800000Y-76348529D03*
%TO.P,SW2,1,1*%
%TO.N,GND*%
X104200000Y-76348529D03*
X104200000Y-72248529D03*
%TD*%
D25*
%TO.P,R12,2*%
%TO.N,SDA*%
X125087500Y-109500000D03*
%TO.P,R12,1*%
%TO.N,+3V3*%
X126912500Y-109500000D03*
%TD*%
D21*
%TO.P,C8,2*%
%TO.N,Net-(C8-Pad2)*%
X109000000Y-74450000D03*
%TO.P,C8,1*%
%TO.N,BTN_1*%
X109000000Y-72550000D03*
%TD*%
D27*
%TO.P,C4,1*%
%TO.N,+3V3*%
X114300000Y-92150000D03*
%TO.P,C4,2*%
%TO.N,GND*%
X114300000Y-90250000D03*
%TD*%
D13*
%TO.P,R8,1*%
%TO.N,GND*%
X134107500Y-93033333D03*
%TO.P,R8,2*%
%TO.N,Net-(D1-K)*%
X135932500Y-93033333D03*
%TD*%
D33*
%TO.P,D1,2,A*%
%TO.N,LED0*%
X134062500Y-90000000D03*
%TO.P,D1,1,K*%
%TO.N,Net-(D1-K)*%
X135937500Y-90000000D03*
%TD*%
D11*
%TO.P,J5,2,Pin_2*%
%TO.N,+3V3*%
X135515000Y-106000000D03*
D10*
%TO.P,J5,1,Pin_1*%
%TO.N,BOOT0*%
X132975000Y-106000000D03*
%TD*%
D11*
%TO.P,J7,2,Pin_2*%
%TO.N,VCC*%
X121265000Y-81500000D03*
D10*
%TO.P,J7,1,Pin_1*%
%TO.N,VBUS*%
X118725000Y-81500000D03*
%TD*%
D35*
%TO.N,+3V3*%
X111400000Y-104800000D03*
X111400000Y-108100000D03*
%TO.N,GND*%
X126500000Y-84600000D03*
X121200000Y-116200000D03*
X129600000Y-116200000D03*
X114700000Y-86900000D03*
X115400000Y-102000000D03*
X117200000Y-91400000D03*
X137400000Y-76550000D03*
X103600000Y-97000000D03*
X129200000Y-75150000D03*
X108400000Y-113600000D03*
X102700000Y-72248529D03*
X102700000Y-76348529D03*
X123200000Y-78700000D03*
X134182500Y-100933332D03*
X103600000Y-101000000D03*
X116800000Y-78700000D03*
X120000000Y-87200000D03*
X114400000Y-97700000D03*
X126100000Y-104900000D03*
X132682500Y-93000000D03*
X137400000Y-72450000D03*
%TO.N,NRST*%
X122400000Y-94400000D03*
%TO.N,BTN_1*%
X110500000Y-77948529D03*
X107500000Y-77948529D03*
%TO.N,FLASH_SCK*%
X105100000Y-109800000D03*
X111300000Y-110600000D03*
%TO.N,FLASH_MISO*%
X111400000Y-109400000D03*
X117500000Y-107800000D03*
%TO.N,FLASH_MOSI*%
X103500000Y-112300000D03*
X111200000Y-111900000D03*
X115700000Y-110500000D03*
X118400000Y-107800000D03*
%TO.N,BOOT0*%
X119300000Y-95900000D03*
%TO.N,unconnected-(U6-NC-Pad4)*%
X119000000Y-88300000D03*
%TD*%
D36*
%TO.N,LED0*%
X124162500Y-95750000D02*
X126850000Y-95750000D01*
X132600000Y-90000000D02*
X134062500Y-90000000D01*
X126850000Y-95750000D02*
X132600000Y-90000000D01*
D37*
%TO.N,USART1_RX*%
X128040903Y-96750000D02*
X124162500Y-96750000D01*
D36*
%TO.N,FLASH_MOSI*%
X102400000Y-111250000D02*
X102450000Y-111250000D01*
X102450000Y-111250000D02*
X103500000Y-112300000D01*
%TO.N,FLASH_SCK*%
X102400000Y-108875000D02*
X103325000Y-109800000D01*
X103325000Y-109800000D02*
X105100000Y-109800000D01*
%TO.N,FLASH_nWP*%
X102400000Y-116000000D02*
X107765000Y-110635000D01*
X107765000Y-110635000D02*
X108375000Y-110635000D01*
D37*
%TO.N,FLASH_MISO*%
X108375000Y-109365000D02*
X107550001Y-109365000D01*
X107550001Y-109365000D02*
X103290001Y-113625000D01*
X103290001Y-113625000D02*
X102400000Y-113625000D01*
%TO.N,FLASH_MOSI*%
X113625000Y-111905000D02*
X111205000Y-111905000D01*
X111205000Y-111905000D02*
X111200000Y-111900000D01*
%TO.N,FLASH_SCK*%
X113625000Y-110635000D02*
X111335000Y-110635000D01*
X111335000Y-110635000D02*
X111300000Y-110600000D01*
D36*
%TO.N,FLASH_nCS*%
X102400000Y-106500000D02*
X106780000Y-106500000D01*
X106780000Y-106500000D02*
X108375000Y-108095000D01*
D38*
%TO.N,FLASH_MISO*%
X102400000Y-113400000D02*
X102400000Y-113625000D01*
D37*
%TO.N,SWDCLK*%
X125162500Y-92837500D02*
X133500000Y-84500000D01*
X133500000Y-84500000D02*
X134355000Y-84500000D01*
D36*
%TO.N,LED1*%
X124162500Y-96250000D02*
X133908334Y-96250000D01*
X133908334Y-96250000D02*
X134125000Y-96466666D01*
D37*
%TO.N,USART1_RX*%
X128040903Y-96750000D02*
X130900000Y-99609097D01*
X130900000Y-99609097D02*
X130900000Y-108940000D01*
X130900000Y-108940000D02*
X132960000Y-111000000D01*
%TO.N,USART1_TX*%
X124162500Y-97250000D02*
X126250000Y-97250000D01*
X126250000Y-97250000D02*
X128800000Y-99800000D01*
X128800000Y-99800000D02*
X128800000Y-109380000D01*
X128800000Y-109380000D02*
X130420000Y-111000000D01*
%TO.N,Net-(U1-PA8)*%
X124162500Y-97750000D02*
X124899999Y-97750000D01*
X124899999Y-97750000D02*
X127000000Y-99850001D01*
X127000000Y-99850001D02*
X127000000Y-101000000D01*
X124162500Y-97750000D02*
X124969178Y-97750000D01*
D36*
%TO.N,BOOT0*%
X132975000Y-106000000D02*
X132975000Y-103695000D01*
X132975000Y-103695000D02*
X134170000Y-102500000D01*
%TO.N,USART1_TX*%
X133500000Y-116500000D02*
X130420000Y-113420000D01*
X130420000Y-113420000D02*
X130420000Y-111000000D01*
%TO.N,USART1_RX*%
X133500000Y-114000000D02*
X133500000Y-111540000D01*
X133500000Y-111540000D02*
X132960000Y-111000000D01*
D37*
%TO.N,NRST*%
X134355000Y-80690000D02*
X134355000Y-76705000D01*
X134355000Y-76705000D02*
X134200000Y-76550000D01*
%TO.N,SWDIO*%
X124162500Y-95250000D02*
X125718256Y-95250000D01*
X134355000Y-86613256D02*
X134355000Y-85770000D01*
X125718256Y-95250000D02*
X134355000Y-86613256D01*
D36*
%TO.N,SDA*%
X125087500Y-109500000D02*
X123000000Y-109500000D01*
X123087500Y-114225000D02*
X123087500Y-109587500D01*
X123087500Y-109587500D02*
X123000000Y-109500000D01*
X123000000Y-109500000D02*
X121750000Y-108250000D01*
X121750000Y-108250000D02*
X121750000Y-101162500D01*
%TO.N,SCL*%
X121250000Y-111500000D02*
X121250000Y-101162500D01*
X123087500Y-114875000D02*
X122275001Y-114875000D01*
X122275001Y-114875000D02*
X121250000Y-113849999D01*
X121250000Y-113849999D02*
X121250000Y-111500000D01*
%TO.N,GND*%
X134107500Y-93033333D02*
X132715833Y-93033333D01*
X132715833Y-93033333D02*
X132682500Y-93000000D01*
%TO.N,+3V3*%
X117250000Y-92837500D02*
X116562500Y-92150000D01*
X116562500Y-92150000D02*
X114300000Y-92150000D01*
%TO.N,GND*%
X116050000Y-90250000D02*
X114300000Y-90250000D01*
%TO.N,+3V3*%
X114650000Y-94250000D02*
X114300000Y-93900000D01*
X115837500Y-94250000D02*
X114650000Y-94250000D01*
X114300000Y-93900000D02*
X114300000Y-92150000D01*
%TO.N,GND*%
X116050000Y-90250000D02*
X117200000Y-91400000D01*
D38*
X105050000Y-97000000D02*
X105050000Y-92000000D01*
D36*
X126500000Y-86050000D02*
X126500000Y-84600000D01*
X121225000Y-116175000D02*
X121200000Y-116200000D01*
X123087500Y-116175000D02*
X121225000Y-116175000D01*
X129600000Y-116200000D02*
X129575000Y-116175000D01*
X129575000Y-116175000D02*
X127312500Y-116175000D01*
X115750000Y-87950000D02*
X114700000Y-86900000D01*
D38*
X115350000Y-103500000D02*
X115350000Y-102050000D01*
X115350000Y-102050000D02*
X115400000Y-102000000D01*
D37*
X117750000Y-91950000D02*
X117200000Y-91400000D01*
D38*
X135800000Y-76550000D02*
X137400000Y-76550000D01*
X105050000Y-97000000D02*
X103600000Y-97000000D01*
X129250000Y-75200000D02*
X129200000Y-75150000D01*
X131000000Y-75200000D02*
X129250000Y-75200000D01*
X108375000Y-113575000D02*
X108400000Y-113600000D01*
X108375000Y-111905000D02*
X108375000Y-113575000D01*
X104200000Y-72248529D02*
X102700000Y-72248529D01*
X104200000Y-76348529D02*
X102700000Y-76348529D01*
X123225000Y-77466250D02*
X123225000Y-78675000D01*
X123225000Y-78675000D02*
X123200000Y-78700000D01*
D36*
X134170000Y-100954166D02*
X134182500Y-100966666D01*
X134170000Y-99500000D02*
X134170000Y-100954166D01*
X135515832Y-100933332D02*
X134182500Y-100933332D01*
D38*
X105050000Y-101000000D02*
X103600000Y-101000000D01*
X116775000Y-78675000D02*
X116800000Y-78700000D01*
X116775000Y-77466250D02*
X116775000Y-78675000D01*
X120000000Y-86062500D02*
X120000000Y-87200000D01*
D36*
X114450000Y-97750000D02*
X114400000Y-97700000D01*
X115837500Y-97750000D02*
X114450000Y-97750000D01*
X124400000Y-104950000D02*
X126050000Y-104950000D01*
X126050000Y-104950000D02*
X126100000Y-104900000D01*
D38*
X135800000Y-72450000D02*
X137400000Y-72450000D01*
D36*
X123550000Y-86050000D02*
X126500000Y-86050000D01*
X123087500Y-115525000D02*
X123087500Y-116175000D01*
X127312500Y-114875000D02*
X127312500Y-116175000D01*
X116550000Y-87950000D02*
X115750000Y-87950000D01*
D37*
X117750000Y-92837500D02*
X117750000Y-91950000D01*
D36*
X135995000Y-101412500D02*
X135515832Y-100933332D01*
X124400000Y-104950000D02*
X122250000Y-102800000D01*
X135995000Y-102500000D02*
X135995000Y-101412500D01*
X122250000Y-102800000D02*
X122250000Y-101162500D01*
X111500000Y-72587500D02*
X115558250Y-72587500D01*
X115558250Y-72587500D02*
X115682000Y-72711250D01*
%TO.N,VCC*%
X119050000Y-84550000D02*
X118800000Y-84300000D01*
X119050000Y-86062500D02*
X119050000Y-84550000D01*
X118800000Y-84300000D02*
X116800000Y-84300000D01*
X116550000Y-86050000D02*
X116550000Y-84550000D01*
X116550000Y-84550000D02*
X116800000Y-84300000D01*
X120950000Y-86062500D02*
X120950000Y-81815000D01*
X120950000Y-81815000D02*
X121265000Y-81500000D01*
D38*
%TO.N,BTN_1*%
X105800000Y-72248529D02*
X108698529Y-72248529D01*
X108698529Y-72248529D02*
X109000000Y-72550000D01*
D36*
%TO.N,+3V3*%
X114000000Y-92412500D02*
X114000000Y-92150000D01*
X115837500Y-98250000D02*
X115066176Y-98250000D01*
X115066176Y-98250000D02*
X114500000Y-98816176D01*
X114500000Y-98816176D02*
X114500000Y-101100000D01*
D37*
%TO.N,NRST*%
X119550000Y-97250000D02*
X122400000Y-94400000D01*
D38*
X131850000Y-72450000D02*
X131000000Y-73300000D01*
D37*
X115837500Y-97250000D02*
X119550000Y-97250000D01*
D38*
X134200000Y-72450000D02*
X131850000Y-72450000D01*
X134200000Y-72450000D02*
X134200000Y-76550000D01*
D36*
%TO.N,+3V3*%
X124400000Y-103050000D02*
X122750000Y-101400000D01*
D37*
X113450000Y-102150000D02*
X113450000Y-102900000D01*
X114500000Y-101100000D02*
X113450000Y-102150000D01*
D36*
X123500000Y-101100000D02*
X123437500Y-101162500D01*
X122750000Y-101162500D02*
X123437500Y-101162500D01*
D38*
X123550000Y-87950000D02*
X121337500Y-87950000D01*
D36*
X122750000Y-101400000D02*
X122750000Y-101162500D01*
D38*
X121337500Y-87950000D02*
X120950000Y-88337500D01*
D37*
%TO.N,BTN_1*%
X110500000Y-77948529D02*
X113300000Y-80748529D01*
X116085298Y-89400000D02*
X118250000Y-91564702D01*
D38*
X105800000Y-72248529D02*
X105800000Y-76348529D01*
D37*
X115500000Y-89400000D02*
X116085298Y-89400000D01*
D38*
X105912500Y-79548529D02*
X105912500Y-77848529D01*
D36*
X107500000Y-77948529D02*
X106012500Y-77948529D01*
D37*
X113300000Y-80748529D02*
X113300000Y-87200000D01*
D36*
X106012500Y-77948529D02*
X105912500Y-77848529D01*
D38*
X105912500Y-77848529D02*
X105912500Y-76461029D01*
D37*
X118250000Y-91564702D02*
X118250000Y-92837500D01*
D38*
X105912500Y-76461029D02*
X105800000Y-76348529D01*
D37*
X113300000Y-87200000D02*
X115500000Y-89400000D01*
D38*
%TO.N,OSC_IN*%
X110350000Y-97000000D02*
X110500000Y-97150000D01*
D37*
X111400000Y-96250000D02*
X115837500Y-96250000D01*
D38*
X106950000Y-97000000D02*
X110350000Y-97000000D01*
D37*
X110500000Y-97150000D02*
X111400000Y-96250000D01*
%TO.N,OSC_OUT*%
X113100000Y-99400000D02*
X113100000Y-97000000D01*
X110500000Y-100850000D02*
X111650000Y-100850000D01*
D38*
X110350000Y-101000000D02*
X110500000Y-100850000D01*
D37*
X113100000Y-97000000D02*
X113350000Y-96750000D01*
D38*
X106950000Y-101000000D02*
X110350000Y-101000000D01*
D37*
X113350000Y-96750000D02*
X115837500Y-96750000D01*
X111650000Y-100850000D02*
X113100000Y-99400000D01*
%TO.N,OSC32_IN*%
X110000000Y-91750000D02*
X111450000Y-91750000D01*
X112850000Y-95250000D02*
X115837500Y-95250000D01*
X112100000Y-92400000D02*
X112100000Y-94500000D01*
D38*
X109750000Y-92000000D02*
X110000000Y-91750000D01*
D37*
X112100000Y-94500000D02*
X112850000Y-95250000D01*
D38*
X106950000Y-92000000D02*
X109750000Y-92000000D01*
D37*
X111450000Y-91750000D02*
X112100000Y-92400000D01*
D38*
%TO.N,VBUS*%
X121866250Y-78900000D02*
X120900000Y-78900000D01*
X122450000Y-77466250D02*
X122450000Y-78316250D01*
X120900000Y-78900000D02*
X119000000Y-78900000D01*
X122450000Y-78316250D02*
X121866250Y-78900000D01*
X119000000Y-78900000D02*
X118133750Y-78900000D01*
X118133750Y-78900000D02*
X117550000Y-78316250D01*
X117550000Y-78316250D02*
X117550000Y-77466250D01*
D37*
%TO.N,OSC32_OUT*%
X110000000Y-94250000D02*
X111050000Y-94250000D01*
X111050000Y-94250000D02*
X112550000Y-95750000D01*
X112550000Y-95750000D02*
X115837500Y-95750000D01*
D38*
X109750000Y-94500000D02*
X110000000Y-94250000D01*
X106950000Y-94500000D02*
X109750000Y-94500000D01*
D36*
%TO.N,Net-(D1-K)*%
X135937500Y-90000000D02*
X135937500Y-93028333D01*
X135937500Y-93028333D02*
X135932500Y-93033333D01*
D37*
%TO.N,FLASH_nWP*%
X111200000Y-112900000D02*
X108935000Y-110635000D01*
X119750000Y-107333884D02*
X119750000Y-101162500D01*
X114183884Y-112900000D02*
X111200000Y-112900000D01*
X108935000Y-110635000D02*
X108375000Y-110635000D01*
X114183884Y-112900000D02*
X119750000Y-107333884D01*
%TO.N,FLASH_SCK*%
X118250000Y-106050000D02*
X118250000Y-101162500D01*
X113625000Y-110635000D02*
X114165000Y-110635000D01*
X114165000Y-110635000D02*
X115000000Y-109800000D01*
X117000000Y-107300000D02*
X118250000Y-106050000D01*
X115000000Y-108129240D02*
X115829240Y-107300000D01*
X115000000Y-109800000D02*
X115000000Y-108129240D01*
X115829240Y-107300000D02*
X117000000Y-107300000D01*
%TO.N,FLASH_MISO*%
X111400000Y-109400000D02*
X111000000Y-109400000D01*
X118750000Y-106550000D02*
X117500000Y-107800000D01*
X118750000Y-101162500D02*
X118750000Y-106550000D01*
X110965000Y-109365000D02*
X108375000Y-109365000D01*
X111000000Y-109400000D02*
X110965000Y-109365000D01*
%TO.N,FLASH_nCS*%
X110170000Y-106300000D02*
X108375000Y-108095000D01*
X117750000Y-101162500D02*
X117750000Y-105250000D01*
X116700000Y-106300000D02*
X110170000Y-106300000D01*
X117750000Y-105250000D02*
X116700000Y-106300000D01*
%TO.N,FLASH_MOSI*%
X119275000Y-101187500D02*
X119250000Y-101162500D01*
X115700000Y-110500000D02*
X114295000Y-111905000D01*
X114295000Y-111905000D02*
X113625000Y-111905000D01*
X119250000Y-106950000D02*
X118400000Y-107800000D01*
X119250000Y-101162500D02*
X119250000Y-106950000D01*
D36*
%TO.N,BOOT0*%
X119250000Y-93607410D02*
X119300000Y-93657410D01*
X119250000Y-92837500D02*
X119250000Y-93607410D01*
X119300000Y-93657410D02*
X119300000Y-95900000D01*
%TO.N,Net-(D2-K)*%
X136000000Y-99495000D02*
X135995000Y-99500000D01*
X136000000Y-96466666D02*
X136000000Y-99495000D01*
D37*
%TO.N,SWDCLK*%
X122750000Y-92837500D02*
X125162500Y-92837500D01*
%TO.N,Net-(C8-Pad2)*%
X109037500Y-74412500D02*
X109000000Y-74450000D01*
X111500000Y-74412500D02*
X109037500Y-74412500D01*
D36*
%TO.N,SCL*%
X118912500Y-114750000D02*
X120349999Y-114750000D01*
X120349999Y-114750000D02*
X121250000Y-113849999D01*
%TD*%
%TA.AperFunction,Conductor*%
%TO.N,VCC*%
G36*
X122343039Y-80419685D02*
G01*
X122388794Y-80472489D01*
X122400000Y-80524000D01*
X122400000Y-84470728D01*
X122386909Y-84526182D01*
X122234273Y-84831454D01*
X122186686Y-84882613D01*
X122123364Y-84900000D01*
X120226922Y-84900000D01*
X120217193Y-84899618D01*
X120215699Y-84899500D01*
X120215694Y-84899500D01*
X119784306Y-84899500D01*
X119784300Y-84899500D01*
X119782807Y-84899618D01*
X119773078Y-84900000D01*
X119400000Y-84900000D01*
X119400000Y-85028691D01*
X119380315Y-85095730D01*
X119363681Y-85116372D01*
X119331923Y-85148129D01*
X119331917Y-85148137D01*
X119248255Y-85289603D01*
X119248254Y-85289606D01*
X119202402Y-85447426D01*
X119202401Y-85447432D01*
X119199500Y-85484298D01*
X119199500Y-86476000D01*
X119179815Y-86543039D01*
X119127011Y-86588794D01*
X119075500Y-86600000D01*
X115624000Y-86600000D01*
X115556961Y-86580315D01*
X115511206Y-86527511D01*
X115500000Y-86476000D01*
X115500000Y-83951362D01*
X115519685Y-83884323D01*
X115536319Y-83863681D01*
X115763681Y-83636319D01*
X115825004Y-83602834D01*
X115851362Y-83600000D01*
X120099999Y-83600000D01*
X120100000Y-83600000D01*
X120300000Y-83300000D01*
X120300000Y-80524000D01*
X120319685Y-80456961D01*
X120372489Y-80411206D01*
X120424000Y-80400000D01*
X122276000Y-80400000D01*
X122343039Y-80419685D01*
G37*
%TD.AperFunction*%
%TD*%
%TA.AperFunction,Conductor*%
%TO.N,+3V3*%
G36*
X115086826Y-106945185D02*
G01*
X115132581Y-106997989D01*
X115142525Y-107067147D01*
X115113500Y-107130703D01*
X115107468Y-107137181D01*
X114842319Y-107402329D01*
X114780996Y-107435814D01*
X114711304Y-107430830D01*
X114691517Y-107421380D01*
X114560196Y-107343717D01*
X114560193Y-107343716D01*
X114402495Y-107297900D01*
X114402489Y-107297899D01*
X114365649Y-107295000D01*
X113875000Y-107295000D01*
X113875000Y-107971000D01*
X113855315Y-108038039D01*
X113802511Y-108083794D01*
X113751000Y-108095000D01*
X113625000Y-108095000D01*
X113625000Y-108221000D01*
X113605315Y-108288039D01*
X113552511Y-108333794D01*
X113501000Y-108345000D01*
X112302705Y-108345000D01*
X112302704Y-108345001D01*
X112302899Y-108347486D01*
X112348718Y-108505198D01*
X112432314Y-108646552D01*
X112437100Y-108652722D01*
X112434640Y-108654629D01*
X112461210Y-108703288D01*
X112456226Y-108772980D01*
X112435162Y-108805781D01*
X112436699Y-108806974D01*
X112431915Y-108813140D01*
X112348255Y-108954603D01*
X112336610Y-108994685D01*
X112299003Y-109053570D01*
X112235530Y-109082775D01*
X112166343Y-109073028D01*
X112113409Y-109027424D01*
X112110444Y-109022391D01*
X112021789Y-108889711D01*
X112021786Y-108889707D01*
X111910292Y-108778213D01*
X111910288Y-108778210D01*
X111779185Y-108690609D01*
X111779172Y-108690602D01*
X111633501Y-108630264D01*
X111633489Y-108630261D01*
X111478845Y-108599500D01*
X111478842Y-108599500D01*
X111321158Y-108599500D01*
X111321155Y-108599500D01*
X111166510Y-108630261D01*
X111166498Y-108630264D01*
X111020827Y-108690602D01*
X111020820Y-108690606D01*
X111001841Y-108703288D01*
X110978921Y-108718602D01*
X110912245Y-108739480D01*
X110910031Y-108739500D01*
X109730692Y-108739500D01*
X109663653Y-108719815D01*
X109617898Y-108667011D01*
X109607954Y-108597853D01*
X109623959Y-108552380D01*
X109624595Y-108551304D01*
X109651744Y-108505398D01*
X109692348Y-108365641D01*
X109697597Y-108347573D01*
X109697598Y-108347567D01*
X109700500Y-108310694D01*
X109700500Y-107879306D01*
X109697800Y-107844998D01*
X112302704Y-107844998D01*
X112302705Y-107845000D01*
X113375000Y-107845000D01*
X113375000Y-107295000D01*
X112884350Y-107295000D01*
X112847510Y-107297899D01*
X112847504Y-107297900D01*
X112689806Y-107343716D01*
X112689803Y-107343717D01*
X112548447Y-107427314D01*
X112548438Y-107427321D01*
X112432321Y-107543438D01*
X112432314Y-107543447D01*
X112348718Y-107684801D01*
X112302899Y-107842513D01*
X112302704Y-107844998D01*
X109697800Y-107844998D01*
X109697598Y-107842431D01*
X109674631Y-107763382D01*
X109673523Y-107757487D01*
X109676425Y-107728461D01*
X109676509Y-107699292D01*
X109679915Y-107693569D01*
X109680476Y-107687965D01*
X109691578Y-107673975D01*
X109707703Y-107646886D01*
X110392772Y-106961819D01*
X110454095Y-106928334D01*
X110480453Y-106925500D01*
X115019787Y-106925500D01*
X115086826Y-106945185D01*
G37*
%TD.AperFunction*%
%TA.AperFunction,Conductor*%
G36*
X139442539Y-70520185D02*
G01*
X139488294Y-70572989D01*
X139499500Y-70624500D01*
X139499500Y-119375500D01*
X139479815Y-119442539D01*
X139427011Y-119488294D01*
X139375500Y-119499500D01*
X100624500Y-119499500D01*
X100557461Y-119479815D01*
X100511706Y-119427011D01*
X100500500Y-119375500D01*
X100500500Y-106598543D01*
X101399499Y-106598543D01*
X101437947Y-106791829D01*
X101437950Y-106791839D01*
X101513364Y-106973907D01*
X101513371Y-106973920D01*
X101622860Y-107137781D01*
X101622863Y-107137785D01*
X101762214Y-107277136D01*
X101762218Y-107277139D01*
X101926079Y-107386628D01*
X101926092Y-107386635D01*
X102108160Y-107462049D01*
X102108165Y-107462051D01*
X102108169Y-107462051D01*
X102108170Y-107462052D01*
X102301456Y-107500500D01*
X102301459Y-107500500D01*
X102498543Y-107500500D01*
X102628582Y-107474632D01*
X102691835Y-107462051D01*
X102873914Y-107386632D01*
X103037782Y-107277139D01*
X103107377Y-107207544D01*
X103178103Y-107136819D01*
X103239426Y-107103334D01*
X103265784Y-107100500D01*
X106479903Y-107100500D01*
X106546942Y-107120185D01*
X106567584Y-107136819D01*
X107050253Y-107619489D01*
X107083738Y-107680812D01*
X107081648Y-107741765D01*
X107052402Y-107842426D01*
X107052401Y-107842432D01*
X107049500Y-107879298D01*
X107049500Y-108310689D01*
X107052401Y-108347567D01*
X107052402Y-108347573D01*
X107098254Y-108505393D01*
X107098255Y-108505396D01*
X107181917Y-108646862D01*
X107186702Y-108653031D01*
X107184256Y-108654927D01*
X107210857Y-108703642D01*
X107205873Y-108773334D01*
X107195075Y-108795347D01*
X107187514Y-108807539D01*
X107181919Y-108813135D01*
X107138084Y-108887253D01*
X107137371Y-108888405D01*
X107136134Y-108889512D01*
X107119670Y-108910738D01*
X107064144Y-108966266D01*
X107064143Y-108966265D01*
X107064140Y-108966270D01*
X106112181Y-109918229D01*
X106050858Y-109951714D01*
X105981166Y-109946730D01*
X105925233Y-109904858D01*
X105900816Y-109839394D01*
X105900500Y-109830548D01*
X105900500Y-109721155D01*
X105900499Y-109721153D01*
X105869737Y-109566503D01*
X105868059Y-109562452D01*
X105809397Y-109420827D01*
X105809390Y-109420814D01*
X105721789Y-109289711D01*
X105721786Y-109289707D01*
X105610292Y-109178213D01*
X105610288Y-109178210D01*
X105479185Y-109090609D01*
X105479172Y-109090602D01*
X105333501Y-109030264D01*
X105333489Y-109030261D01*
X105178845Y-108999500D01*
X105178842Y-108999500D01*
X105021158Y-108999500D01*
X105021155Y-108999500D01*
X104866510Y-109030261D01*
X104866498Y-109030264D01*
X104720827Y-109090602D01*
X104720814Y-109090609D01*
X104589125Y-109178602D01*
X104522447Y-109199480D01*
X104520234Y-109199500D01*
X103625098Y-109199500D01*
X103595657Y-109190855D01*
X103565671Y-109184332D01*
X103560655Y-109180577D01*
X103558059Y-109179815D01*
X103537417Y-109163181D01*
X103436819Y-109062583D01*
X103403334Y-109001260D01*
X103400500Y-108974902D01*
X103400500Y-108776456D01*
X103362052Y-108583170D01*
X103362051Y-108583169D01*
X103362051Y-108583165D01*
X103360659Y-108579805D01*
X103286635Y-108401092D01*
X103286628Y-108401079D01*
X103177139Y-108237218D01*
X103177136Y-108237214D01*
X103037785Y-108097863D01*
X103037781Y-108097860D01*
X102873920Y-107988371D01*
X102873907Y-107988364D01*
X102691839Y-107912950D01*
X102691829Y-107912947D01*
X102498543Y-107874500D01*
X102498541Y-107874500D01*
X102301459Y-107874500D01*
X102301457Y-107874500D01*
X102108170Y-107912947D01*
X102108160Y-107912950D01*
X101926092Y-107988364D01*
X101926079Y-107988371D01*
X101762218Y-108097860D01*
X101762214Y-108097863D01*
X101622863Y-108237214D01*
X101622860Y-108237218D01*
X101513371Y-108401079D01*
X101513364Y-108401092D01*
X101437950Y-108583160D01*
X101437947Y-108583170D01*
X101399500Y-108776456D01*
X101399500Y-108776459D01*
X101399500Y-108973541D01*
X101399500Y-108973543D01*
X101399499Y-108973543D01*
X101437947Y-109166829D01*
X101437950Y-109166839D01*
X101513364Y-109348907D01*
X101513371Y-109348920D01*
X101622860Y-109512781D01*
X101622863Y-109512785D01*
X101762214Y-109652136D01*
X101762218Y-109652139D01*
X101926079Y-109761628D01*
X101926092Y-109761635D01*
X102092465Y-109830548D01*
X102108165Y-109837051D01*
X102108169Y-109837051D01*
X102108170Y-109837052D01*
X102301456Y-109875500D01*
X102499902Y-109875500D01*
X102529342Y-109884144D01*
X102559329Y-109890668D01*
X102564344Y-109894422D01*
X102566941Y-109895185D01*
X102587583Y-109911819D01*
X102742174Y-110066410D01*
X102775659Y-110127733D01*
X102770675Y-110197425D01*
X102728803Y-110253358D01*
X102663339Y-110277775D01*
X102630302Y-110275708D01*
X102498545Y-110249500D01*
X102498541Y-110249500D01*
X102301459Y-110249500D01*
X102301457Y-110249500D01*
X102108170Y-110287947D01*
X102108160Y-110287950D01*
X101926092Y-110363364D01*
X101926079Y-110363371D01*
X101762218Y-110472860D01*
X101762214Y-110472863D01*
X101622863Y-110612214D01*
X101622860Y-110612218D01*
X101513371Y-110776079D01*
X101513364Y-110776092D01*
X101437950Y-110958160D01*
X101437947Y-110958170D01*
X101399500Y-111151456D01*
X101399500Y-111151459D01*
X101399500Y-111348541D01*
X101399500Y-111348543D01*
X101399499Y-111348543D01*
X101437947Y-111541829D01*
X101437950Y-111541839D01*
X101513364Y-111723907D01*
X101513371Y-111723920D01*
X101622860Y-111887781D01*
X101622863Y-111887785D01*
X101762214Y-112027136D01*
X101762218Y-112027139D01*
X101926079Y-112136628D01*
X101926092Y-112136635D01*
X102052111Y-112188833D01*
X102108165Y-112212051D01*
X102108169Y-112212051D01*
X102108170Y-112212052D01*
X102301456Y-112250500D01*
X102301459Y-112250500D01*
X102498543Y-112250500D01*
X102508931Y-112248432D01*
X102519211Y-112246388D01*
X102527119Y-112247095D01*
X102534561Y-112244320D01*
X102561421Y-112250163D01*
X102588802Y-112252612D01*
X102596813Y-112257862D01*
X102602834Y-112259172D01*
X102631088Y-112280323D01*
X102665425Y-112314660D01*
X102698910Y-112375983D01*
X102699361Y-112378149D01*
X102722451Y-112494226D01*
X102716224Y-112563818D01*
X102673361Y-112618995D01*
X102607472Y-112642240D01*
X102576642Y-112640035D01*
X102498543Y-112624500D01*
X102498541Y-112624500D01*
X102301459Y-112624500D01*
X102301457Y-112624500D01*
X102108170Y-112662947D01*
X102108160Y-112662950D01*
X101926092Y-112738364D01*
X101926079Y-112738371D01*
X101762218Y-112847860D01*
X101762214Y-112847863D01*
X101622863Y-112987214D01*
X101622860Y-112987218D01*
X101513371Y-113151079D01*
X101513364Y-113151092D01*
X101437950Y-113333160D01*
X101437947Y-113333170D01*
X101399500Y-113526456D01*
X101399500Y-113526459D01*
X101399500Y-113723541D01*
X101399500Y-113723543D01*
X101399499Y-113723543D01*
X101437947Y-113916829D01*
X101437950Y-113916839D01*
X101513364Y-114098907D01*
X101513371Y-114098920D01*
X101622860Y-114262781D01*
X101622863Y-114262785D01*
X101762214Y-114402136D01*
X101762218Y-114402139D01*
X101926079Y-114511628D01*
X101926092Y-114511635D01*
X102108160Y-114587049D01*
X102108165Y-114587051D01*
X102108169Y-114587051D01*
X102108170Y-114587052D01*
X102301456Y-114625500D01*
X102301459Y-114625500D01*
X102498543Y-114625500D01*
X102630302Y-114599291D01*
X102664030Y-114602308D01*
X102697828Y-114604726D01*
X102698749Y-114605415D01*
X102699894Y-114605518D01*
X102726637Y-114626293D01*
X102753761Y-114646598D01*
X102754162Y-114647675D01*
X102755071Y-114648381D01*
X102766339Y-114680320D01*
X102778178Y-114712062D01*
X102777933Y-114713185D01*
X102778316Y-114714270D01*
X102770530Y-114747218D01*
X102763326Y-114780335D01*
X102762417Y-114781548D01*
X102762248Y-114782267D01*
X102742175Y-114808589D01*
X102587583Y-114963181D01*
X102526260Y-114996666D01*
X102499902Y-114999500D01*
X102301457Y-114999500D01*
X102108170Y-115037947D01*
X102108160Y-115037950D01*
X101926092Y-115113364D01*
X101926079Y-115113371D01*
X101762218Y-115222860D01*
X101762214Y-115222863D01*
X101622863Y-115362214D01*
X101622860Y-115362218D01*
X101513371Y-115526079D01*
X101513364Y-115526092D01*
X101437950Y-115708160D01*
X101437947Y-115708170D01*
X101399500Y-115901456D01*
X101399500Y-115901459D01*
X101399500Y-116098541D01*
X101399500Y-116098543D01*
X101399499Y-116098543D01*
X101437947Y-116291829D01*
X101437950Y-116291839D01*
X101513364Y-116473907D01*
X101513371Y-116473920D01*
X101622860Y-116637781D01*
X101622863Y-116637785D01*
X101762214Y-116777136D01*
X101762218Y-116777139D01*
X101926079Y-116886628D01*
X101926092Y-116886635D01*
X102019922Y-116925500D01*
X102108165Y-116962051D01*
X102108169Y-116962051D01*
X102108170Y-116962052D01*
X102301456Y-117000500D01*
X102301459Y-117000500D01*
X102498543Y-117000500D01*
X102632196Y-116973914D01*
X102691835Y-116962051D01*
X102873914Y-116886632D01*
X103037782Y-116777139D01*
X103177139Y-116637782D01*
X103286632Y-116473914D01*
X103362051Y-116291835D01*
X103400500Y-116098541D01*
X103400500Y-115901459D01*
X103400500Y-115900096D01*
X103420185Y-115833057D01*
X103436819Y-115812415D01*
X103999248Y-115249986D01*
X116075001Y-115249986D01*
X116085494Y-115352697D01*
X116140641Y-115519119D01*
X116140643Y-115519124D01*
X116232684Y-115668345D01*
X116356654Y-115792315D01*
X116505875Y-115884356D01*
X116505880Y-115884358D01*
X116672302Y-115939505D01*
X116672309Y-115939506D01*
X116775019Y-115949999D01*
X116837499Y-115949998D01*
X116837500Y-115949998D01*
X116837500Y-115000000D01*
X116075001Y-115000000D01*
X116075001Y-115249986D01*
X103999248Y-115249986D01*
X105212405Y-114036829D01*
X106924118Y-112325116D01*
X106985439Y-112291633D01*
X107055131Y-112296617D01*
X107111064Y-112338489D01*
X107118529Y-112349678D01*
X107135776Y-112378842D01*
X107181918Y-112456864D01*
X107181923Y-112456870D01*
X107298129Y-112573076D01*
X107298133Y-112573079D01*
X107298135Y-112573081D01*
X107439602Y-112656744D01*
X107535097Y-112684488D01*
X107593980Y-112722092D01*
X107623187Y-112785564D01*
X107624500Y-112803563D01*
X107624500Y-113383263D01*
X107622117Y-113407455D01*
X107599500Y-113521155D01*
X107599500Y-113678846D01*
X107630261Y-113833489D01*
X107630264Y-113833501D01*
X107690602Y-113979172D01*
X107690609Y-113979185D01*
X107778210Y-114110288D01*
X107778213Y-114110292D01*
X107889707Y-114221786D01*
X107889711Y-114221789D01*
X108020814Y-114309390D01*
X108020827Y-114309397D01*
X108151646Y-114363583D01*
X108166503Y-114369737D01*
X108321153Y-114400499D01*
X108321156Y-114400500D01*
X108321158Y-114400500D01*
X108478844Y-114400500D01*
X108478845Y-114400499D01*
X108633497Y-114369737D01*
X108779179Y-114309394D01*
X108868049Y-114250013D01*
X116075000Y-114250013D01*
X116075000Y-114500000D01*
X116837500Y-114500000D01*
X116837500Y-113550000D01*
X116837499Y-113549999D01*
X116775028Y-113550000D01*
X116775011Y-113550001D01*
X116672302Y-113560494D01*
X116505880Y-113615641D01*
X116505875Y-113615643D01*
X116356654Y-113707684D01*
X116232684Y-113831654D01*
X116140643Y-113980875D01*
X116140641Y-113980880D01*
X116085494Y-114147302D01*
X116085493Y-114147309D01*
X116075000Y-114250013D01*
X108868049Y-114250013D01*
X108910289Y-114221789D01*
X108926346Y-114205732D01*
X108972896Y-114159183D01*
X109021786Y-114110292D01*
X109021789Y-114110289D01*
X109109394Y-113979179D01*
X109169737Y-113833497D01*
X109200500Y-113678842D01*
X109200500Y-113521158D01*
X109200500Y-113521155D01*
X109200499Y-113521153D01*
X109169739Y-113366511D01*
X109169736Y-113366501D01*
X109134939Y-113282492D01*
X109125500Y-113235040D01*
X109125500Y-112803563D01*
X109145185Y-112736524D01*
X109197989Y-112690769D01*
X109214890Y-112684491D01*
X109310398Y-112656744D01*
X109451865Y-112573081D01*
X109568081Y-112456865D01*
X109599751Y-112403312D01*
X109650818Y-112355631D01*
X109719559Y-112343126D01*
X109784149Y-112369771D01*
X109794163Y-112378754D01*
X110801263Y-113385855D01*
X110801267Y-113385858D01*
X110903710Y-113454309D01*
X110903711Y-113454309D01*
X110903715Y-113454312D01*
X110959192Y-113477291D01*
X111017548Y-113501463D01*
X111138389Y-113525499D01*
X111138393Y-113525500D01*
X111138394Y-113525500D01*
X114245491Y-113525500D01*
X114305913Y-113513481D01*
X114366336Y-113501463D01*
X114399676Y-113487652D01*
X114480170Y-113454312D01*
X114531393Y-113420084D01*
X114582617Y-113385858D01*
X114669742Y-113298733D01*
X114669743Y-113298731D01*
X114676809Y-113291665D01*
X114676812Y-113291661D01*
X120148729Y-107819744D01*
X120148733Y-107819742D01*
X120235858Y-107732617D01*
X120304311Y-107630170D01*
X120304312Y-107630169D01*
X120304313Y-107630166D01*
X120304315Y-107630163D01*
X120304315Y-107630161D01*
X120308736Y-107619489D01*
X120351463Y-107516335D01*
X120353974Y-107503714D01*
X120375500Y-107395490D01*
X120375500Y-102507559D01*
X120383336Y-102480871D01*
X120387934Y-102453439D01*
X120393043Y-102447811D01*
X120395185Y-102440520D01*
X120416202Y-102422308D01*
X120434904Y-102401713D01*
X120444935Y-102397410D01*
X120447989Y-102394765D01*
X120467341Y-102387802D01*
X120467840Y-102387668D01*
X120516300Y-102387671D01*
X120516702Y-102384625D01*
X120524761Y-102385685D01*
X120524764Y-102385687D01*
X120541686Y-102387914D01*
X120605579Y-102416178D01*
X120644052Y-102474502D01*
X120649500Y-102510853D01*
X120649500Y-110634216D01*
X120629815Y-110701255D01*
X120613181Y-110721897D01*
X120472863Y-110862214D01*
X120472860Y-110862218D01*
X120363371Y-111026079D01*
X120363364Y-111026092D01*
X120287950Y-111208160D01*
X120287947Y-111208170D01*
X120249500Y-111401456D01*
X120249500Y-111401459D01*
X120249500Y-111598541D01*
X120249500Y-111598543D01*
X120249499Y-111598543D01*
X120287947Y-111791829D01*
X120287950Y-111791839D01*
X120363364Y-111973907D01*
X120363371Y-111973920D01*
X120472860Y-112137781D01*
X120472863Y-112137785D01*
X120613181Y-112278103D01*
X120646666Y-112339426D01*
X120649500Y-112365784D01*
X120649500Y-113549901D01*
X120629815Y-113616940D01*
X120613181Y-113637582D01*
X120137583Y-114113181D01*
X120110655Y-114127884D01*
X120084837Y-114144477D01*
X120078636Y-114145368D01*
X120076260Y-114146666D01*
X120049902Y-114149500D01*
X120005301Y-114149500D01*
X119938262Y-114129815D01*
X119892507Y-114077011D01*
X119887595Y-114064504D01*
X119878431Y-114036849D01*
X119859814Y-113980666D01*
X119767712Y-113831344D01*
X119643656Y-113707288D01*
X119494334Y-113615186D01*
X119327797Y-113560001D01*
X119327795Y-113560000D01*
X119225010Y-113549500D01*
X118599998Y-113549500D01*
X118599980Y-113549501D01*
X118497203Y-113560000D01*
X118497200Y-113560001D01*
X118330668Y-113615185D01*
X118330663Y-113615187D01*
X118181345Y-113707287D01*
X118087327Y-113801305D01*
X118026003Y-113834789D01*
X117956312Y-113829805D01*
X117911965Y-113801304D01*
X117818345Y-113707684D01*
X117669124Y-113615643D01*
X117669119Y-113615641D01*
X117502697Y-113560494D01*
X117502690Y-113560493D01*
X117399986Y-113550000D01*
X117337500Y-113550000D01*
X117337500Y-115949999D01*
X117399972Y-115949999D01*
X117399986Y-115949998D01*
X117502697Y-115939505D01*
X117669119Y-115884358D01*
X117669124Y-115884356D01*
X117818342Y-115792317D01*
X117911964Y-115698695D01*
X117973287Y-115665210D01*
X118042979Y-115670194D01*
X118087327Y-115698695D01*
X118181344Y-115792712D01*
X118330666Y-115884814D01*
X118497203Y-115939999D01*
X118599991Y-115950500D01*
X119225008Y-115950499D01*
X119225016Y-115950498D01*
X119225019Y-115950498D01*
X119281302Y-115944748D01*
X119327797Y-115939999D01*
X119494334Y-115884814D01*
X119643656Y-115792712D01*
X119767712Y-115668656D01*
X119859814Y-115519334D01*
X119887595Y-115435495D01*
X119927368Y-115378051D01*
X119991884Y-115351228D01*
X120005301Y-115350500D01*
X120263330Y-115350500D01*
X120263346Y-115350501D01*
X120270942Y-115350501D01*
X120429053Y-115350501D01*
X120429056Y-115350501D01*
X120581784Y-115309577D01*
X120631903Y-115280639D01*
X120718715Y-115230520D01*
X120830519Y-115118716D01*
X120830519Y-115118714D01*
X120840727Y-115108507D01*
X120840728Y-115108504D01*
X121162321Y-114786911D01*
X121223641Y-114753429D01*
X121293333Y-114758413D01*
X121337680Y-114786914D01*
X121742864Y-115192098D01*
X121758785Y-115221256D01*
X121775546Y-115249967D01*
X121775611Y-115252070D01*
X121776349Y-115253421D01*
X121779069Y-115285085D01*
X121778558Y-115297010D01*
X121777291Y-115301373D01*
X121774500Y-115336837D01*
X121774500Y-115391765D01*
X121774386Y-115394433D01*
X121763940Y-115425086D01*
X121754815Y-115456166D01*
X121752737Y-115457966D01*
X121751851Y-115460568D01*
X121726485Y-115480713D01*
X121702011Y-115501921D01*
X121699290Y-115502312D01*
X121697138Y-115504022D01*
X121664914Y-115507254D01*
X121632853Y-115511865D01*
X121629971Y-115510760D01*
X121627617Y-115510997D01*
X121618602Y-115506404D01*
X121584607Y-115493378D01*
X121584554Y-115493479D01*
X121583750Y-115493049D01*
X121581609Y-115492229D01*
X121579185Y-115490609D01*
X121579172Y-115490602D01*
X121433501Y-115430264D01*
X121433489Y-115430261D01*
X121278845Y-115399500D01*
X121278842Y-115399500D01*
X121121158Y-115399500D01*
X121121155Y-115399500D01*
X120966510Y-115430261D01*
X120966498Y-115430264D01*
X120820827Y-115490602D01*
X120820814Y-115490609D01*
X120689711Y-115578210D01*
X120689707Y-115578213D01*
X120578213Y-115689707D01*
X120578210Y-115689711D01*
X120490609Y-115820814D01*
X120490602Y-115820827D01*
X120430264Y-115966498D01*
X120430261Y-115966510D01*
X120399500Y-116121153D01*
X120399500Y-116278846D01*
X120430261Y-116433489D01*
X120430264Y-116433501D01*
X120490602Y-116579172D01*
X120490609Y-116579185D01*
X120578210Y-116710288D01*
X120578213Y-116710292D01*
X120689707Y-116821786D01*
X120689711Y-116821789D01*
X120820814Y-116909390D01*
X120820827Y-116909397D01*
X120966498Y-116969735D01*
X120966503Y-116969737D01*
X121121153Y-117000499D01*
X121121156Y-117000500D01*
X121121158Y-117000500D01*
X121278844Y-117000500D01*
X121278845Y-117000499D01*
X121433497Y-116969737D01*
X121579179Y-116909394D01*
X121710289Y-116821789D01*
X121710292Y-116821786D01*
X121720260Y-116811819D01*
X121747187Y-116797115D01*
X121773006Y-116780523D01*
X121779206Y-116779631D01*
X121781583Y-116778334D01*
X121807941Y-116775500D01*
X121941899Y-116775500D01*
X122006674Y-116794520D01*
X122006865Y-116794199D01*
X122008132Y-116794948D01*
X122008938Y-116795185D01*
X122011014Y-116796653D01*
X122089256Y-116842925D01*
X122149610Y-116878618D01*
X122301373Y-116922709D01*
X122336837Y-116925500D01*
X123838162Y-116925499D01*
X123873627Y-116922709D01*
X124025390Y-116878618D01*
X124161420Y-116798170D01*
X124273170Y-116686420D01*
X124353618Y-116550390D01*
X124397709Y-116398627D01*
X124400500Y-116363163D01*
X124400499Y-115986838D01*
X124397709Y-115951373D01*
X124378308Y-115884595D01*
X124378308Y-115815404D01*
X124397709Y-115748627D01*
X124400500Y-115713163D01*
X124400499Y-115336838D01*
X124397709Y-115301373D01*
X124378308Y-115234595D01*
X124378308Y-115165404D01*
X124397709Y-115098627D01*
X124400500Y-115063163D01*
X124400499Y-114686838D01*
X124400498Y-114686829D01*
X125999500Y-114686829D01*
X125999500Y-115063150D01*
X125999501Y-115063175D01*
X126002290Y-115098625D01*
X126002291Y-115098627D01*
X126021691Y-115165407D01*
X126021691Y-115234591D01*
X126002292Y-115301366D01*
X126002290Y-115301379D01*
X125999500Y-115336829D01*
X125999500Y-115713150D01*
X125999501Y-115713175D01*
X126002290Y-115748625D01*
X126002291Y-115748627D01*
X126021691Y-115815407D01*
X126021691Y-115884591D01*
X126002292Y-115951366D01*
X126002290Y-115951379D01*
X125999500Y-115986829D01*
X125999500Y-116363150D01*
X125999501Y-116363175D01*
X126002291Y-116398627D01*
X126046380Y-116550385D01*
X126046382Y-116550390D01*
X126126827Y-116686416D01*
X126126834Y-116686425D01*
X126238574Y-116798165D01*
X126238583Y-116798172D01*
X126286998Y-116826804D01*
X126374610Y-116878618D01*
X126526373Y-116922709D01*
X126561837Y-116925500D01*
X128063162Y-116925499D01*
X128098627Y-116922709D01*
X128250390Y-116878618D01*
X128386420Y-116798170D01*
X128386419Y-116798170D01*
X128393135Y-116794199D01*
X128394569Y-116796623D01*
X128447142Y-116775985D01*
X128458101Y-116775500D01*
X128992059Y-116775500D01*
X129059098Y-116795185D01*
X129079740Y-116811819D01*
X129089707Y-116821786D01*
X129089711Y-116821789D01*
X129220814Y-116909390D01*
X129220827Y-116909397D01*
X129366498Y-116969735D01*
X129366503Y-116969737D01*
X129521153Y-117000499D01*
X129521156Y-117000500D01*
X129521158Y-117000500D01*
X129678844Y-117000500D01*
X129678845Y-117000499D01*
X129833497Y-116969737D01*
X129979179Y-116909394D01*
X130110289Y-116821789D01*
X130221789Y-116710289D01*
X130309394Y-116579179D01*
X130369737Y-116433497D01*
X130400500Y-116278842D01*
X130400500Y-116121158D01*
X130400500Y-116121155D01*
X130400499Y-116121153D01*
X130373782Y-115986838D01*
X130369737Y-115966503D01*
X130369735Y-115966498D01*
X130309397Y-115820827D01*
X130309390Y-115820814D01*
X130221789Y-115689711D01*
X130221786Y-115689707D01*
X130110292Y-115578213D01*
X130110288Y-115578210D01*
X129979185Y-115490609D01*
X129979172Y-115490602D01*
X129833501Y-115430264D01*
X129833489Y-115430261D01*
X129678845Y-115399500D01*
X129678842Y-115399500D01*
X129521158Y-115399500D01*
X129521155Y-115399500D01*
X129366510Y-115430261D01*
X129366498Y-115430264D01*
X129220827Y-115490602D01*
X129220815Y-115490609D01*
X129126541Y-115553602D01*
X129059864Y-115574480D01*
X129057650Y-115574500D01*
X128749499Y-115574500D01*
X128682460Y-115554815D01*
X128636705Y-115502011D01*
X128625499Y-115450500D01*
X128625499Y-115336848D01*
X128625498Y-115336824D01*
X128622709Y-115301379D01*
X128622709Y-115301373D01*
X128603308Y-115234595D01*
X128603308Y-115165404D01*
X128622709Y-115098627D01*
X128625500Y-115063163D01*
X128625499Y-114686838D01*
X128622709Y-114651373D01*
X128578618Y-114499610D01*
X128520972Y-114402136D01*
X128498172Y-114363583D01*
X128498165Y-114363574D01*
X128386425Y-114251834D01*
X128386416Y-114251827D01*
X128308473Y-114205732D01*
X128260789Y-114154663D01*
X128248286Y-114085921D01*
X128274931Y-114021332D01*
X128332267Y-113981402D01*
X128371594Y-113975000D01*
X128614526Y-113975000D01*
X128614525Y-113974999D01*
X128578156Y-113849814D01*
X128578154Y-113849808D01*
X128497773Y-113713891D01*
X128497767Y-113713883D01*
X128386116Y-113602232D01*
X128386108Y-113602226D01*
X128250188Y-113521844D01*
X128250185Y-113521843D01*
X128098553Y-113477789D01*
X128098547Y-113477788D01*
X128063118Y-113475000D01*
X127562500Y-113475000D01*
X127562500Y-114000500D01*
X127542815Y-114067539D01*
X127490011Y-114113294D01*
X127438500Y-114124500D01*
X127186500Y-114124500D01*
X127119461Y-114104815D01*
X127073706Y-114052011D01*
X127062500Y-114000500D01*
X127062500Y-113475000D01*
X126561881Y-113475000D01*
X126526452Y-113477788D01*
X126526446Y-113477789D01*
X126374814Y-113521843D01*
X126374811Y-113521844D01*
X126238891Y-113602226D01*
X126238883Y-113602232D01*
X126127232Y-113713883D01*
X126127226Y-113713891D01*
X126046845Y-113849808D01*
X126046843Y-113849814D01*
X126010474Y-113974999D01*
X126010474Y-113975000D01*
X126253406Y-113975000D01*
X126320445Y-113994685D01*
X126366200Y-114047489D01*
X126376144Y-114116647D01*
X126347119Y-114180203D01*
X126316527Y-114205732D01*
X126238583Y-114251827D01*
X126238574Y-114251834D01*
X126126834Y-114363574D01*
X126126827Y-114363583D01*
X126100697Y-114407767D01*
X126100696Y-114407770D01*
X126046382Y-114499610D01*
X126019660Y-114591587D01*
X126019656Y-114591597D01*
X126002292Y-114651369D01*
X126002290Y-114651379D01*
X125999500Y-114686829D01*
X124400498Y-114686829D01*
X124397709Y-114651373D01*
X124379022Y-114587052D01*
X124378308Y-114584595D01*
X124378308Y-114515404D01*
X124379405Y-114511628D01*
X124397709Y-114448627D01*
X124400500Y-114413163D01*
X124400499Y-114036838D01*
X124397709Y-114001373D01*
X124397455Y-114000500D01*
X124353677Y-113849814D01*
X124353618Y-113849610D01*
X124273170Y-113713580D01*
X124273168Y-113713578D01*
X124273165Y-113713574D01*
X124161425Y-113601834D01*
X124161416Y-113601827D01*
X124025390Y-113521382D01*
X124025385Y-113521380D01*
X123873633Y-113477292D01*
X123873620Y-113477290D01*
X123838170Y-113474500D01*
X123838163Y-113474500D01*
X123812000Y-113474500D01*
X123744961Y-113454815D01*
X123699206Y-113402011D01*
X123688000Y-113350500D01*
X123688000Y-110278283D01*
X123696644Y-110248845D01*
X123703168Y-110218855D01*
X123706922Y-110213839D01*
X123707685Y-110211244D01*
X123724320Y-110190601D01*
X123778104Y-110136818D01*
X123839427Y-110103334D01*
X123865784Y-110100500D01*
X123994699Y-110100500D01*
X124061738Y-110120185D01*
X124107493Y-110172989D01*
X124112403Y-110185492D01*
X124116358Y-110197425D01*
X124140185Y-110269331D01*
X124140187Y-110269336D01*
X124151668Y-110287949D01*
X124232288Y-110418656D01*
X124356344Y-110542712D01*
X124505666Y-110634814D01*
X124672203Y-110689999D01*
X124774991Y-110700500D01*
X125400008Y-110700499D01*
X125400016Y-110700498D01*
X125400019Y-110700498D01*
X125456302Y-110694748D01*
X125502797Y-110689999D01*
X125669334Y-110634814D01*
X125818656Y-110542712D01*
X125912675Y-110448692D01*
X125973994Y-110415210D01*
X126043686Y-110420194D01*
X126088034Y-110448695D01*
X126181654Y-110542315D01*
X126330875Y-110634356D01*
X126330880Y-110634358D01*
X126497302Y-110689505D01*
X126497309Y-110689506D01*
X126600019Y-110699999D01*
X127162500Y-110699999D01*
X127224972Y-110699999D01*
X127224986Y-110699998D01*
X127327697Y-110689505D01*
X127494119Y-110634358D01*
X127494124Y-110634356D01*
X127643345Y-110542315D01*
X127767315Y-110418345D01*
X127859356Y-110269124D01*
X127859358Y-110269119D01*
X127914505Y-110102697D01*
X127914506Y-110102690D01*
X127924999Y-109999986D01*
X127925000Y-109999973D01*
X127925000Y-109750000D01*
X127162500Y-109750000D01*
X127162500Y-110699999D01*
X126600019Y-110699999D01*
X126662499Y-110699998D01*
X126662500Y-110699998D01*
X126662500Y-109250000D01*
X127162500Y-109250000D01*
X127924999Y-109250000D01*
X127924999Y-109000028D01*
X127924998Y-109000013D01*
X127914505Y-108897302D01*
X127859358Y-108730880D01*
X127859356Y-108730875D01*
X127767315Y-108581654D01*
X127643345Y-108457684D01*
X127494124Y-108365643D01*
X127494119Y-108365641D01*
X127327697Y-108310494D01*
X127327690Y-108310493D01*
X127224986Y-108300000D01*
X127162500Y-108300000D01*
X127162500Y-109250000D01*
X126662500Y-109250000D01*
X126662500Y-108300000D01*
X126662499Y-108299999D01*
X126600028Y-108300000D01*
X126600011Y-108300001D01*
X126497302Y-108310494D01*
X126330880Y-108365641D01*
X126330875Y-108365643D01*
X126181657Y-108457682D01*
X126088034Y-108551305D01*
X126026710Y-108584789D01*
X125957019Y-108579805D01*
X125912672Y-108551304D01*
X125818657Y-108457289D01*
X125818656Y-108457288D01*
X125669334Y-108365186D01*
X125502797Y-108310001D01*
X125502795Y-108310000D01*
X125400010Y-108299500D01*
X124774998Y-108299500D01*
X124774980Y-108299501D01*
X124672203Y-108310000D01*
X124672200Y-108310001D01*
X124505668Y-108365185D01*
X124505663Y-108365187D01*
X124356342Y-108457289D01*
X124232289Y-108581342D01*
X124140187Y-108730663D01*
X124140185Y-108730668D01*
X124126047Y-108773334D01*
X124112859Y-108813135D01*
X124112405Y-108814504D01*
X124098534Y-108834536D01*
X124088412Y-108856703D01*
X124078999Y-108862751D01*
X124072632Y-108871949D01*
X124050133Y-108881302D01*
X124029634Y-108894477D01*
X124012532Y-108896935D01*
X124008116Y-108898772D01*
X123994699Y-108899500D01*
X123865784Y-108899500D01*
X123798745Y-108879815D01*
X123778103Y-108863181D01*
X123637785Y-108722863D01*
X123637781Y-108722860D01*
X123473920Y-108613371D01*
X123473907Y-108613364D01*
X123291839Y-108537950D01*
X123291829Y-108537947D01*
X123098543Y-108499500D01*
X123098541Y-108499500D01*
X122901459Y-108499500D01*
X122900097Y-108499500D01*
X122833058Y-108479815D01*
X122812416Y-108463181D01*
X122386819Y-108037584D01*
X122353334Y-107976261D01*
X122350500Y-107949903D01*
X122350500Y-104049097D01*
X122370185Y-103982058D01*
X122422989Y-103936303D01*
X122492147Y-103926359D01*
X122555703Y-103955384D01*
X122562181Y-103961416D01*
X123139902Y-104539137D01*
X123173387Y-104600460D01*
X123175580Y-104639414D01*
X123174500Y-104649986D01*
X123174500Y-105250001D01*
X123174501Y-105250019D01*
X123185000Y-105352796D01*
X123185001Y-105352799D01*
X123240185Y-105519331D01*
X123240187Y-105519336D01*
X123251668Y-105537949D01*
X123332288Y-105668656D01*
X123456344Y-105792712D01*
X123605666Y-105884814D01*
X123772203Y-105939999D01*
X123874991Y-105950500D01*
X124925008Y-105950499D01*
X124925016Y-105950498D01*
X124925019Y-105950498D01*
X124981302Y-105944748D01*
X125027797Y-105939999D01*
X125194334Y-105884814D01*
X125343656Y-105792712D01*
X125467712Y-105668656D01*
X125499959Y-105616374D01*
X125551907Y-105569650D01*
X125620869Y-105558427D01*
X125674390Y-105578370D01*
X125720812Y-105609389D01*
X125720827Y-105609397D01*
X125866498Y-105669735D01*
X125866503Y-105669737D01*
X126021153Y-105700499D01*
X126021156Y-105700500D01*
X126021158Y-105700500D01*
X126178844Y-105700500D01*
X126178845Y-105700499D01*
X126333497Y-105669737D01*
X126469585Y-105613368D01*
X126479172Y-105609397D01*
X126479172Y-105609396D01*
X126479179Y-105609394D01*
X126610289Y-105521789D01*
X126721789Y-105410289D01*
X126809394Y-105279179D01*
X126869737Y-105133497D01*
X126900500Y-104978842D01*
X126900500Y-104821158D01*
X126900500Y-104821155D01*
X126900499Y-104821153D01*
X126881472Y-104725498D01*
X126869737Y-104666503D01*
X126866966Y-104659812D01*
X126809397Y-104520827D01*
X126809390Y-104520814D01*
X126721789Y-104389711D01*
X126721786Y-104389707D01*
X126610292Y-104278213D01*
X126610288Y-104278210D01*
X126479185Y-104190609D01*
X126479172Y-104190602D01*
X126333501Y-104130264D01*
X126333489Y-104130261D01*
X126178845Y-104099500D01*
X126178842Y-104099500D01*
X126021158Y-104099500D01*
X126021155Y-104099500D01*
X125866510Y-104130261D01*
X125866498Y-104130264D01*
X125720827Y-104190602D01*
X125720814Y-104190609D01*
X125629286Y-104251767D01*
X125600114Y-104260901D01*
X125571679Y-104272151D01*
X125567079Y-104271244D01*
X125562608Y-104272645D01*
X125533128Y-104264557D01*
X125503126Y-104258648D01*
X125498068Y-104254939D01*
X125495228Y-104254160D01*
X125474460Y-104238059D01*
X125468057Y-104231904D01*
X125467712Y-104231344D01*
X125343656Y-104107288D01*
X125329059Y-104098284D01*
X125319505Y-104089100D01*
X125308475Y-104069815D01*
X125293618Y-104053297D01*
X125291466Y-104040075D01*
X125284817Y-104028449D01*
X125285964Y-104006260D01*
X125282397Y-103984334D01*
X125287734Y-103972050D01*
X125288426Y-103958673D01*
X125301386Y-103940628D01*
X125310240Y-103920252D01*
X125325549Y-103906987D01*
X125329186Y-103901924D01*
X125333247Y-103900317D01*
X125340348Y-103894165D01*
X125343342Y-103892318D01*
X125467315Y-103768345D01*
X125559356Y-103619124D01*
X125559358Y-103619119D01*
X125614505Y-103452697D01*
X125614506Y-103452690D01*
X125624999Y-103349986D01*
X125625000Y-103349973D01*
X125625000Y-103300000D01*
X124524000Y-103300000D01*
X124456961Y-103280315D01*
X124411206Y-103227511D01*
X124400000Y-103176000D01*
X124400000Y-103050000D01*
X124274000Y-103050000D01*
X124206961Y-103030315D01*
X124161206Y-102977511D01*
X124150000Y-102926000D01*
X124150000Y-102800000D01*
X124650000Y-102800000D01*
X125624999Y-102800000D01*
X125624999Y-102750028D01*
X125624998Y-102750013D01*
X125614505Y-102647302D01*
X125559358Y-102480880D01*
X125559356Y-102480875D01*
X125467315Y-102331654D01*
X125343345Y-102207684D01*
X125194124Y-102115643D01*
X125194119Y-102115641D01*
X125027697Y-102060494D01*
X125027690Y-102060493D01*
X124924986Y-102050000D01*
X124650000Y-102050000D01*
X124650000Y-102800000D01*
X124150000Y-102800000D01*
X124150000Y-102050000D01*
X123875029Y-102050000D01*
X123875012Y-102050001D01*
X123772302Y-102060494D01*
X123605880Y-102115641D01*
X123605871Y-102115646D01*
X123557709Y-102145352D01*
X123490316Y-102163792D01*
X123423653Y-102142869D01*
X123378884Y-102089226D01*
X123370223Y-102019895D01*
X123378053Y-101992359D01*
X123385198Y-101975108D01*
X123385199Y-101975104D01*
X123399999Y-101862697D01*
X123400000Y-101862683D01*
X123400000Y-101312500D01*
X123024500Y-101312500D01*
X123015814Y-101309949D01*
X123006853Y-101311238D01*
X122982812Y-101300259D01*
X122957461Y-101292815D01*
X122951533Y-101285974D01*
X122943297Y-101282213D01*
X122929007Y-101259978D01*
X122911706Y-101240011D01*
X122909418Y-101229496D01*
X122905523Y-101223435D01*
X122900500Y-101188500D01*
X122900500Y-101136500D01*
X122920185Y-101069461D01*
X122972989Y-101023706D01*
X123024500Y-101012500D01*
X123400000Y-101012500D01*
X123400000Y-100524500D01*
X123419685Y-100457461D01*
X123472489Y-100411706D01*
X123524000Y-100400500D01*
X124862713Y-100400500D01*
X124862720Y-100400500D01*
X124975236Y-100385687D01*
X125115233Y-100327698D01*
X125235451Y-100235451D01*
X125327698Y-100115233D01*
X125385687Y-99975236D01*
X125400500Y-99862720D01*
X125400500Y-99637280D01*
X125385687Y-99524764D01*
X125385685Y-99524761D01*
X125384941Y-99519103D01*
X125384888Y-99518989D01*
X125384899Y-99518781D01*
X125384626Y-99516705D01*
X125385015Y-99516653D01*
X125385765Y-99502945D01*
X125384501Y-99483697D01*
X125385593Y-99475462D01*
X125385687Y-99475236D01*
X125394177Y-99410747D01*
X125408427Y-99378618D01*
X125422427Y-99346971D01*
X125422478Y-99346936D01*
X125422504Y-99346880D01*
X125451691Y-99327668D01*
X125480752Y-99308500D01*
X125480813Y-99308499D01*
X125480866Y-99308465D01*
X125515425Y-99308087D01*
X125550616Y-99307668D01*
X125550673Y-99307701D01*
X125550731Y-99307701D01*
X125551548Y-99308213D01*
X125604781Y-99339372D01*
X126337562Y-100072153D01*
X126371047Y-100133476D01*
X126366063Y-100203168D01*
X126337563Y-100247515D01*
X126222860Y-100362218D01*
X126113371Y-100526079D01*
X126113364Y-100526092D01*
X126037950Y-100708160D01*
X126037947Y-100708170D01*
X125999500Y-100901456D01*
X125999500Y-100901459D01*
X125999500Y-101098541D01*
X125999500Y-101098543D01*
X125999499Y-101098543D01*
X126037947Y-101291829D01*
X126037950Y-101291839D01*
X126113364Y-101473907D01*
X126113371Y-101473920D01*
X126222860Y-101637781D01*
X126222863Y-101637785D01*
X126362214Y-101777136D01*
X126362218Y-101777139D01*
X126526079Y-101886628D01*
X126526092Y-101886635D01*
X126663760Y-101943658D01*
X126708165Y-101962051D01*
X126708169Y-101962051D01*
X126708170Y-101962052D01*
X126901456Y-102000500D01*
X126901459Y-102000500D01*
X127098543Y-102000500D01*
X127228582Y-101974632D01*
X127291835Y-101962051D01*
X127432655Y-101903721D01*
X127473907Y-101886635D01*
X127473907Y-101886634D01*
X127473914Y-101886632D01*
X127637782Y-101777139D01*
X127777139Y-101637782D01*
X127886632Y-101473914D01*
X127895297Y-101452995D01*
X127935939Y-101354876D01*
X127979779Y-101300472D01*
X128046074Y-101278407D01*
X128113773Y-101295686D01*
X128161384Y-101346823D01*
X128174500Y-101402328D01*
X128174500Y-109441606D01*
X128198537Y-109562452D01*
X128198538Y-109562454D01*
X128198538Y-109562456D01*
X128207925Y-109585119D01*
X128207931Y-109585131D01*
X128209842Y-109589744D01*
X128245688Y-109676286D01*
X128279915Y-109727509D01*
X128283905Y-109733481D01*
X128283907Y-109733484D01*
X128314141Y-109778733D01*
X128405586Y-109870178D01*
X128405608Y-109870198D01*
X129077571Y-110542161D01*
X129111056Y-110603484D01*
X129107822Y-110668158D01*
X129102753Y-110683757D01*
X129074489Y-110862214D01*
X129069500Y-110893713D01*
X129069500Y-111106287D01*
X129071713Y-111120258D01*
X129098229Y-111287678D01*
X129102754Y-111316243D01*
X129151730Y-111466976D01*
X129168444Y-111518414D01*
X129264951Y-111707820D01*
X129389890Y-111879786D01*
X129540213Y-112030109D01*
X129712184Y-112155051D01*
X129712184Y-112155052D01*
X129751793Y-112175233D01*
X129802590Y-112223206D01*
X129819500Y-112285718D01*
X129819500Y-113333330D01*
X129819499Y-113333348D01*
X129819499Y-113499054D01*
X129819498Y-113499054D01*
X129826743Y-113526092D01*
X129856617Y-113637582D01*
X129860424Y-113651787D01*
X129873200Y-113673915D01*
X129873201Y-113673917D01*
X129939477Y-113788712D01*
X129939481Y-113788717D01*
X130058349Y-113907585D01*
X130058354Y-113907589D01*
X132463182Y-116312418D01*
X132496666Y-116373739D01*
X132499500Y-116400097D01*
X132499500Y-116401459D01*
X132499500Y-116598541D01*
X132499500Y-116598543D01*
X132499499Y-116598543D01*
X132537947Y-116791829D01*
X132537950Y-116791839D01*
X132613364Y-116973907D01*
X132613371Y-116973920D01*
X132722860Y-117137781D01*
X132722863Y-117137785D01*
X132862214Y-117277136D01*
X132862218Y-117277139D01*
X133026079Y-117386628D01*
X133026092Y-117386635D01*
X133208160Y-117462049D01*
X133208165Y-117462051D01*
X133208169Y-117462051D01*
X133208170Y-117462052D01*
X133401456Y-117500500D01*
X133401459Y-117500500D01*
X133598543Y-117500500D01*
X133728582Y-117474632D01*
X133791835Y-117462051D01*
X133973914Y-117386632D01*
X134137782Y-117277139D01*
X134277139Y-117137782D01*
X134386632Y-116973914D01*
X134462051Y-116791835D01*
X134483020Y-116686420D01*
X134500500Y-116598543D01*
X134500500Y-116401456D01*
X134462052Y-116208170D01*
X134462051Y-116208169D01*
X134462051Y-116208165D01*
X134426010Y-116121153D01*
X134386635Y-116026092D01*
X134386628Y-116026079D01*
X134277139Y-115862218D01*
X134277136Y-115862214D01*
X134137785Y-115722863D01*
X134137781Y-115722860D01*
X133973920Y-115613371D01*
X133973907Y-115613364D01*
X133791839Y-115537950D01*
X133791829Y-115537947D01*
X133598543Y-115499500D01*
X133598541Y-115499500D01*
X133401459Y-115499500D01*
X133400098Y-115499500D01*
X133333059Y-115479815D01*
X133312417Y-115463181D01*
X132971455Y-115122219D01*
X132937970Y-115060896D01*
X132942954Y-114991204D01*
X132984826Y-114935271D01*
X133050290Y-114910854D01*
X133106588Y-114919977D01*
X133208160Y-114962049D01*
X133208165Y-114962051D01*
X133208169Y-114962051D01*
X133208170Y-114962052D01*
X133401456Y-115000500D01*
X133401459Y-115000500D01*
X133598543Y-115000500D01*
X133728582Y-114974632D01*
X133791835Y-114962051D01*
X133973914Y-114886632D01*
X134137782Y-114777139D01*
X134277139Y-114637782D01*
X134386632Y-114473914D01*
X134462051Y-114291835D01*
X134486011Y-114171382D01*
X134500500Y-114098543D01*
X134500500Y-113901456D01*
X134462052Y-113708170D01*
X134462051Y-113708169D01*
X134462051Y-113708165D01*
X134461687Y-113707287D01*
X134386635Y-113526092D01*
X134386628Y-113526079D01*
X134277139Y-113362218D01*
X134277136Y-113362214D01*
X134136819Y-113221897D01*
X134103334Y-113160574D01*
X134100500Y-113134216D01*
X134100500Y-112311571D01*
X134120185Y-112244532D01*
X134172989Y-112198777D01*
X134242147Y-112188833D01*
X134298811Y-112212305D01*
X134407664Y-112293793D01*
X134407671Y-112293797D01*
X134542517Y-112344091D01*
X134542516Y-112344091D01*
X134549444Y-112344835D01*
X134602127Y-112350500D01*
X136397872Y-112350499D01*
X136457483Y-112344091D01*
X136592331Y-112293796D01*
X136707546Y-112207546D01*
X136793796Y-112092331D01*
X136844091Y-111957483D01*
X136850500Y-111897873D01*
X136850499Y-110102128D01*
X136844091Y-110042517D01*
X136842810Y-110039083D01*
X136793797Y-109907671D01*
X136793793Y-109907664D01*
X136707547Y-109792455D01*
X136707544Y-109792452D01*
X136592335Y-109706206D01*
X136592328Y-109706202D01*
X136457482Y-109655908D01*
X136457483Y-109655908D01*
X136397883Y-109649501D01*
X136397881Y-109649500D01*
X136397873Y-109649500D01*
X136397864Y-109649500D01*
X134602129Y-109649500D01*
X134602123Y-109649501D01*
X134542516Y-109655908D01*
X134407671Y-109706202D01*
X134407664Y-109706206D01*
X134292455Y-109792452D01*
X134292452Y-109792455D01*
X134206206Y-109907664D01*
X134206203Y-109907669D01*
X134157189Y-110039083D01*
X134115317Y-110095016D01*
X134049853Y-110119433D01*
X133981580Y-110104581D01*
X133953326Y-110083430D01*
X133839786Y-109969890D01*
X133667820Y-109844951D01*
X133478414Y-109748444D01*
X133478413Y-109748443D01*
X133478412Y-109748443D01*
X133276243Y-109682754D01*
X133276241Y-109682753D01*
X133276240Y-109682753D01*
X133114957Y-109657208D01*
X133066287Y-109649500D01*
X132853713Y-109649500D01*
X132825006Y-109654046D01*
X132643757Y-109682753D01*
X132628158Y-109687822D01*
X132558317Y-109689816D01*
X132502161Y-109657571D01*
X131561819Y-108717229D01*
X131528334Y-108655906D01*
X131525500Y-108629548D01*
X131525500Y-107256893D01*
X131545185Y-107189854D01*
X131597989Y-107144099D01*
X131667147Y-107134155D01*
X131730703Y-107163180D01*
X131748767Y-107182583D01*
X131767454Y-107207546D01*
X131767455Y-107207547D01*
X131882664Y-107293793D01*
X131882671Y-107293797D01*
X132017517Y-107344091D01*
X132017516Y-107344091D01*
X132024444Y-107344835D01*
X132077127Y-107350500D01*
X133872872Y-107350499D01*
X133932483Y-107344091D01*
X134067331Y-107293796D01*
X134182546Y-107207546D01*
X134268796Y-107092331D01*
X134318002Y-106960401D01*
X134359872Y-106904468D01*
X134425337Y-106880050D01*
X134493610Y-106894901D01*
X134521865Y-106916053D01*
X134635535Y-107029723D01*
X134635540Y-107029727D01*
X134807442Y-107154620D01*
X134996782Y-107251095D01*
X135198871Y-107316757D01*
X135265000Y-107327231D01*
X135265000Y-106433012D01*
X135322007Y-106465925D01*
X135449174Y-106500000D01*
X135580826Y-106500000D01*
X135707993Y-106465925D01*
X135765000Y-106433012D01*
X135765000Y-107327230D01*
X135831126Y-107316757D01*
X135831129Y-107316757D01*
X136033217Y-107251095D01*
X136222557Y-107154620D01*
X136394459Y-107029727D01*
X136394464Y-107029723D01*
X136544723Y-106879464D01*
X136544727Y-106879459D01*
X136669620Y-106707557D01*
X136766095Y-106518217D01*
X136831757Y-106316129D01*
X136831757Y-106316126D01*
X136842231Y-106250000D01*
X135948012Y-106250000D01*
X135980925Y-106192993D01*
X136015000Y-106065826D01*
X136015000Y-105934174D01*
X135980925Y-105807007D01*
X135948012Y-105750000D01*
X136842231Y-105750000D01*
X136831757Y-105683873D01*
X136831757Y-105683870D01*
X136766095Y-105481782D01*
X136669620Y-105292442D01*
X136544727Y-105120540D01*
X136544723Y-105120535D01*
X136394464Y-104970276D01*
X136394459Y-104970272D01*
X136222557Y-104845379D01*
X136033215Y-104748903D01*
X135831124Y-104683241D01*
X135765000Y-104672768D01*
X135765000Y-105566988D01*
X135707993Y-105534075D01*
X135580826Y-105500000D01*
X135449174Y-105500000D01*
X135322007Y-105534075D01*
X135265000Y-105566988D01*
X135265000Y-104672768D01*
X135264999Y-104672768D01*
X135198875Y-104683241D01*
X134996784Y-104748903D01*
X134807442Y-104845379D01*
X134635541Y-104970271D01*
X134521865Y-105083947D01*
X134460542Y-105117431D01*
X134390850Y-105112447D01*
X134334917Y-105070575D01*
X134318002Y-105039598D01*
X134295342Y-104978844D01*
X134268796Y-104907669D01*
X134268795Y-104907668D01*
X134268793Y-104907664D01*
X134182547Y-104792455D01*
X134182544Y-104792452D01*
X134067335Y-104706206D01*
X134067328Y-104706202D01*
X133932482Y-104655908D01*
X133932483Y-104655908D01*
X133872883Y-104649501D01*
X133872881Y-104649500D01*
X133872873Y-104649500D01*
X133872865Y-104649500D01*
X133699500Y-104649500D01*
X133632461Y-104629815D01*
X133586706Y-104577011D01*
X133575500Y-104525500D01*
X133575500Y-103995096D01*
X133584144Y-103965655D01*
X133590668Y-103935669D01*
X133594422Y-103930653D01*
X133595185Y-103928057D01*
X133611815Y-103907419D01*
X133782417Y-103736816D01*
X133843738Y-103703333D01*
X133870086Y-103700499D01*
X134482508Y-103700499D01*
X134482516Y-103700498D01*
X134482519Y-103700498D01*
X134538802Y-103694748D01*
X134585297Y-103689999D01*
X134751834Y-103634814D01*
X134901156Y-103542712D01*
X134994819Y-103449049D01*
X135056142Y-103415564D01*
X135125834Y-103420548D01*
X135170181Y-103449049D01*
X135263844Y-103542712D01*
X135413166Y-103634814D01*
X135579703Y-103689999D01*
X135682491Y-103700500D01*
X136307508Y-103700499D01*
X136307516Y-103700498D01*
X136307519Y-103700498D01*
X136363802Y-103694748D01*
X136410297Y-103689999D01*
X136576834Y-103634814D01*
X136726156Y-103542712D01*
X136850212Y-103418656D01*
X136942314Y-103269334D01*
X136997499Y-103102797D01*
X137008000Y-103000009D01*
X137007999Y-101999992D01*
X137004123Y-101962052D01*
X136997499Y-101897203D01*
X136997498Y-101897200D01*
X136968405Y-101809403D01*
X136942314Y-101730666D01*
X136850212Y-101581344D01*
X136726156Y-101457288D01*
X136726155Y-101457287D01*
X136651312Y-101411123D01*
X136604588Y-101359175D01*
X136596635Y-101337679D01*
X136595501Y-101333446D01*
X136595501Y-101333443D01*
X136554577Y-101180715D01*
X136508492Y-101100894D01*
X136475520Y-101043784D01*
X136363716Y-100931980D01*
X136359385Y-100927649D01*
X136359374Y-100927639D01*
X136332999Y-100901264D01*
X136299514Y-100839941D01*
X136304498Y-100770249D01*
X136346370Y-100714316D01*
X136403785Y-100691902D01*
X136403681Y-100691415D01*
X136406678Y-100690773D01*
X136408083Y-100690225D01*
X136410297Y-100689999D01*
X136576834Y-100634814D01*
X136726156Y-100542712D01*
X136850212Y-100418656D01*
X136942314Y-100269334D01*
X136997499Y-100102797D01*
X137008000Y-100000009D01*
X137007999Y-98999992D01*
X137006293Y-98983295D01*
X136997499Y-98897203D01*
X136997498Y-98897200D01*
X136986070Y-98862713D01*
X136942314Y-98730666D01*
X136850212Y-98581344D01*
X136726156Y-98457288D01*
X136726155Y-98457287D01*
X136659402Y-98416113D01*
X136612678Y-98364165D01*
X136600500Y-98310575D01*
X136600500Y-97646515D01*
X136620185Y-97579476D01*
X136659402Y-97540977D01*
X136708503Y-97510692D01*
X136831526Y-97387669D01*
X136922862Y-97239591D01*
X136977587Y-97074441D01*
X136988000Y-96972514D01*
X136988000Y-95960818D01*
X136977587Y-95858891D01*
X136922862Y-95693741D01*
X136922858Y-95693735D01*
X136922857Y-95693732D01*
X136831528Y-95545666D01*
X136831525Y-95545662D01*
X136708503Y-95422640D01*
X136708499Y-95422637D01*
X136560433Y-95331308D01*
X136560427Y-95331305D01*
X136560425Y-95331304D01*
X136494332Y-95309403D01*
X136395276Y-95276579D01*
X136293355Y-95266166D01*
X136293348Y-95266166D01*
X135706652Y-95266166D01*
X135706644Y-95266166D01*
X135604723Y-95276579D01*
X135439577Y-95331303D01*
X135439566Y-95331308D01*
X135291500Y-95422637D01*
X135291496Y-95422640D01*
X135168474Y-95545662D01*
X135168471Y-95545666D01*
X135168038Y-95546369D01*
X135167614Y-95546749D01*
X135163993Y-95551330D01*
X135163210Y-95550711D01*
X135116090Y-95593094D01*
X135047128Y-95604315D01*
X134983046Y-95576472D01*
X134961157Y-95551210D01*
X134961007Y-95551330D01*
X134958359Y-95547981D01*
X134956962Y-95546369D01*
X134956528Y-95545666D01*
X134956525Y-95545662D01*
X134833503Y-95422640D01*
X134833499Y-95422637D01*
X134685433Y-95331308D01*
X134685427Y-95331305D01*
X134685425Y-95331304D01*
X134619332Y-95309403D01*
X134520276Y-95276579D01*
X134418355Y-95266166D01*
X134418348Y-95266166D01*
X133831652Y-95266166D01*
X133831644Y-95266166D01*
X133729723Y-95276579D01*
X133564577Y-95331303D01*
X133564566Y-95331308D01*
X133416500Y-95422637D01*
X133416496Y-95422640D01*
X133293475Y-95545661D01*
X133287609Y-95555170D01*
X133265757Y-95590598D01*
X133213811Y-95637321D01*
X133160220Y-95649500D01*
X128099097Y-95649500D01*
X128032058Y-95629815D01*
X127986303Y-95577011D01*
X127976359Y-95507853D01*
X128005384Y-95444297D01*
X128011416Y-95437819D01*
X132812416Y-90636819D01*
X132839343Y-90622115D01*
X132865162Y-90605523D01*
X132871362Y-90604631D01*
X132873739Y-90603334D01*
X132900097Y-90600500D01*
X132992961Y-90600500D01*
X133060000Y-90620185D01*
X133105755Y-90672989D01*
X133110667Y-90685496D01*
X133139637Y-90772922D01*
X133139642Y-90772933D01*
X133230971Y-90920999D01*
X133230974Y-90921003D01*
X133353996Y-91044025D01*
X133354000Y-91044028D01*
X133502066Y-91135357D01*
X133502069Y-91135358D01*
X133502075Y-91135362D01*
X133667225Y-91190087D01*
X133769152Y-91200500D01*
X133769157Y-91200500D01*
X134355843Y-91200500D01*
X134355848Y-91200500D01*
X134457775Y-91190087D01*
X134622925Y-91135362D01*
X134771003Y-91044026D01*
X134894026Y-90921003D01*
X134894458Y-90920301D01*
X134894881Y-90919921D01*
X134898507Y-90915336D01*
X134899290Y-90915955D01*
X134946402Y-90873575D01*
X135015364Y-90862349D01*
X135079448Y-90890188D01*
X135101342Y-90915455D01*
X135101493Y-90915336D01*
X135104143Y-90918687D01*
X135105540Y-90920299D01*
X135105974Y-90921003D01*
X135228997Y-91044026D01*
X135278097Y-91074311D01*
X135324821Y-91126257D01*
X135337000Y-91179849D01*
X135337000Y-91837740D01*
X135336540Y-91839304D01*
X135336960Y-91840879D01*
X135326732Y-91872708D01*
X135317315Y-91904779D01*
X135315923Y-91906344D01*
X135315585Y-91907398D01*
X135311577Y-91911233D01*
X135291805Y-91933478D01*
X135285279Y-91938849D01*
X135201344Y-91990621D01*
X135103435Y-92088529D01*
X135098805Y-92092341D01*
X135071964Y-92103786D01*
X135046358Y-92117769D01*
X135040207Y-92117329D01*
X135034535Y-92119748D01*
X135005772Y-92114866D01*
X134976666Y-92112785D01*
X134970622Y-92108900D01*
X134965650Y-92108057D01*
X134956912Y-92100089D01*
X134932319Y-92084284D01*
X134838657Y-91990622D01*
X134838656Y-91990621D01*
X134716218Y-91915101D01*
X134689336Y-91898520D01*
X134689331Y-91898518D01*
X134647833Y-91884767D01*
X134522797Y-91843334D01*
X134522795Y-91843333D01*
X134420010Y-91832833D01*
X133794998Y-91832833D01*
X133794980Y-91832834D01*
X133692203Y-91843333D01*
X133692200Y-91843334D01*
X133525668Y-91898518D01*
X133525663Y-91898520D01*
X133376342Y-91990622D01*
X133252289Y-92114675D01*
X133182503Y-92227817D01*
X133130555Y-92274541D01*
X133061592Y-92285764D01*
X133029512Y-92277281D01*
X132916001Y-92230264D01*
X132915989Y-92230261D01*
X132761345Y-92199500D01*
X132761342Y-92199500D01*
X132603658Y-92199500D01*
X132603655Y-92199500D01*
X132449010Y-92230261D01*
X132448998Y-92230264D01*
X132303327Y-92290602D01*
X132303314Y-92290609D01*
X132172211Y-92378210D01*
X132172207Y-92378213D01*
X132060713Y-92489707D01*
X132060710Y-92489711D01*
X131973109Y-92620814D01*
X131973102Y-92620827D01*
X131912764Y-92766498D01*
X131912761Y-92766510D01*
X131882000Y-92921153D01*
X131882000Y-93078846D01*
X131912761Y-93233489D01*
X131912764Y-93233501D01*
X131973102Y-93379172D01*
X131973109Y-93379185D01*
X132060710Y-93510288D01*
X132060713Y-93510292D01*
X132172207Y-93621786D01*
X132172211Y-93621789D01*
X132303314Y-93709390D01*
X132303327Y-93709397D01*
X132435495Y-93764142D01*
X132449003Y-93769737D01*
X132552043Y-93790233D01*
X132603653Y-93800499D01*
X132603656Y-93800500D01*
X132603658Y-93800500D01*
X132761344Y-93800500D01*
X132761345Y-93800499D01*
X132915997Y-93769737D01*
X132998120Y-93735720D01*
X133067587Y-93728252D01*
X133130067Y-93759527D01*
X133157955Y-93797882D01*
X133160184Y-93802664D01*
X133160186Y-93802667D01*
X133252288Y-93951989D01*
X133376344Y-94076045D01*
X133525666Y-94168147D01*
X133692203Y-94223332D01*
X133794991Y-94233833D01*
X134420008Y-94233832D01*
X134420016Y-94233831D01*
X134420019Y-94233831D01*
X134476302Y-94228081D01*
X134522797Y-94223332D01*
X134689334Y-94168147D01*
X134838656Y-94076045D01*
X134932319Y-93982382D01*
X134993642Y-93948897D01*
X135063334Y-93953881D01*
X135107681Y-93982382D01*
X135201344Y-94076045D01*
X135350666Y-94168147D01*
X135517203Y-94223332D01*
X135619991Y-94233833D01*
X136245008Y-94233832D01*
X136245016Y-94233831D01*
X136245019Y-94233831D01*
X136301302Y-94228081D01*
X136347797Y-94223332D01*
X136514334Y-94168147D01*
X136663656Y-94076045D01*
X136787712Y-93951989D01*
X136879814Y-93802667D01*
X136934999Y-93636130D01*
X136945500Y-93533342D01*
X136945499Y-92533325D01*
X136944649Y-92525008D01*
X136934999Y-92430536D01*
X136934998Y-92430533D01*
X136904466Y-92338394D01*
X136879814Y-92263999D01*
X136787712Y-92114677D01*
X136663656Y-91990621D01*
X136663655Y-91990620D01*
X136596902Y-91949446D01*
X136550178Y-91897498D01*
X136538000Y-91843908D01*
X136538000Y-91179849D01*
X136557685Y-91112810D01*
X136596902Y-91074311D01*
X136646003Y-91044026D01*
X136769026Y-90921003D01*
X136860362Y-90772925D01*
X136915087Y-90607775D01*
X136925500Y-90505848D01*
X136925500Y-89494152D01*
X136915087Y-89392225D01*
X136860362Y-89227075D01*
X136860358Y-89227069D01*
X136860357Y-89227066D01*
X136769028Y-89079000D01*
X136769025Y-89078996D01*
X136646003Y-88955974D01*
X136645999Y-88955971D01*
X136497933Y-88864642D01*
X136497927Y-88864639D01*
X136497925Y-88864638D01*
X136497922Y-88864637D01*
X136332776Y-88809913D01*
X136230855Y-88799500D01*
X136230848Y-88799500D01*
X135644152Y-88799500D01*
X135644144Y-88799500D01*
X135542223Y-88809913D01*
X135377077Y-88864637D01*
X135377066Y-88864642D01*
X135229000Y-88955971D01*
X135228996Y-88955974D01*
X135105974Y-89078996D01*
X135105971Y-89079000D01*
X135105538Y-89079703D01*
X135105114Y-89080083D01*
X135101493Y-89084664D01*
X135100710Y-89084045D01*
X135053590Y-89126428D01*
X134984628Y-89137649D01*
X134920546Y-89109806D01*
X134898657Y-89084544D01*
X134898507Y-89084664D01*
X134895859Y-89081315D01*
X134894462Y-89079703D01*
X134894028Y-89079000D01*
X134894025Y-89078996D01*
X134771003Y-88955974D01*
X134770999Y-88955971D01*
X134622933Y-88864642D01*
X134622927Y-88864639D01*
X134622925Y-88864638D01*
X134622922Y-88864637D01*
X134457776Y-88809913D01*
X134355855Y-88799500D01*
X134355848Y-88799500D01*
X133769152Y-88799500D01*
X133769144Y-88799500D01*
X133667223Y-88809913D01*
X133502077Y-88864637D01*
X133502066Y-88864642D01*
X133354000Y-88955971D01*
X133353996Y-88955974D01*
X133230974Y-89078996D01*
X133230971Y-89079000D01*
X133139642Y-89227066D01*
X133139637Y-89227077D01*
X133110667Y-89314504D01*
X133070894Y-89371949D01*
X133006378Y-89398772D01*
X132992961Y-89399500D01*
X132752708Y-89399500D01*
X132685669Y-89379815D01*
X132639914Y-89327011D01*
X132629970Y-89257853D01*
X132658995Y-89194297D01*
X132665027Y-89187819D01*
X133652847Y-88200000D01*
X134840857Y-87011990D01*
X134884484Y-86946699D01*
X134898938Y-86925068D01*
X134909306Y-86909550D01*
X134909307Y-86909547D01*
X134909311Y-86909542D01*
X134936281Y-86844430D01*
X134980120Y-86790028D01*
X135046414Y-86767963D01*
X135064097Y-86768595D01*
X135077155Y-86769999D01*
X135077172Y-86770000D01*
X135375000Y-86770000D01*
X135875000Y-86770000D01*
X136172828Y-86770000D01*
X136172844Y-86769999D01*
X136232372Y-86763598D01*
X136232379Y-86763596D01*
X136367086Y-86713354D01*
X136367093Y-86713350D01*
X136482187Y-86627190D01*
X136482190Y-86627187D01*
X136568350Y-86512093D01*
X136568354Y-86512086D01*
X136618596Y-86377379D01*
X136618598Y-86377372D01*
X136624999Y-86317844D01*
X136625000Y-86317827D01*
X136625000Y-86020000D01*
X135875000Y-86020000D01*
X135875000Y-86770000D01*
X135375000Y-86770000D01*
X135375000Y-85979618D01*
X135425446Y-86030064D01*
X135499555Y-86072851D01*
X135582213Y-86095000D01*
X135667787Y-86095000D01*
X135750445Y-86072851D01*
X135824554Y-86030064D01*
X135885064Y-85969554D01*
X135927851Y-85895445D01*
X135950000Y-85812787D01*
X135950000Y-85727213D01*
X135927851Y-85644555D01*
X135885064Y-85570446D01*
X135834618Y-85520000D01*
X136625000Y-85520000D01*
X136625000Y-85222172D01*
X136624999Y-85222155D01*
X136618598Y-85162627D01*
X136618597Y-85162623D01*
X136568350Y-85027907D01*
X136559753Y-85016422D01*
X136535336Y-84950958D01*
X136544458Y-84894663D01*
X136587051Y-84791835D01*
X136625500Y-84598541D01*
X136625500Y-84401459D01*
X136625500Y-84401456D01*
X136587052Y-84208170D01*
X136587051Y-84208169D01*
X136587051Y-84208165D01*
X136537986Y-84089711D01*
X136511635Y-84026092D01*
X136511633Y-84026088D01*
X136511632Y-84026086D01*
X136461703Y-83951362D01*
X136450029Y-83933891D01*
X136429151Y-83867214D01*
X136447635Y-83799834D01*
X136450029Y-83796109D01*
X136507688Y-83709816D01*
X136511632Y-83703914D01*
X136587051Y-83521835D01*
X136625500Y-83328541D01*
X136625500Y-83131459D01*
X136625500Y-83131456D01*
X136587052Y-82938170D01*
X136587051Y-82938169D01*
X136587051Y-82938165D01*
X136572676Y-82903461D01*
X136511635Y-82756092D01*
X136511633Y-82756088D01*
X136511632Y-82756086D01*
X136481738Y-82711347D01*
X136450029Y-82663891D01*
X136429151Y-82597214D01*
X136447635Y-82529834D01*
X136450029Y-82526109D01*
X136462872Y-82506887D01*
X136511632Y-82433914D01*
X136587051Y-82251835D01*
X136625500Y-82058541D01*
X136625500Y-81861459D01*
X136625500Y-81861456D01*
X136587052Y-81668170D01*
X136587051Y-81668169D01*
X136587051Y-81668165D01*
X136587049Y-81668160D01*
X136511635Y-81486092D01*
X136511633Y-81486088D01*
X136511632Y-81486086D01*
X136450029Y-81393891D01*
X136429151Y-81327214D01*
X136447635Y-81259834D01*
X136450029Y-81256109D01*
X136462872Y-81236887D01*
X136511632Y-81163914D01*
X136587051Y-80981835D01*
X136625500Y-80788541D01*
X136625500Y-80591459D01*
X136625500Y-80591456D01*
X136587052Y-80398170D01*
X136587051Y-80398169D01*
X136587051Y-80398165D01*
X136580181Y-80381580D01*
X136511635Y-80216092D01*
X136511628Y-80216079D01*
X136402139Y-80052218D01*
X136402136Y-80052214D01*
X136262785Y-79912863D01*
X136262781Y-79912860D01*
X136098920Y-79803371D01*
X136098907Y-79803364D01*
X135916839Y-79727950D01*
X135916829Y-79727947D01*
X135723543Y-79689500D01*
X135723541Y-79689500D01*
X135526459Y-79689500D01*
X135526457Y-79689500D01*
X135333170Y-79727947D01*
X135333160Y-79727950D01*
X135151952Y-79803008D01*
X135082482Y-79810477D01*
X135020003Y-79779201D01*
X134984352Y-79719112D01*
X134980500Y-79688447D01*
X134980500Y-77593606D01*
X135000185Y-77526567D01*
X135052989Y-77480812D01*
X135122147Y-77470868D01*
X135147828Y-77477423D01*
X135192517Y-77494091D01*
X135192516Y-77494091D01*
X135199444Y-77494835D01*
X135252127Y-77500500D01*
X136347872Y-77500499D01*
X136407483Y-77494091D01*
X136542331Y-77443796D01*
X136657546Y-77357546D01*
X136663052Y-77350191D01*
X136718985Y-77308319D01*
X136762320Y-77300500D01*
X137095396Y-77300500D01*
X137142844Y-77309937D01*
X137166503Y-77319737D01*
X137166508Y-77319738D01*
X137166511Y-77319739D01*
X137321153Y-77350499D01*
X137321156Y-77350500D01*
X137321158Y-77350500D01*
X137478844Y-77350500D01*
X137478845Y-77350499D01*
X137633497Y-77319737D01*
X137779179Y-77259394D01*
X137910289Y-77171789D01*
X138021789Y-77060289D01*
X138109394Y-76929179D01*
X138169737Y-76783497D01*
X138200500Y-76628842D01*
X138200500Y-76471158D01*
X138200500Y-76471155D01*
X138200499Y-76471153D01*
X138191471Y-76425766D01*
X138169737Y-76316503D01*
X138152229Y-76274234D01*
X138109397Y-76170827D01*
X138109390Y-76170814D01*
X138021789Y-76039711D01*
X138021786Y-76039707D01*
X137910292Y-75928213D01*
X137910288Y-75928210D01*
X137779185Y-75840609D01*
X137779172Y-75840602D01*
X137633501Y-75780264D01*
X137633489Y-75780261D01*
X137478845Y-75749500D01*
X137478842Y-75749500D01*
X137321158Y-75749500D01*
X137321155Y-75749500D01*
X137166511Y-75780260D01*
X137166506Y-75780262D01*
X137166504Y-75780262D01*
X137166503Y-75780263D01*
X137142844Y-75790062D01*
X137095396Y-75799500D01*
X136762320Y-75799500D01*
X136695281Y-75779815D01*
X136663052Y-75749809D01*
X136657548Y-75742457D01*
X136657546Y-75742454D01*
X136636555Y-75726740D01*
X136542335Y-75656206D01*
X136542328Y-75656202D01*
X136407482Y-75605908D01*
X136407483Y-75605908D01*
X136347883Y-75599501D01*
X136347881Y-75599500D01*
X136347873Y-75599500D01*
X136347864Y-75599500D01*
X135252129Y-75599500D01*
X135252123Y-75599501D01*
X135192514Y-75605909D01*
X135117832Y-75633763D01*
X135048140Y-75638747D01*
X134986817Y-75605261D01*
X134953333Y-75543937D01*
X134950500Y-75517581D01*
X134950500Y-73482417D01*
X134970185Y-73415378D01*
X135022989Y-73369623D01*
X135092147Y-73359679D01*
X135117824Y-73366232D01*
X135192517Y-73394091D01*
X135252127Y-73400500D01*
X136347872Y-73400499D01*
X136407483Y-73394091D01*
X136542331Y-73343796D01*
X136657546Y-73257546D01*
X136663052Y-73250191D01*
X136718985Y-73208319D01*
X136762320Y-73200500D01*
X137095396Y-73200500D01*
X137142844Y-73209937D01*
X137166503Y-73219737D01*
X137166508Y-73219738D01*
X137166511Y-73219739D01*
X137321153Y-73250499D01*
X137321156Y-73250500D01*
X137321158Y-73250500D01*
X137478844Y-73250500D01*
X137478845Y-73250499D01*
X137633497Y-73219737D01*
X137767183Y-73164363D01*
X137779172Y-73159397D01*
X137779172Y-73159396D01*
X137779179Y-73159394D01*
X137910289Y-73071789D01*
X138021789Y-72960289D01*
X138109394Y-72829179D01*
X138169737Y-72683497D01*
X138200500Y-72528842D01*
X138200500Y-72371158D01*
X138200500Y-72371155D01*
X138200499Y-72371153D01*
X138186246Y-72299500D01*
X138169737Y-72216503D01*
X138169735Y-72216498D01*
X138109397Y-72070827D01*
X138109390Y-72070814D01*
X138021789Y-71939711D01*
X138021786Y-71939707D01*
X137910292Y-71828213D01*
X137910288Y-71828210D01*
X137779185Y-71740609D01*
X137779172Y-71740602D01*
X137633501Y-71680264D01*
X137633489Y-71680261D01*
X137478845Y-71649500D01*
X137478842Y-71649500D01*
X137321158Y-71649500D01*
X137321155Y-71649500D01*
X137166511Y-71680260D01*
X137166506Y-71680262D01*
X137166504Y-71680262D01*
X137166503Y-71680263D01*
X137142844Y-71690062D01*
X137095396Y-71699500D01*
X136762320Y-71699500D01*
X136695281Y-71679815D01*
X136663052Y-71649809D01*
X136657548Y-71642457D01*
X136657546Y-71642454D01*
X136636555Y-71626740D01*
X136542335Y-71556206D01*
X136542328Y-71556202D01*
X136407482Y-71505908D01*
X136407483Y-71505908D01*
X136347883Y-71499501D01*
X136347881Y-71499500D01*
X136347873Y-71499500D01*
X136347864Y-71499500D01*
X135252129Y-71499500D01*
X135252123Y-71499501D01*
X135192516Y-71505908D01*
X135049359Y-71559303D01*
X135048714Y-71557575D01*
X134991147Y-71570095D01*
X134951011Y-71558310D01*
X134950641Y-71559303D01*
X134807482Y-71505908D01*
X134807483Y-71505908D01*
X134747883Y-71499501D01*
X134747881Y-71499500D01*
X134747873Y-71499500D01*
X134747864Y-71499500D01*
X133652129Y-71499500D01*
X133652123Y-71499501D01*
X133592516Y-71505908D01*
X133457671Y-71556202D01*
X133457664Y-71556206D01*
X133342457Y-71642451D01*
X133342451Y-71642457D01*
X133336948Y-71649809D01*
X133281015Y-71691681D01*
X133237680Y-71699500D01*
X131776076Y-71699500D01*
X131747242Y-71705234D01*
X131747243Y-71705235D01*
X131631093Y-71728339D01*
X131631089Y-71728340D01*
X131560285Y-71757669D01*
X131494507Y-71784914D01*
X131494498Y-71784919D01*
X131421256Y-71833859D01*
X131371586Y-71867047D01*
X131371582Y-71867050D01*
X130975450Y-72263181D01*
X130914127Y-72296666D01*
X130887769Y-72299500D01*
X130474998Y-72299500D01*
X130474980Y-72299501D01*
X130372203Y-72310000D01*
X130372200Y-72310001D01*
X130205668Y-72365185D01*
X130205663Y-72365187D01*
X130056342Y-72457289D01*
X129932289Y-72581342D01*
X129840187Y-72730663D01*
X129840185Y-72730668D01*
X129830857Y-72758818D01*
X129785001Y-72897203D01*
X129785001Y-72897204D01*
X129785000Y-72897204D01*
X129774500Y-72999983D01*
X129774500Y-73600001D01*
X129774501Y-73600019D01*
X129785000Y-73702796D01*
X129785001Y-73702799D01*
X129840185Y-73869331D01*
X129840187Y-73869336D01*
X129847177Y-73880668D01*
X129921089Y-74000500D01*
X129932289Y-74018657D01*
X130056346Y-74142714D01*
X130059182Y-74144463D01*
X130060717Y-74146170D01*
X130062011Y-74147193D01*
X130061836Y-74147414D01*
X130105905Y-74196411D01*
X130117126Y-74265374D01*
X130089282Y-74329456D01*
X130078456Y-74340869D01*
X130069536Y-74349150D01*
X130056344Y-74357288D01*
X129998821Y-74414810D01*
X129997143Y-74416369D01*
X129967851Y-74430981D01*
X129939128Y-74446666D01*
X129935665Y-74447038D01*
X129934622Y-74447559D01*
X129932734Y-74447353D01*
X129912770Y-74449500D01*
X129625316Y-74449500D01*
X129577864Y-74440061D01*
X129433501Y-74380264D01*
X129433489Y-74380261D01*
X129278845Y-74349500D01*
X129278842Y-74349500D01*
X129121158Y-74349500D01*
X129121155Y-74349500D01*
X128966510Y-74380261D01*
X128966498Y-74380264D01*
X128820827Y-74440602D01*
X128820814Y-74440609D01*
X128689711Y-74528210D01*
X128689707Y-74528213D01*
X128578213Y-74639707D01*
X128578210Y-74639711D01*
X128490609Y-74770814D01*
X128490602Y-74770827D01*
X128430264Y-74916498D01*
X128430261Y-74916510D01*
X128399500Y-75071153D01*
X128399500Y-75228846D01*
X128430261Y-75383489D01*
X128430264Y-75383501D01*
X128490602Y-75529172D01*
X128490609Y-75529185D01*
X128578210Y-75660288D01*
X128578213Y-75660292D01*
X128689707Y-75771786D01*
X128689711Y-75771789D01*
X128820814Y-75859390D01*
X128820827Y-75859397D01*
X128966498Y-75919735D01*
X128966503Y-75919737D01*
X129121153Y-75950499D01*
X129121156Y-75950500D01*
X129121158Y-75950500D01*
X129176082Y-75950500D01*
X129176083Y-75950500D01*
X129323918Y-75950500D01*
X129912770Y-75950500D01*
X129979809Y-75970185D01*
X130000451Y-75986819D01*
X130056344Y-76042712D01*
X130205666Y-76134814D01*
X130372203Y-76189999D01*
X130474991Y-76200500D01*
X131525008Y-76200499D01*
X131525016Y-76200498D01*
X131525019Y-76200498D01*
X131581302Y-76194748D01*
X131627797Y-76189999D01*
X131794334Y-76134814D01*
X131943656Y-76042712D01*
X132067712Y-75918656D01*
X132159814Y-75769334D01*
X132214999Y-75602797D01*
X132225500Y-75500009D01*
X132225499Y-74899992D01*
X132214999Y-74797203D01*
X132159814Y-74630666D01*
X132067712Y-74481344D01*
X131943656Y-74357288D01*
X131940819Y-74355538D01*
X131939283Y-74353830D01*
X131937989Y-74352807D01*
X131938163Y-74352585D01*
X131894096Y-74303594D01*
X131882872Y-74234632D01*
X131910713Y-74170549D01*
X131940817Y-74144462D01*
X131943656Y-74142712D01*
X132067712Y-74018656D01*
X132159814Y-73869334D01*
X132214999Y-73702797D01*
X132225500Y-73600009D01*
X132225499Y-73324498D01*
X132245183Y-73257461D01*
X132297987Y-73211706D01*
X132349499Y-73200500D01*
X133237680Y-73200500D01*
X133304719Y-73220185D01*
X133318363Y-73230339D01*
X133328748Y-73239237D01*
X133342454Y-73257546D01*
X133403090Y-73302937D01*
X133406183Y-73305588D01*
X133423096Y-73331587D01*
X133441682Y-73356415D01*
X133442616Y-73361596D01*
X133444282Y-73364156D01*
X133444320Y-73371037D01*
X133449500Y-73399749D01*
X133449500Y-75600249D01*
X133429815Y-75667288D01*
X133399812Y-75699515D01*
X133342457Y-75742451D01*
X133342451Y-75742457D01*
X133256206Y-75857664D01*
X133256202Y-75857671D01*
X133205908Y-75992517D01*
X133199501Y-76052116D01*
X133199500Y-76052135D01*
X133199500Y-77047870D01*
X133199501Y-77047876D01*
X133205908Y-77107483D01*
X133256202Y-77242328D01*
X133256206Y-77242335D01*
X133342452Y-77357544D01*
X133342455Y-77357547D01*
X133457664Y-77443793D01*
X133457671Y-77443797D01*
X133502618Y-77460561D01*
X133592517Y-77494091D01*
X133618758Y-77496912D01*
X133683306Y-77523649D01*
X133723154Y-77581041D01*
X133729500Y-77620201D01*
X133729500Y-79849216D01*
X133709815Y-79916255D01*
X133693181Y-79936897D01*
X133577863Y-80052214D01*
X133577860Y-80052218D01*
X133468371Y-80216079D01*
X133468364Y-80216092D01*
X133392950Y-80398160D01*
X133392947Y-80398170D01*
X133354500Y-80591456D01*
X133354500Y-80591459D01*
X133354500Y-80788541D01*
X133354500Y-80788543D01*
X133354499Y-80788543D01*
X133392947Y-80981829D01*
X133392950Y-80981839D01*
X133468365Y-81163907D01*
X133468368Y-81163914D01*
X133512352Y-81229740D01*
X133529971Y-81256110D01*
X133550848Y-81322787D01*
X133532363Y-81390167D01*
X133529971Y-81393890D01*
X133468366Y-81486089D01*
X133392950Y-81668160D01*
X133392947Y-81668170D01*
X133354500Y-81861456D01*
X133354500Y-81861459D01*
X133354500Y-82058541D01*
X133354500Y-82058543D01*
X133354499Y-82058543D01*
X133392947Y-82251829D01*
X133392950Y-82251839D01*
X133447470Y-82383462D01*
X133468368Y-82433914D01*
X133512352Y-82499740D01*
X133529971Y-82526110D01*
X133550848Y-82592787D01*
X133532363Y-82660167D01*
X133529971Y-82663890D01*
X133468366Y-82756089D01*
X133392950Y-82938160D01*
X133392947Y-82938170D01*
X133354500Y-83131456D01*
X133354500Y-83131459D01*
X133354500Y-83328541D01*
X133354500Y-83328543D01*
X133354499Y-83328543D01*
X133392947Y-83521829D01*
X133392950Y-83521839D01*
X133468367Y-83703914D01*
X133469091Y-83705268D01*
X133469255Y-83706057D01*
X133470699Y-83709543D01*
X133470037Y-83709816D01*
X133483330Y-83773672D01*
X133458326Y-83838915D01*
X133402019Y-83880282D01*
X133383921Y-83885333D01*
X133337599Y-83894546D01*
X133337600Y-83894547D01*
X133317549Y-83898536D01*
X133317547Y-83898536D01*
X133270397Y-83918067D01*
X133203719Y-83945685D01*
X133203717Y-83945686D01*
X133101266Y-84014141D01*
X133101263Y-84014144D01*
X124939729Y-92175681D01*
X124878406Y-92209166D01*
X124852048Y-92212000D01*
X123519082Y-92212000D01*
X123452043Y-92192315D01*
X123406288Y-92139511D01*
X123396143Y-92104185D01*
X123385687Y-92024765D01*
X123385687Y-92024764D01*
X123327698Y-91884767D01*
X123235451Y-91764549D01*
X123115233Y-91672302D01*
X123115229Y-91672300D01*
X123051801Y-91646027D01*
X122975236Y-91614313D01*
X122959520Y-91612244D01*
X122862727Y-91599500D01*
X122862720Y-91599500D01*
X122637280Y-91599500D01*
X122637272Y-91599500D01*
X122550393Y-91610938D01*
X122524764Y-91614313D01*
X122524762Y-91614313D01*
X122516708Y-91615374D01*
X122516316Y-91612399D01*
X122483684Y-91612399D01*
X122483292Y-91615374D01*
X122475237Y-91614313D01*
X122475236Y-91614313D01*
X122446271Y-91610499D01*
X122362727Y-91599500D01*
X122362720Y-91599500D01*
X122137280Y-91599500D01*
X122137272Y-91599500D01*
X122050393Y-91610938D01*
X122024764Y-91614313D01*
X122024762Y-91614313D01*
X122016708Y-91615374D01*
X122016316Y-91612399D01*
X121983684Y-91612399D01*
X121983292Y-91615374D01*
X121975237Y-91614313D01*
X121975236Y-91614313D01*
X121946271Y-91610499D01*
X121862727Y-91599500D01*
X121862720Y-91599500D01*
X121637280Y-91599500D01*
X121637272Y-91599500D01*
X121550393Y-91610938D01*
X121524764Y-91614313D01*
X121524762Y-91614313D01*
X121516708Y-91615374D01*
X121516316Y-91612399D01*
X121483684Y-91612399D01*
X121483292Y-91615374D01*
X121475237Y-91614313D01*
X121475236Y-91614313D01*
X121446271Y-91610499D01*
X121362727Y-91599500D01*
X121362720Y-91599500D01*
X121137280Y-91599500D01*
X121137272Y-91599500D01*
X121050393Y-91610938D01*
X121024764Y-91614313D01*
X121024762Y-91614313D01*
X121016708Y-91615374D01*
X121016316Y-91612399D01*
X120983684Y-91612399D01*
X120983292Y-91615374D01*
X120975237Y-91614313D01*
X120975236Y-91614313D01*
X120946271Y-91610499D01*
X120862727Y-91599500D01*
X120862720Y-91599500D01*
X120637280Y-91599500D01*
X120637272Y-91599500D01*
X120550393Y-91610938D01*
X120524764Y-91614313D01*
X120524762Y-91614313D01*
X120516708Y-91615374D01*
X120516316Y-91612399D01*
X120483684Y-91612399D01*
X120483292Y-91615374D01*
X120475237Y-91614313D01*
X120475236Y-91614313D01*
X120446271Y-91610499D01*
X120362727Y-91599500D01*
X120362720Y-91599500D01*
X120137280Y-91599500D01*
X120137272Y-91599500D01*
X120050393Y-91610938D01*
X120024764Y-91614313D01*
X120024762Y-91614313D01*
X120016708Y-91615374D01*
X120016316Y-91612399D01*
X119983684Y-91612399D01*
X119983292Y-91615374D01*
X119975237Y-91614313D01*
X119975236Y-91614313D01*
X119946271Y-91610499D01*
X119862727Y-91599500D01*
X119862720Y-91599500D01*
X119637280Y-91599500D01*
X119637272Y-91599500D01*
X119550393Y-91610938D01*
X119524764Y-91614313D01*
X119524762Y-91614313D01*
X119516708Y-91615374D01*
X119516316Y-91612399D01*
X119483684Y-91612399D01*
X119483292Y-91615374D01*
X119475237Y-91614313D01*
X119475236Y-91614313D01*
X119446271Y-91610499D01*
X119362727Y-91599500D01*
X119362720Y-91599500D01*
X119137280Y-91599500D01*
X119137272Y-91599500D01*
X119050393Y-91610938D01*
X119024764Y-91614313D01*
X119024762Y-91614313D01*
X119016708Y-91615374D01*
X119016491Y-91613729D01*
X119010203Y-91616154D01*
X118983610Y-91613775D01*
X118983299Y-91613784D01*
X118983091Y-91615347D01*
X118982656Y-91615289D01*
X118979513Y-91613892D01*
X118974974Y-91614022D01*
X118974018Y-91613825D01*
X118971967Y-91612734D01*
X118968036Y-91612383D01*
X118967515Y-91612244D01*
X118967953Y-91610599D01*
X118946890Y-91599396D01*
X118918806Y-91586917D01*
X118916322Y-91583137D01*
X118912331Y-91581015D01*
X118897308Y-91554208D01*
X118880431Y-91528529D01*
X118879055Y-91521636D01*
X118878174Y-91520064D01*
X118878306Y-91517882D01*
X118875640Y-91504525D01*
X118875500Y-91503104D01*
X118875500Y-91503096D01*
X118851463Y-91382250D01*
X118805624Y-91271585D01*
X118804312Y-91268417D01*
X118785323Y-91239999D01*
X118735858Y-91165969D01*
X118735856Y-91165966D01*
X118645637Y-91075747D01*
X118645606Y-91075718D01*
X116732068Y-89162180D01*
X116698583Y-89100857D01*
X116703567Y-89031165D01*
X116745439Y-88975232D01*
X116810903Y-88950815D01*
X116819749Y-88950499D01*
X117075002Y-88950499D01*
X117075008Y-88950499D01*
X117177797Y-88939999D01*
X117344334Y-88884814D01*
X117493656Y-88792712D01*
X117617712Y-88668656D01*
X117709814Y-88519334D01*
X117764999Y-88352797D01*
X117775500Y-88250009D01*
X117775499Y-87649992D01*
X117764999Y-87547203D01*
X117709814Y-87380666D01*
X117656725Y-87294595D01*
X117638286Y-87227204D01*
X117659209Y-87160541D01*
X117712851Y-87115771D01*
X117762265Y-87105500D01*
X118400191Y-87105500D01*
X118467230Y-87125185D01*
X118512985Y-87177989D01*
X118522929Y-87247147D01*
X118493904Y-87310703D01*
X118487872Y-87317181D01*
X118381923Y-87423129D01*
X118381917Y-87423137D01*
X118298255Y-87564603D01*
X118298254Y-87564606D01*
X118252402Y-87722426D01*
X118252401Y-87722432D01*
X118249500Y-87759298D01*
X118249500Y-87995396D01*
X118240062Y-88042844D01*
X118230263Y-88066503D01*
X118230262Y-88066506D01*
X118230260Y-88066511D01*
X118199500Y-88221153D01*
X118199500Y-88378846D01*
X118230261Y-88533489D01*
X118230263Y-88533497D01*
X118240061Y-88557151D01*
X118249500Y-88604604D01*
X118249500Y-88915701D01*
X118252401Y-88952567D01*
X118252402Y-88952573D01*
X118298254Y-89110393D01*
X118298255Y-89110396D01*
X118381917Y-89251862D01*
X118381923Y-89251870D01*
X118498129Y-89368076D01*
X118498133Y-89368079D01*
X118498135Y-89368081D01*
X118639602Y-89451744D01*
X118681224Y-89463836D01*
X118797426Y-89497597D01*
X118797429Y-89497597D01*
X118797431Y-89497598D01*
X118834306Y-89500500D01*
X118834314Y-89500500D01*
X119265686Y-89500500D01*
X119265694Y-89500500D01*
X119302569Y-89497598D01*
X119302571Y-89497597D01*
X119302573Y-89497597D01*
X119344191Y-89485505D01*
X119460398Y-89451744D01*
X119601865Y-89368081D01*
X119718081Y-89251865D01*
X119801744Y-89110398D01*
X119847598Y-88952569D01*
X119850500Y-88915694D01*
X119850500Y-88915649D01*
X120150000Y-88915649D01*
X120152899Y-88952489D01*
X120152900Y-88952495D01*
X120198716Y-89110193D01*
X120198717Y-89110196D01*
X120282314Y-89251552D01*
X120282321Y-89251561D01*
X120398438Y-89367678D01*
X120398447Y-89367685D01*
X120539801Y-89451281D01*
X120697514Y-89497100D01*
X120697511Y-89497100D01*
X120699998Y-89497295D01*
X120700000Y-89497295D01*
X121200000Y-89497295D01*
X121200001Y-89497295D01*
X121202486Y-89497100D01*
X121360198Y-89451281D01*
X121501552Y-89367685D01*
X121501561Y-89367678D01*
X121617678Y-89251561D01*
X121617685Y-89251552D01*
X121701282Y-89110196D01*
X121701283Y-89110193D01*
X121747099Y-88952495D01*
X121747100Y-88952489D01*
X121749999Y-88915649D01*
X121750000Y-88915634D01*
X121750000Y-88587500D01*
X121200000Y-88587500D01*
X121200000Y-89497295D01*
X120700000Y-89497295D01*
X120700000Y-88587500D01*
X120150000Y-88587500D01*
X120150000Y-88915649D01*
X119850500Y-88915649D01*
X119850500Y-88249986D01*
X122325001Y-88249986D01*
X122335494Y-88352697D01*
X122390641Y-88519119D01*
X122390643Y-88519124D01*
X122482684Y-88668345D01*
X122606654Y-88792315D01*
X122755875Y-88884356D01*
X122755880Y-88884358D01*
X122922302Y-88939505D01*
X122922309Y-88939506D01*
X123025019Y-88949999D01*
X123299999Y-88949999D01*
X123800000Y-88949999D01*
X124074972Y-88949999D01*
X124074986Y-88949998D01*
X124177697Y-88939505D01*
X124344119Y-88884358D01*
X124344124Y-88884356D01*
X124493345Y-88792315D01*
X124617315Y-88668345D01*
X124709356Y-88519124D01*
X124709358Y-88519119D01*
X124764505Y-88352697D01*
X124764506Y-88352690D01*
X124774999Y-88249986D01*
X125275001Y-88249986D01*
X125285494Y-88352697D01*
X125340641Y-88519119D01*
X125340643Y-88519124D01*
X125432684Y-88668345D01*
X125556654Y-88792315D01*
X125705875Y-88884356D01*
X125705880Y-88884358D01*
X125872302Y-88939505D01*
X125872309Y-88939506D01*
X125975019Y-88949999D01*
X126249999Y-88949999D01*
X126750000Y-88949999D01*
X127024972Y-88949999D01*
X127024986Y-88949998D01*
X127127697Y-88939505D01*
X127294119Y-88884358D01*
X127294124Y-88884356D01*
X127443345Y-88792315D01*
X127567315Y-88668345D01*
X127659356Y-88519124D01*
X127659358Y-88519119D01*
X127714505Y-88352697D01*
X127714506Y-88352690D01*
X127724999Y-88249986D01*
X127725000Y-88249973D01*
X127725000Y-88200000D01*
X126750000Y-88200000D01*
X126750000Y-88949999D01*
X126249999Y-88949999D01*
X126250000Y-88949998D01*
X126250000Y-88200000D01*
X125275001Y-88200000D01*
X125275001Y-88249986D01*
X124774999Y-88249986D01*
X124775000Y-88249973D01*
X124775000Y-88200000D01*
X123800000Y-88200000D01*
X123800000Y-88949999D01*
X123299999Y-88949999D01*
X123300000Y-88949998D01*
X123300000Y-88200000D01*
X122325001Y-88200000D01*
X122325001Y-88249986D01*
X119850500Y-88249986D01*
X119850500Y-88124500D01*
X119870185Y-88057461D01*
X119922989Y-88011706D01*
X119974500Y-88000500D01*
X120026000Y-88000500D01*
X120093039Y-88020185D01*
X120138794Y-88072989D01*
X120139712Y-88077212D01*
X120150000Y-88087500D01*
X121750000Y-88087500D01*
X121750000Y-87759365D01*
X121749999Y-87759350D01*
X121747100Y-87722510D01*
X121747099Y-87722504D01*
X121701283Y-87564806D01*
X121701282Y-87564803D01*
X121617685Y-87423447D01*
X121617678Y-87423438D01*
X121501561Y-87307321D01*
X121501550Y-87307313D01*
X121501055Y-87307020D01*
X121500746Y-87306689D01*
X121495393Y-87302537D01*
X121496062Y-87301673D01*
X121453373Y-87255950D01*
X121440871Y-87187208D01*
X121467518Y-87122619D01*
X121495859Y-87098063D01*
X121495702Y-87097861D01*
X121499435Y-87094965D01*
X121501061Y-87093555D01*
X121501865Y-87093081D01*
X121618081Y-86976865D01*
X121701744Y-86835398D01*
X121747598Y-86677569D01*
X121750500Y-86640694D01*
X121750500Y-85529500D01*
X121770185Y-85462461D01*
X121822989Y-85416706D01*
X121874500Y-85405500D01*
X122123363Y-85405500D01*
X122123364Y-85405500D01*
X122232031Y-85390852D01*
X122301098Y-85401405D01*
X122353497Y-85447623D01*
X122372590Y-85514833D01*
X122366301Y-85552744D01*
X122335001Y-85647200D01*
X122335000Y-85647204D01*
X122324500Y-85749983D01*
X122324500Y-86350001D01*
X122324501Y-86350019D01*
X122335000Y-86452796D01*
X122335001Y-86452799D01*
X122390185Y-86619331D01*
X122390187Y-86619336D01*
X122403356Y-86640686D01*
X122482288Y-86768656D01*
X122606344Y-86892712D01*
X122609628Y-86894737D01*
X122609653Y-86894753D01*
X122611445Y-86896746D01*
X122612011Y-86897193D01*
X122611934Y-86897289D01*
X122656379Y-86946699D01*
X122667603Y-87015661D01*
X122639761Y-87079744D01*
X122609665Y-87105826D01*
X122606660Y-87107679D01*
X122606655Y-87107683D01*
X122482684Y-87231654D01*
X122390643Y-87380875D01*
X122390641Y-87380880D01*
X122335494Y-87547302D01*
X122335493Y-87547309D01*
X122325000Y-87650013D01*
X122325000Y-87700000D01*
X124774999Y-87700000D01*
X124774999Y-87650028D01*
X124774998Y-87650013D01*
X124764505Y-87547302D01*
X124709358Y-87380880D01*
X124709356Y-87380875D01*
X124617315Y-87231654D01*
X124493344Y-87107683D01*
X124493341Y-87107681D01*
X124490339Y-87105829D01*
X124488713Y-87104021D01*
X124487677Y-87103202D01*
X124487817Y-87103024D01*
X124443617Y-87053880D01*
X124432397Y-86984917D01*
X124460243Y-86920836D01*
X124490344Y-86894754D01*
X124493656Y-86892712D01*
X124617712Y-86768656D01*
X124654259Y-86709402D01*
X124706207Y-86662679D01*
X124759798Y-86650500D01*
X125290202Y-86650500D01*
X125357241Y-86670185D01*
X125395739Y-86709401D01*
X125432288Y-86768656D01*
X125556344Y-86892712D01*
X125559628Y-86894737D01*
X125559653Y-86894753D01*
X125561445Y-86896746D01*
X125562011Y-86897193D01*
X125561934Y-86897289D01*
X125606379Y-86946699D01*
X125617603Y-87015661D01*
X125589761Y-87079744D01*
X125559665Y-87105826D01*
X125556660Y-87107679D01*
X125556655Y-87107683D01*
X125432684Y-87231654D01*
X125340643Y-87380875D01*
X125340641Y-87380880D01*
X125285494Y-87547302D01*
X125285493Y-87547309D01*
X125275000Y-87650013D01*
X125275000Y-87700000D01*
X127724999Y-87700000D01*
X127724999Y-87650028D01*
X127724998Y-87650013D01*
X127714505Y-87547302D01*
X127659358Y-87380880D01*
X127659356Y-87380875D01*
X127567315Y-87231654D01*
X127443344Y-87107683D01*
X127443341Y-87107681D01*
X127440339Y-87105829D01*
X127438713Y-87104021D01*
X127437677Y-87103202D01*
X127437817Y-87103024D01*
X127393617Y-87053880D01*
X127382397Y-86984917D01*
X127410243Y-86920836D01*
X127440344Y-86894754D01*
X127443656Y-86892712D01*
X127567712Y-86768656D01*
X127659814Y-86619334D01*
X127714999Y-86452797D01*
X127725500Y-86350009D01*
X127725499Y-85749992D01*
X127725200Y-85747069D01*
X127714999Y-85647203D01*
X127714998Y-85647200D01*
X127672848Y-85520000D01*
X127659814Y-85480666D01*
X127567712Y-85331344D01*
X127443656Y-85207288D01*
X127294334Y-85115186D01*
X127294333Y-85115185D01*
X127287791Y-85112136D01*
X127288612Y-85110374D01*
X127239243Y-85076182D01*
X127212431Y-85011661D01*
X127221144Y-84950811D01*
X127244307Y-84894890D01*
X127269737Y-84833497D01*
X127300500Y-84678842D01*
X127300500Y-84521158D01*
X127300500Y-84521155D01*
X127300499Y-84521153D01*
X127276690Y-84401459D01*
X127269737Y-84366503D01*
X127269735Y-84366498D01*
X127209397Y-84220827D01*
X127209390Y-84220814D01*
X127121789Y-84089711D01*
X127121786Y-84089707D01*
X127010292Y-83978213D01*
X127010288Y-83978210D01*
X126879185Y-83890609D01*
X126879172Y-83890602D01*
X126733501Y-83830264D01*
X126733489Y-83830261D01*
X126578845Y-83799500D01*
X126578842Y-83799500D01*
X126421158Y-83799500D01*
X126421155Y-83799500D01*
X126266510Y-83830261D01*
X126266498Y-83830264D01*
X126120827Y-83890602D01*
X126120814Y-83890609D01*
X125989711Y-83978210D01*
X125989707Y-83978213D01*
X125878213Y-84089707D01*
X125878210Y-84089711D01*
X125790609Y-84220814D01*
X125790602Y-84220827D01*
X125730264Y-84366498D01*
X125730261Y-84366510D01*
X125699500Y-84521153D01*
X125699500Y-84678846D01*
X125730261Y-84833489D01*
X125730263Y-84833497D01*
X125778856Y-84950811D01*
X125786325Y-85020281D01*
X125755050Y-85082760D01*
X125711534Y-85110690D01*
X125712209Y-85112136D01*
X125705663Y-85115187D01*
X125556342Y-85207289D01*
X125432289Y-85331342D01*
X125432288Y-85331344D01*
X125398187Y-85386632D01*
X125395741Y-85390597D01*
X125343793Y-85437321D01*
X125290202Y-85449500D01*
X124759798Y-85449500D01*
X124692759Y-85429815D01*
X124654259Y-85390597D01*
X124652323Y-85387458D01*
X124617712Y-85331344D01*
X124493656Y-85207288D01*
X124344334Y-85115186D01*
X124177797Y-85060001D01*
X124177795Y-85060000D01*
X124075010Y-85049500D01*
X123024998Y-85049500D01*
X123024980Y-85049501D01*
X122922203Y-85060000D01*
X122922189Y-85060003D01*
X122921534Y-85060221D01*
X122921106Y-85060235D01*
X122915578Y-85061419D01*
X122915366Y-85060432D01*
X122851705Y-85062613D01*
X122791668Y-85026874D01*
X122760484Y-84964349D01*
X122768054Y-84894890D01*
X122771620Y-84887090D01*
X122839042Y-84752248D01*
X122878886Y-84642323D01*
X122891977Y-84586869D01*
X122905500Y-84470728D01*
X122905500Y-80524000D01*
X122893947Y-80416544D01*
X122882741Y-80365033D01*
X122877670Y-80349796D01*
X122848616Y-80262502D01*
X122848613Y-80262496D01*
X122770828Y-80141462D01*
X122770825Y-80141457D01*
X122737328Y-80102799D01*
X122725076Y-80088659D01*
X122725072Y-80088656D01*
X122725070Y-80088653D01*
X122616336Y-79994433D01*
X122616333Y-79994431D01*
X122616331Y-79994430D01*
X122485465Y-79934664D01*
X122485460Y-79934662D01*
X122485459Y-79934662D01*
X122426192Y-79917259D01*
X122418417Y-79914976D01*
X122356354Y-79906053D01*
X122276000Y-79894500D01*
X121972491Y-79894500D01*
X121905452Y-79874815D01*
X121859697Y-79822011D01*
X121849753Y-79752853D01*
X121878778Y-79689297D01*
X121937556Y-79651523D01*
X121948299Y-79648883D01*
X122073389Y-79624000D01*
X122085163Y-79621658D01*
X122221745Y-79565084D01*
X122270979Y-79532186D01*
X122344666Y-79482952D01*
X122510088Y-79317528D01*
X122571410Y-79284044D01*
X122641102Y-79289028D01*
X122685450Y-79317529D01*
X122689707Y-79321786D01*
X122689711Y-79321789D01*
X122820814Y-79409390D01*
X122820827Y-79409397D01*
X122934425Y-79456450D01*
X122966503Y-79469737D01*
X123118644Y-79500000D01*
X123121153Y-79500499D01*
X123121156Y-79500500D01*
X123121158Y-79500500D01*
X123278844Y-79500500D01*
X123278845Y-79500499D01*
X123433497Y-79469737D01*
X123579179Y-79409394D01*
X123710289Y-79321789D01*
X123821789Y-79210289D01*
X123909394Y-79079179D01*
X123969737Y-78933497D01*
X124000500Y-78778842D01*
X124000500Y-78621158D01*
X123987456Y-78555582D01*
X123993683Y-78485992D01*
X124036545Y-78430814D01*
X124102435Y-78407569D01*
X124133262Y-78409773D01*
X124170747Y-78417230D01*
X124237457Y-78430500D01*
X124237459Y-78430500D01*
X124434543Y-78430500D01*
X124564582Y-78404632D01*
X124627835Y-78392051D01*
X124768655Y-78333721D01*
X124809907Y-78316635D01*
X124809907Y-78316634D01*
X124809914Y-78316632D01*
X124973782Y-78207139D01*
X125113139Y-78067782D01*
X125222632Y-77903914D01*
X125298051Y-77721835D01*
X125310632Y-77658582D01*
X125336500Y-77528543D01*
X125336500Y-76231456D01*
X125298052Y-76038170D01*
X125298051Y-76038169D01*
X125298051Y-76038165D01*
X125298049Y-76038160D01*
X125222635Y-75856092D01*
X125222628Y-75856079D01*
X125113139Y-75692218D01*
X125113136Y-75692214D01*
X124973785Y-75552863D01*
X124973781Y-75552860D01*
X124809920Y-75443371D01*
X124809907Y-75443364D01*
X124627839Y-75367950D01*
X124627829Y-75367947D01*
X124434543Y-75329500D01*
X124434541Y-75329500D01*
X124237459Y-75329500D01*
X124237457Y-75329500D01*
X124044170Y-75367947D01*
X124044160Y-75367950D01*
X123862092Y-75443364D01*
X123862079Y-75443371D01*
X123698218Y-75552860D01*
X123698214Y-75552863D01*
X123558863Y-75692214D01*
X123558860Y-75692218D01*
X123445983Y-75861151D01*
X123444238Y-75859985D01*
X123401944Y-75903031D01*
X123333804Y-75918482D01*
X123268128Y-75894641D01*
X123266074Y-75893099D01*
X123261365Y-75889485D01*
X123130136Y-75813719D01*
X123041845Y-75790062D01*
X122983766Y-75774500D01*
X122832234Y-75774500D01*
X122685863Y-75813719D01*
X122554635Y-75889485D01*
X122554632Y-75889487D01*
X122447487Y-75996632D01*
X122447485Y-75996635D01*
X122371719Y-76127863D01*
X122332500Y-76274234D01*
X122332500Y-76330500D01*
X122330756Y-76336437D01*
X122331916Y-76342515D01*
X122321029Y-76369564D01*
X122312815Y-76397539D01*
X122308140Y-76401589D01*
X122305829Y-76407332D01*
X122282039Y-76424206D01*
X122260011Y-76443294D01*
X122252607Y-76445082D01*
X122248840Y-76447755D01*
X122225164Y-76451713D01*
X122214171Y-76454370D01*
X122211318Y-76454500D01*
X122120128Y-76454501D01*
X122060517Y-76460909D01*
X122059002Y-76461473D01*
X122048667Y-76461947D01*
X122046295Y-76461367D01*
X122029742Y-76461367D01*
X122025483Y-76460909D01*
X121965873Y-76454500D01*
X121965864Y-76454500D01*
X121570130Y-76454500D01*
X121570119Y-76454501D01*
X121531253Y-76458679D01*
X121504748Y-76458679D01*
X121465874Y-76454500D01*
X121070130Y-76454500D01*
X121070119Y-76454501D01*
X121031253Y-76458679D01*
X121004748Y-76458679D01*
X120965874Y-76454500D01*
X120570130Y-76454500D01*
X120570119Y-76454501D01*
X120531253Y-76458679D01*
X120504748Y-76458679D01*
X120465874Y-76454500D01*
X120070130Y-76454500D01*
X120070119Y-76454501D01*
X120031253Y-76458679D01*
X120004748Y-76458679D01*
X119965874Y-76454500D01*
X119570130Y-76454500D01*
X119570119Y-76454501D01*
X119531253Y-76458679D01*
X119504748Y-76458679D01*
X119465874Y-76454500D01*
X119070130Y-76454500D01*
X119070119Y-76454501D01*
X119031253Y-76458679D01*
X119004748Y-76458679D01*
X118965874Y-76454500D01*
X118570130Y-76454500D01*
X118570119Y-76454501D01*
X118531253Y-76458679D01*
X118504748Y-76458679D01*
X118465874Y-76454500D01*
X118070129Y-76454500D01*
X118070120Y-76454501D01*
X118006248Y-76461367D01*
X117987325Y-76461947D01*
X117976998Y-76461474D01*
X117975483Y-76460909D01*
X117915873Y-76454500D01*
X117824668Y-76454500D01*
X117821829Y-76454370D01*
X117791368Y-76443890D01*
X117760461Y-76434815D01*
X117758537Y-76432595D01*
X117755760Y-76431640D01*
X117735795Y-76406349D01*
X117714706Y-76382011D01*
X117713992Y-76378729D01*
X117712468Y-76376799D01*
X117711573Y-76367612D01*
X117703500Y-76330500D01*
X117703500Y-76274236D01*
X117703500Y-76274234D01*
X117664281Y-76127865D01*
X117588515Y-75996635D01*
X117481365Y-75889485D01*
X117396710Y-75840609D01*
X117350136Y-75813719D01*
X117261845Y-75790062D01*
X117203766Y-75774500D01*
X117052234Y-75774500D01*
X116905863Y-75813719D01*
X116774627Y-75889489D01*
X116769920Y-75893102D01*
X116704751Y-75918295D01*
X116636306Y-75904255D01*
X116591293Y-75860299D01*
X116590017Y-75861152D01*
X116477139Y-75692217D01*
X116337785Y-75552863D01*
X116337781Y-75552860D01*
X116173920Y-75443371D01*
X116173907Y-75443364D01*
X115991839Y-75367950D01*
X115991829Y-75367947D01*
X115798543Y-75329500D01*
X115798541Y-75329500D01*
X115601459Y-75329500D01*
X115601457Y-75329500D01*
X115408170Y-75367947D01*
X115408160Y-75367950D01*
X115226092Y-75443364D01*
X115226079Y-75443371D01*
X115062218Y-75552860D01*
X115062214Y-75552863D01*
X114922863Y-75692214D01*
X114922860Y-75692218D01*
X114813371Y-75856079D01*
X114813364Y-75856092D01*
X114737950Y-76038160D01*
X114737947Y-76038170D01*
X114699500Y-76231456D01*
X114699500Y-76231459D01*
X114699500Y-77528541D01*
X114699500Y-77528543D01*
X114699499Y-77528543D01*
X114737947Y-77721829D01*
X114737950Y-77721839D01*
X114813364Y-77903907D01*
X114813371Y-77903920D01*
X114922860Y-78067781D01*
X114922863Y-78067785D01*
X115062214Y-78207136D01*
X115062218Y-78207139D01*
X115226079Y-78316628D01*
X115226092Y-78316635D01*
X115375498Y-78378520D01*
X115408165Y-78392051D01*
X115408169Y-78392051D01*
X115408170Y-78392052D01*
X115601456Y-78430500D01*
X115601459Y-78430500D01*
X115798542Y-78430500D01*
X115815037Y-78427218D01*
X115865252Y-78417230D01*
X115934842Y-78423457D01*
X115990020Y-78466319D01*
X116013265Y-78532208D01*
X116011060Y-78563038D01*
X115999500Y-78621153D01*
X115999500Y-78778846D01*
X116030261Y-78933489D01*
X116030264Y-78933501D01*
X116090602Y-79079172D01*
X116090609Y-79079185D01*
X116178210Y-79210288D01*
X116178213Y-79210292D01*
X116289707Y-79321786D01*
X116289711Y-79321789D01*
X116420814Y-79409390D01*
X116420827Y-79409397D01*
X116534425Y-79456450D01*
X116566503Y-79469737D01*
X116718644Y-79500000D01*
X116721153Y-79500499D01*
X116721156Y-79500500D01*
X116721158Y-79500500D01*
X116878844Y-79500500D01*
X116878845Y-79500499D01*
X117033497Y-79469737D01*
X117123048Y-79432643D01*
X117192517Y-79425175D01*
X117254996Y-79456450D01*
X117290648Y-79516539D01*
X117294500Y-79547205D01*
X117294500Y-82276000D01*
X117294501Y-82276009D01*
X117306052Y-82383450D01*
X117306054Y-82383462D01*
X117317260Y-82434972D01*
X117351383Y-82537497D01*
X117351386Y-82537503D01*
X117429171Y-82658537D01*
X117429179Y-82658548D01*
X117474923Y-82711340D01*
X117474926Y-82711343D01*
X117474930Y-82711347D01*
X117583664Y-82805567D01*
X117583667Y-82805568D01*
X117583668Y-82805569D01*
X117697829Y-82857706D01*
X117750633Y-82903461D01*
X117770317Y-82970501D01*
X117750632Y-83037540D01*
X117697828Y-83083295D01*
X117646317Y-83094500D01*
X115851360Y-83094500D01*
X115797311Y-83097397D01*
X115797310Y-83097397D01*
X115770977Y-83100229D01*
X115770950Y-83100232D01*
X115717554Y-83108885D01*
X115717552Y-83108885D01*
X115582747Y-83159166D01*
X115521422Y-83192651D01*
X115406240Y-83278876D01*
X115406228Y-83278886D01*
X115178892Y-83506223D01*
X115178855Y-83506262D01*
X115142728Y-83546480D01*
X115142718Y-83546492D01*
X115126076Y-83567143D01*
X115094433Y-83611025D01*
X115034663Y-83741899D01*
X115014976Y-83808944D01*
X114994500Y-83951363D01*
X114994500Y-85991302D01*
X114974815Y-86058341D01*
X114922011Y-86104096D01*
X114852853Y-86114040D01*
X114846309Y-86112919D01*
X114778846Y-86099500D01*
X114778842Y-86099500D01*
X114621158Y-86099500D01*
X114621155Y-86099500D01*
X114466510Y-86130261D01*
X114466498Y-86130264D01*
X114320827Y-86190602D01*
X114320814Y-86190609D01*
X114189711Y-86278210D01*
X114189707Y-86278213D01*
X114137181Y-86330740D01*
X114075858Y-86364225D01*
X114006166Y-86359241D01*
X113950233Y-86317369D01*
X113925816Y-86251905D01*
X113925500Y-86243059D01*
X113925500Y-80686922D01*
X113925499Y-80686918D01*
X113915135Y-80634812D01*
X113901463Y-80566077D01*
X113873886Y-80499500D01*
X113854312Y-80452243D01*
X113807095Y-80381580D01*
X113785858Y-80349796D01*
X113698733Y-80262671D01*
X113698729Y-80262668D01*
X111325793Y-77889732D01*
X111292308Y-77828409D01*
X111291887Y-77826393D01*
X111269737Y-77715032D01*
X111214237Y-77581041D01*
X111209397Y-77569356D01*
X111209390Y-77569343D01*
X111121789Y-77438240D01*
X111121786Y-77438236D01*
X111010292Y-77326742D01*
X111010288Y-77326739D01*
X110879185Y-77239138D01*
X110879172Y-77239131D01*
X110733501Y-77178793D01*
X110733489Y-77178790D01*
X110578845Y-77148029D01*
X110578842Y-77148029D01*
X110421158Y-77148029D01*
X110421155Y-77148029D01*
X110266510Y-77178790D01*
X110266498Y-77178793D01*
X110120827Y-77239131D01*
X110120814Y-77239138D01*
X109989711Y-77326739D01*
X109989707Y-77326742D01*
X109878213Y-77438236D01*
X109878210Y-77438240D01*
X109790609Y-77569343D01*
X109790602Y-77569356D01*
X109730264Y-77715027D01*
X109730261Y-77715039D01*
X109699500Y-77869682D01*
X109699500Y-78027375D01*
X109730261Y-78182018D01*
X109730264Y-78182030D01*
X109790602Y-78327701D01*
X109790609Y-78327714D01*
X109878210Y-78458817D01*
X109878213Y-78458821D01*
X109989707Y-78570315D01*
X109989711Y-78570318D01*
X110120814Y-78657919D01*
X110120827Y-78657926D01*
X110208230Y-78694128D01*
X110266503Y-78718266D01*
X110377716Y-78740387D01*
X110439623Y-78772770D01*
X110441203Y-78774322D01*
X112638181Y-80971300D01*
X112671666Y-81032623D01*
X112674500Y-81058981D01*
X112674500Y-87261606D01*
X112698537Y-87382452D01*
X112698538Y-87382454D01*
X112700129Y-87386297D01*
X112700133Y-87386306D01*
X112701839Y-87390423D01*
X112745688Y-87496286D01*
X112779711Y-87547203D01*
X112784003Y-87553626D01*
X112814143Y-87598735D01*
X112905586Y-87690178D01*
X112905608Y-87690198D01*
X114253229Y-89037819D01*
X114286714Y-89099142D01*
X114281730Y-89168834D01*
X114239858Y-89224767D01*
X114174394Y-89249184D01*
X114165548Y-89249500D01*
X113774998Y-89249500D01*
X113774980Y-89249501D01*
X113672203Y-89260000D01*
X113672200Y-89260001D01*
X113505668Y-89315185D01*
X113505663Y-89315187D01*
X113356342Y-89407289D01*
X113232289Y-89531342D01*
X113140187Y-89680663D01*
X113140186Y-89680666D01*
X113085001Y-89847203D01*
X113085001Y-89847204D01*
X113085000Y-89847204D01*
X113074500Y-89949983D01*
X113074500Y-90550001D01*
X113074501Y-90550019D01*
X113085000Y-90652796D01*
X113085001Y-90652799D01*
X113140185Y-90819331D01*
X113140187Y-90819336D01*
X113153048Y-90840187D01*
X113232288Y-90968656D01*
X113356344Y-91092712D01*
X113359628Y-91094737D01*
X113359653Y-91094753D01*
X113361445Y-91096746D01*
X113362011Y-91097193D01*
X113361934Y-91097289D01*
X113406379Y-91146699D01*
X113417603Y-91215661D01*
X113389761Y-91279744D01*
X113359665Y-91305826D01*
X113356660Y-91307679D01*
X113356655Y-91307683D01*
X113232684Y-91431654D01*
X113140643Y-91580875D01*
X113140641Y-91580880D01*
X113085494Y-91747302D01*
X113085493Y-91747309D01*
X113075000Y-91850013D01*
X113075000Y-91900000D01*
X115524999Y-91900000D01*
X115524999Y-91850028D01*
X115524998Y-91850013D01*
X115514505Y-91747302D01*
X115459358Y-91580880D01*
X115459356Y-91580875D01*
X115367315Y-91431654D01*
X115243344Y-91307683D01*
X115243341Y-91307681D01*
X115240339Y-91305829D01*
X115238713Y-91304021D01*
X115237677Y-91303202D01*
X115237817Y-91303024D01*
X115193617Y-91253880D01*
X115182397Y-91184917D01*
X115210243Y-91120836D01*
X115240344Y-91094754D01*
X115243656Y-91092712D01*
X115367712Y-90968656D01*
X115404259Y-90909402D01*
X115411846Y-90902578D01*
X115416085Y-90893297D01*
X115437384Y-90879608D01*
X115456207Y-90862679D01*
X115467842Y-90860034D01*
X115474863Y-90855523D01*
X115509798Y-90850500D01*
X115749903Y-90850500D01*
X115816942Y-90870185D01*
X115837584Y-90886819D01*
X116365425Y-91414660D01*
X116398910Y-91475983D01*
X116399361Y-91478149D01*
X116430261Y-91633491D01*
X116430264Y-91633501D01*
X116490602Y-91779172D01*
X116490609Y-91779185D01*
X116578208Y-91910286D01*
X116578210Y-91910288D01*
X116578211Y-91910289D01*
X116580659Y-91912737D01*
X116581533Y-91914337D01*
X116582076Y-91914999D01*
X116581950Y-91915101D01*
X116614147Y-91974056D01*
X116613170Y-92016483D01*
X116615861Y-92016838D01*
X116600000Y-92137302D01*
X116600000Y-92687500D01*
X116975500Y-92687500D01*
X116984185Y-92690050D01*
X116993147Y-92688762D01*
X117017187Y-92699740D01*
X117042539Y-92707185D01*
X117048466Y-92714025D01*
X117056703Y-92717787D01*
X117070992Y-92740021D01*
X117088294Y-92759989D01*
X117090581Y-92770503D01*
X117094477Y-92776565D01*
X117099500Y-92811500D01*
X117099500Y-92863500D01*
X117079815Y-92930539D01*
X117027011Y-92976294D01*
X116975500Y-92987500D01*
X116600000Y-92987500D01*
X116600000Y-93476000D01*
X116580315Y-93543039D01*
X116527511Y-93588794D01*
X116476000Y-93600000D01*
X115987500Y-93600000D01*
X115987500Y-93975500D01*
X115984949Y-93984185D01*
X115986238Y-93993147D01*
X115975259Y-94017187D01*
X115967815Y-94042539D01*
X115960974Y-94048466D01*
X115957213Y-94056703D01*
X115934978Y-94070992D01*
X115915011Y-94088294D01*
X115904496Y-94090581D01*
X115898435Y-94094477D01*
X115863500Y-94099500D01*
X115811500Y-94099500D01*
X115744461Y-94079815D01*
X115698706Y-94027011D01*
X115687500Y-93975500D01*
X115687500Y-93600000D01*
X115137302Y-93600000D01*
X115024895Y-93614800D01*
X115024891Y-93614801D01*
X114885021Y-93672736D01*
X114764905Y-93764905D01*
X114672736Y-93885021D01*
X114614801Y-94024891D01*
X114614800Y-94024896D01*
X114604911Y-94099999D01*
X114604912Y-94100000D01*
X114639365Y-94100000D01*
X114652988Y-94104000D01*
X114667163Y-94103156D01*
X114685847Y-94113648D01*
X114706404Y-94119685D01*
X114715701Y-94130414D01*
X114728083Y-94137368D01*
X114738128Y-94156296D01*
X114752159Y-94172489D01*
X114754179Y-94186543D01*
X114760836Y-94199086D01*
X114759053Y-94220437D01*
X114762103Y-94241647D01*
X114756091Y-94255920D01*
X114755023Y-94268713D01*
X114737741Y-94299484D01*
X114705736Y-94341196D01*
X114697840Y-94351486D01*
X114641412Y-94392689D01*
X114605894Y-94398879D01*
X114604911Y-94400000D01*
X114615804Y-94482730D01*
X114615260Y-94491032D01*
X114616829Y-94495934D01*
X114612648Y-94530979D01*
X114612224Y-94532563D01*
X114575874Y-94592233D01*
X114513035Y-94622778D01*
X114492441Y-94624500D01*
X113160452Y-94624500D01*
X113093413Y-94604815D01*
X113072771Y-94588181D01*
X112761819Y-94277229D01*
X112728334Y-94215906D01*
X112725500Y-94189548D01*
X112725500Y-92449986D01*
X113075001Y-92449986D01*
X113085494Y-92552697D01*
X113140641Y-92719119D01*
X113140643Y-92719124D01*
X113232684Y-92868345D01*
X113356654Y-92992315D01*
X113505875Y-93084356D01*
X113505880Y-93084358D01*
X113672302Y-93139505D01*
X113672309Y-93139506D01*
X113775019Y-93149999D01*
X114049999Y-93149999D01*
X114550000Y-93149999D01*
X114824972Y-93149999D01*
X114824986Y-93149998D01*
X114927697Y-93139505D01*
X115094119Y-93084358D01*
X115094124Y-93084356D01*
X115243345Y-92992315D01*
X115367315Y-92868345D01*
X115459356Y-92719124D01*
X115459358Y-92719119D01*
X115514505Y-92552697D01*
X115514506Y-92552690D01*
X115524999Y-92449986D01*
X115525000Y-92449973D01*
X115525000Y-92400000D01*
X114550000Y-92400000D01*
X114550000Y-93149999D01*
X114049999Y-93149999D01*
X114050000Y-93149998D01*
X114050000Y-92400000D01*
X113075001Y-92400000D01*
X113075001Y-92449986D01*
X112725500Y-92449986D01*
X112725500Y-92338393D01*
X112725499Y-92338389D01*
X112715995Y-92290609D01*
X112701463Y-92217548D01*
X112681659Y-92169737D01*
X112668215Y-92137279D01*
X112654314Y-92103719D01*
X112654312Y-92103716D01*
X112654312Y-92103715D01*
X112618754Y-92050500D01*
X112585858Y-92001267D01*
X112498733Y-91914142D01*
X112498729Y-91914139D01*
X111940198Y-91355608D01*
X111940178Y-91355586D01*
X111848735Y-91264143D01*
X111785678Y-91222010D01*
X111785679Y-91222010D01*
X111779002Y-91217549D01*
X111746286Y-91195688D01*
X111665792Y-91162347D01*
X111632452Y-91148537D01*
X111632444Y-91148535D01*
X111571302Y-91136373D01*
X111571292Y-91136371D01*
X111566215Y-91135362D01*
X111511607Y-91124500D01*
X111511606Y-91124500D01*
X111466470Y-91124500D01*
X111459512Y-91123712D01*
X111433502Y-91112764D01*
X111406428Y-91104815D01*
X111401729Y-91099392D01*
X111395114Y-91096608D01*
X111379148Y-91073333D01*
X111360673Y-91052011D01*
X111357285Y-91043834D01*
X111343796Y-91007669D01*
X111343793Y-91007664D01*
X111257547Y-90892455D01*
X111257544Y-90892452D01*
X111142335Y-90806206D01*
X111142328Y-90806202D01*
X111007482Y-90755908D01*
X111007483Y-90755908D01*
X110947883Y-90749501D01*
X110947881Y-90749500D01*
X110947873Y-90749500D01*
X110947864Y-90749500D01*
X109052129Y-90749500D01*
X109052123Y-90749501D01*
X108992516Y-90755908D01*
X108857671Y-90806202D01*
X108857664Y-90806206D01*
X108742455Y-90892452D01*
X108742452Y-90892455D01*
X108656206Y-91007664D01*
X108656202Y-91007671D01*
X108605908Y-91142517D01*
X108604126Y-91150062D01*
X108601853Y-91149525D01*
X108579571Y-91203312D01*
X108522177Y-91243157D01*
X108483024Y-91249500D01*
X107981058Y-91249500D01*
X107914019Y-91229815D01*
X107875519Y-91190597D01*
X107792712Y-91056344D01*
X107668656Y-90932288D01*
X107551513Y-90860034D01*
X107519336Y-90840187D01*
X107519331Y-90840185D01*
X107517862Y-90839698D01*
X107352797Y-90785001D01*
X107352795Y-90785000D01*
X107250010Y-90774500D01*
X106649998Y-90774500D01*
X106649980Y-90774501D01*
X106547203Y-90785000D01*
X106547200Y-90785001D01*
X106380668Y-90840185D01*
X106380663Y-90840187D01*
X106231342Y-90932289D01*
X106107285Y-91056346D01*
X106105537Y-91059182D01*
X106103829Y-91060717D01*
X106102807Y-91062011D01*
X106102585Y-91061836D01*
X106053589Y-91105905D01*
X105984626Y-91117126D01*
X105920544Y-91089282D01*
X105894463Y-91059182D01*
X105892714Y-91056346D01*
X105768657Y-90932289D01*
X105768656Y-90932288D01*
X105651513Y-90860034D01*
X105619336Y-90840187D01*
X105619331Y-90840185D01*
X105617862Y-90839698D01*
X105452797Y-90785001D01*
X105452795Y-90785000D01*
X105350010Y-90774500D01*
X104749998Y-90774500D01*
X104749980Y-90774501D01*
X104647203Y-90785000D01*
X104647200Y-90785001D01*
X104480668Y-90840185D01*
X104480663Y-90840187D01*
X104331342Y-90932289D01*
X104207289Y-91056342D01*
X104115187Y-91205663D01*
X104115185Y-91205668D01*
X104090639Y-91279744D01*
X104060001Y-91372203D01*
X104060001Y-91372204D01*
X104060000Y-91372204D01*
X104049500Y-91474983D01*
X104049500Y-92525001D01*
X104049501Y-92525019D01*
X104060000Y-92627796D01*
X104060001Y-92627799D01*
X104115185Y-92794331D01*
X104115187Y-92794336D01*
X104125774Y-92811500D01*
X104199197Y-92930539D01*
X104207289Y-92943657D01*
X104263181Y-92999549D01*
X104296666Y-93060872D01*
X104299500Y-93087230D01*
X104299500Y-93412770D01*
X104279815Y-93479809D01*
X104263181Y-93500451D01*
X104207289Y-93556342D01*
X104115187Y-93705663D01*
X104115185Y-93705668D01*
X104105227Y-93735721D01*
X104060001Y-93872203D01*
X104060001Y-93872204D01*
X104060000Y-93872204D01*
X104049500Y-93974983D01*
X104049500Y-95025001D01*
X104049501Y-95025019D01*
X104060000Y-95127796D01*
X104060001Y-95127799D01*
X104115185Y-95294331D01*
X104115187Y-95294336D01*
X104137989Y-95331304D01*
X104202523Y-95435931D01*
X104207289Y-95443657D01*
X104263181Y-95499549D01*
X104296666Y-95560872D01*
X104299500Y-95587230D01*
X104299500Y-95912770D01*
X104279815Y-95979809D01*
X104263181Y-96000451D01*
X104207289Y-96056342D01*
X104193649Y-96078456D01*
X104159698Y-96133501D01*
X104124481Y-96190597D01*
X104116893Y-96197421D01*
X104112655Y-96206703D01*
X104091355Y-96220391D01*
X104072533Y-96237321D01*
X104060897Y-96239965D01*
X104053877Y-96244477D01*
X104018942Y-96249500D01*
X103904604Y-96249500D01*
X103857155Y-96240062D01*
X103833497Y-96230263D01*
X103833493Y-96230262D01*
X103833488Y-96230260D01*
X103678845Y-96199500D01*
X103678842Y-96199500D01*
X103521158Y-96199500D01*
X103521155Y-96199500D01*
X103366510Y-96230261D01*
X103366498Y-96230264D01*
X103220827Y-96290602D01*
X103220814Y-96290609D01*
X103089711Y-96378210D01*
X103089707Y-96378213D01*
X102978213Y-96489707D01*
X102978210Y-96489711D01*
X102890609Y-96620814D01*
X102890602Y-96620827D01*
X102830264Y-96766498D01*
X102830261Y-96766510D01*
X102799500Y-96921153D01*
X102799500Y-97078846D01*
X102830261Y-97233489D01*
X102830264Y-97233501D01*
X102890602Y-97379172D01*
X102890609Y-97379185D01*
X102978210Y-97510288D01*
X102978213Y-97510292D01*
X103089707Y-97621786D01*
X103089711Y-97621789D01*
X103220814Y-97709390D01*
X103220827Y-97709397D01*
X103320060Y-97750500D01*
X103366503Y-97769737D01*
X103490160Y-97794334D01*
X103521153Y-97800499D01*
X103521156Y-97800500D01*
X103521158Y-97800500D01*
X103678844Y-97800500D01*
X103678845Y-97800499D01*
X103755152Y-97785320D01*
X103833488Y-97769739D01*
X103833489Y-97769738D01*
X103833497Y-97769737D01*
X103857155Y-97759937D01*
X103865329Y-97758311D01*
X103869669Y-97755523D01*
X103904604Y-97750500D01*
X104018942Y-97750500D01*
X104085981Y-97770185D01*
X104124479Y-97809401D01*
X104207288Y-97943656D01*
X104331344Y-98067712D01*
X104480666Y-98159814D01*
X104647203Y-98214999D01*
X104749991Y-98225500D01*
X105350008Y-98225499D01*
X105350016Y-98225498D01*
X105350019Y-98225498D01*
X105406302Y-98219748D01*
X105452797Y-98214999D01*
X105619334Y-98159814D01*
X105768656Y-98067712D01*
X105892712Y-97943656D01*
X105894461Y-97940819D01*
X105896169Y-97939283D01*
X105897193Y-97937989D01*
X105897414Y-97938163D01*
X105946406Y-97894096D01*
X106015368Y-97882872D01*
X106079451Y-97910713D01*
X106105537Y-97940817D01*
X106107288Y-97943656D01*
X106231344Y-98067712D01*
X106380666Y-98159814D01*
X106547203Y-98214999D01*
X106649991Y-98225500D01*
X107250008Y-98225499D01*
X107250016Y-98225498D01*
X107250019Y-98225498D01*
X107306302Y-98219748D01*
X107352797Y-98214999D01*
X107519334Y-98159814D01*
X107668656Y-98067712D01*
X107792712Y-97943656D01*
X107875519Y-97809402D01*
X107927467Y-97762679D01*
X107981058Y-97750500D01*
X108875501Y-97750500D01*
X108942540Y-97770185D01*
X108988295Y-97822989D01*
X108999501Y-97874500D01*
X108999501Y-98197876D01*
X109005908Y-98257483D01*
X109056202Y-98392328D01*
X109056206Y-98392335D01*
X109142452Y-98507544D01*
X109142455Y-98507547D01*
X109257664Y-98593793D01*
X109257671Y-98593797D01*
X109392517Y-98644091D01*
X109392516Y-98644091D01*
X109399444Y-98644835D01*
X109452127Y-98650500D01*
X111947872Y-98650499D01*
X112007483Y-98644091D01*
X112142331Y-98593796D01*
X112257546Y-98507546D01*
X112257548Y-98507542D01*
X112262819Y-98502273D01*
X112324142Y-98468788D01*
X112393834Y-98473772D01*
X112449767Y-98515644D01*
X112474184Y-98581108D01*
X112474500Y-98589954D01*
X112474500Y-99089546D01*
X112454815Y-99156585D01*
X112438181Y-99177227D01*
X112247387Y-99368021D01*
X112186064Y-99401506D01*
X112116373Y-99396522D01*
X112007482Y-99355908D01*
X112007483Y-99355908D01*
X111947883Y-99349501D01*
X111947881Y-99349500D01*
X111947873Y-99349500D01*
X111947864Y-99349500D01*
X109452129Y-99349500D01*
X109452123Y-99349501D01*
X109392516Y-99355908D01*
X109257671Y-99406202D01*
X109257664Y-99406206D01*
X109142455Y-99492452D01*
X109142452Y-99492455D01*
X109056206Y-99607664D01*
X109056202Y-99607671D01*
X109005908Y-99742517D01*
X108999501Y-99802116D01*
X108999500Y-99802135D01*
X108999500Y-100125500D01*
X108979815Y-100192539D01*
X108927011Y-100238294D01*
X108875500Y-100249500D01*
X107981058Y-100249500D01*
X107914019Y-100229815D01*
X107875519Y-100190597D01*
X107872421Y-100185574D01*
X107792712Y-100056344D01*
X107668656Y-99932288D01*
X107538880Y-99852242D01*
X107519336Y-99840187D01*
X107519331Y-99840185D01*
X107494232Y-99831868D01*
X107352797Y-99785001D01*
X107352795Y-99785000D01*
X107250010Y-99774500D01*
X106649998Y-99774500D01*
X106649980Y-99774501D01*
X106547203Y-99785000D01*
X106547200Y-99785001D01*
X106380668Y-99840185D01*
X106380663Y-99840187D01*
X106231342Y-99932289D01*
X106107285Y-100056346D01*
X106105537Y-100059182D01*
X106103829Y-100060717D01*
X106102807Y-100062011D01*
X106102585Y-100061836D01*
X106053589Y-100105905D01*
X105984626Y-100117126D01*
X105920544Y-100089282D01*
X105894463Y-100059182D01*
X105892714Y-100056346D01*
X105768657Y-99932289D01*
X105768656Y-99932288D01*
X105638880Y-99852242D01*
X105619336Y-99840187D01*
X105619331Y-99840185D01*
X105594232Y-99831868D01*
X105452797Y-99785001D01*
X105452795Y-99785000D01*
X105350010Y-99774500D01*
X104749998Y-99774500D01*
X104749980Y-99774501D01*
X104647203Y-99785000D01*
X104647200Y-99785001D01*
X104480668Y-99840185D01*
X104480663Y-99840187D01*
X104331342Y-99932289D01*
X104207289Y-100056342D01*
X104203343Y-100062740D01*
X104143837Y-100159216D01*
X104124481Y-100190597D01*
X104116893Y-100197421D01*
X104112655Y-100206703D01*
X104091355Y-100220391D01*
X104072533Y-100237321D01*
X104060897Y-100239965D01*
X104053877Y-100244477D01*
X104018942Y-100249500D01*
X103904604Y-100249500D01*
X103857155Y-100240062D01*
X103833497Y-100230263D01*
X103833493Y-100230262D01*
X103833488Y-100230260D01*
X103678845Y-100199500D01*
X103678842Y-100199500D01*
X103521158Y-100199500D01*
X103521155Y-100199500D01*
X103366510Y-100230261D01*
X103366498Y-100230264D01*
X103220827Y-100290602D01*
X103220814Y-100290609D01*
X103089711Y-100378210D01*
X103089707Y-100378213D01*
X102978213Y-100489707D01*
X102978210Y-100489711D01*
X102890609Y-100620814D01*
X102890602Y-100620827D01*
X102830264Y-100766498D01*
X102830261Y-100766510D01*
X102799500Y-100921153D01*
X102799500Y-101078846D01*
X102830261Y-101233489D01*
X102830264Y-101233501D01*
X102890602Y-101379172D01*
X102890609Y-101379185D01*
X102978210Y-101510288D01*
X102978213Y-101510292D01*
X103089707Y-101621786D01*
X103089711Y-101621789D01*
X103220814Y-101709390D01*
X103220827Y-101709397D01*
X103320060Y-101750500D01*
X103366503Y-101769737D01*
X103490160Y-101794334D01*
X103521153Y-101800499D01*
X103521156Y-101800500D01*
X103521158Y-101800500D01*
X103678844Y-101800500D01*
X103678845Y-101800499D01*
X103796285Y-101777139D01*
X103833488Y-101769739D01*
X103833489Y-101769738D01*
X103833497Y-101769737D01*
X103857155Y-101759937D01*
X103865329Y-101758311D01*
X103869669Y-101755523D01*
X103904604Y-101750500D01*
X104018942Y-101750500D01*
X104085981Y-101770185D01*
X104124479Y-101809401D01*
X104207288Y-101943656D01*
X104331344Y-102067712D01*
X104480666Y-102159814D01*
X104647203Y-102214999D01*
X104749991Y-102225500D01*
X105350008Y-102225499D01*
X105350016Y-102225498D01*
X105350019Y-102225498D01*
X105406302Y-102219748D01*
X105452797Y-102214999D01*
X105619334Y-102159814D01*
X105768656Y-102067712D01*
X105892712Y-101943656D01*
X105894461Y-101940819D01*
X105896169Y-101939283D01*
X105897193Y-101937989D01*
X105897414Y-101938163D01*
X105946406Y-101894096D01*
X106015368Y-101882872D01*
X106079451Y-101910713D01*
X106105537Y-101940817D01*
X106107288Y-101943656D01*
X106231344Y-102067712D01*
X106380666Y-102159814D01*
X106547203Y-102214999D01*
X106649991Y-102225500D01*
X107250008Y-102225499D01*
X107250016Y-102225498D01*
X107250019Y-102225498D01*
X107306302Y-102219748D01*
X107352797Y-102214999D01*
X107519334Y-102159814D01*
X107668656Y-102067712D01*
X107792712Y-101943656D01*
X107875519Y-101809402D01*
X107927467Y-101762679D01*
X107981058Y-101750500D01*
X108875501Y-101750500D01*
X108942540Y-101770185D01*
X108988295Y-101822989D01*
X108999501Y-101874500D01*
X108999501Y-101897876D01*
X109005908Y-101957483D01*
X109056202Y-102092328D01*
X109056206Y-102092335D01*
X109142452Y-102207544D01*
X109142455Y-102207547D01*
X109257664Y-102293793D01*
X109257671Y-102293797D01*
X109392517Y-102344091D01*
X109392516Y-102344091D01*
X109399444Y-102344835D01*
X109452127Y-102350500D01*
X111947872Y-102350499D01*
X112007483Y-102344091D01*
X112142331Y-102293796D01*
X112257546Y-102207546D01*
X112343796Y-102092331D01*
X112394091Y-101957483D01*
X112400500Y-101897873D01*
X112400499Y-101035451D01*
X112420183Y-100968413D01*
X112436818Y-100947771D01*
X112719880Y-100664710D01*
X113585858Y-99798733D01*
X113654312Y-99696285D01*
X113686926Y-99617548D01*
X113701463Y-99582452D01*
X113708417Y-99547490D01*
X113725501Y-99461606D01*
X113725501Y-99338393D01*
X113725501Y-99333283D01*
X113725500Y-99333257D01*
X113725500Y-98444054D01*
X113745185Y-98377015D01*
X113797989Y-98331260D01*
X113867147Y-98321316D01*
X113918389Y-98340951D01*
X114020821Y-98409394D01*
X114020823Y-98409395D01*
X114020827Y-98409397D01*
X114162145Y-98467932D01*
X114166503Y-98469737D01*
X114318644Y-98500000D01*
X114321153Y-98500499D01*
X114321156Y-98500500D01*
X114476112Y-98500500D01*
X114543151Y-98520185D01*
X114588906Y-98572989D01*
X114597939Y-98633108D01*
X114599766Y-98633228D01*
X114599500Y-98637286D01*
X114599500Y-98862727D01*
X114615374Y-98983292D01*
X114612399Y-98983683D01*
X114612399Y-99016316D01*
X114615374Y-99016708D01*
X114599500Y-99137272D01*
X114599500Y-99362727D01*
X114615374Y-99483292D01*
X114612399Y-99483683D01*
X114612399Y-99516316D01*
X114615374Y-99516708D01*
X114599500Y-99637272D01*
X114599500Y-99862727D01*
X114614313Y-99975235D01*
X114614313Y-99975236D01*
X114670321Y-100110452D01*
X114672302Y-100115233D01*
X114764549Y-100235451D01*
X114884767Y-100327698D01*
X115024764Y-100385687D01*
X115137280Y-100400500D01*
X115137287Y-100400500D01*
X116475500Y-100400500D01*
X116542539Y-100420185D01*
X116588294Y-100472989D01*
X116599500Y-100524500D01*
X116599500Y-101862727D01*
X116614313Y-101975235D01*
X116614313Y-101975236D01*
X116662815Y-102092331D01*
X116672302Y-102115233D01*
X116764549Y-102235451D01*
X116884767Y-102327698D01*
X117024764Y-102385687D01*
X117024772Y-102385688D01*
X117032590Y-102387783D01*
X117092252Y-102424147D01*
X117122783Y-102486993D01*
X117124500Y-102507559D01*
X117124500Y-104939548D01*
X117104815Y-105006587D01*
X117088181Y-105027229D01*
X116477229Y-105638181D01*
X116415906Y-105671666D01*
X116389548Y-105674500D01*
X110108389Y-105674500D01*
X110047971Y-105686518D01*
X110004743Y-105695116D01*
X109987546Y-105698537D01*
X109873716Y-105745687D01*
X109785982Y-105804310D01*
X109785980Y-105804312D01*
X109771265Y-105814143D01*
X108445003Y-107140406D01*
X108383680Y-107173891D01*
X108313988Y-107168907D01*
X108269641Y-107140406D01*
X107267590Y-106138355D01*
X107267588Y-106138352D01*
X107148717Y-106019481D01*
X107148716Y-106019480D01*
X107061904Y-105969360D01*
X107061904Y-105969359D01*
X107061900Y-105969358D01*
X107011785Y-105940423D01*
X106859057Y-105899499D01*
X106700943Y-105899499D01*
X106693347Y-105899499D01*
X106693331Y-105899500D01*
X103265784Y-105899500D01*
X103198745Y-105879815D01*
X103178103Y-105863181D01*
X103037785Y-105722863D01*
X103037781Y-105722860D01*
X102873920Y-105613371D01*
X102873907Y-105613364D01*
X102691839Y-105537950D01*
X102691829Y-105537947D01*
X102498543Y-105499500D01*
X102498541Y-105499500D01*
X102301459Y-105499500D01*
X102301457Y-105499500D01*
X102108170Y-105537947D01*
X102108160Y-105537950D01*
X101926092Y-105613364D01*
X101926079Y-105613371D01*
X101762218Y-105722860D01*
X101762214Y-105722863D01*
X101622863Y-105862214D01*
X101622860Y-105862218D01*
X101513371Y-106026079D01*
X101513364Y-106026092D01*
X101437950Y-106208160D01*
X101437947Y-106208170D01*
X101399500Y-106401456D01*
X101399500Y-106401459D01*
X101399500Y-106598541D01*
X101399500Y-106598543D01*
X101399499Y-106598543D01*
X100500500Y-106598543D01*
X100500500Y-104024986D01*
X112450001Y-104024986D01*
X112460494Y-104127697D01*
X112515641Y-104294119D01*
X112515643Y-104294124D01*
X112607684Y-104443345D01*
X112731654Y-104567315D01*
X112880875Y-104659356D01*
X112880880Y-104659358D01*
X113047302Y-104714505D01*
X113047309Y-104714506D01*
X113150019Y-104724999D01*
X113199999Y-104724998D01*
X113200000Y-104724998D01*
X113200000Y-103750000D01*
X112450001Y-103750000D01*
X112450001Y-104024986D01*
X100500500Y-104024986D01*
X100500500Y-102975013D01*
X112450000Y-102975013D01*
X112450000Y-103250000D01*
X113200000Y-103250000D01*
X113200000Y-102275000D01*
X113700000Y-102275000D01*
X113700000Y-104724999D01*
X113749972Y-104724999D01*
X113749986Y-104724998D01*
X113852697Y-104714505D01*
X114019119Y-104659358D01*
X114019124Y-104659356D01*
X114168345Y-104567315D01*
X114292318Y-104443342D01*
X114294165Y-104440348D01*
X114295969Y-104438724D01*
X114296798Y-104437677D01*
X114296976Y-104437818D01*
X114346110Y-104393621D01*
X114415073Y-104382396D01*
X114479156Y-104410236D01*
X114505243Y-104440341D01*
X114507288Y-104443656D01*
X114631344Y-104567712D01*
X114780666Y-104659814D01*
X114947203Y-104714999D01*
X115049991Y-104725500D01*
X115650008Y-104725499D01*
X115650016Y-104725498D01*
X115650019Y-104725498D01*
X115706302Y-104719748D01*
X115752797Y-104714999D01*
X115919334Y-104659814D01*
X116068656Y-104567712D01*
X116192712Y-104443656D01*
X116284814Y-104294334D01*
X116339999Y-104127797D01*
X116350500Y-104025009D01*
X116350499Y-102974992D01*
X116345494Y-102926000D01*
X116339999Y-102872203D01*
X116339998Y-102872200D01*
X116299509Y-102750013D01*
X116284814Y-102705666D01*
X116192712Y-102556344D01*
X116140493Y-102504125D01*
X116107008Y-102442802D01*
X116111992Y-102373110D01*
X116113594Y-102369038D01*
X116169737Y-102233497D01*
X116200500Y-102078842D01*
X116200500Y-101921158D01*
X116200500Y-101921155D01*
X116200499Y-101921153D01*
X116195868Y-101897872D01*
X116169737Y-101766503D01*
X116165189Y-101755523D01*
X116109397Y-101620827D01*
X116109390Y-101620814D01*
X116021789Y-101489711D01*
X116021786Y-101489707D01*
X115910292Y-101378213D01*
X115910288Y-101378210D01*
X115779185Y-101290609D01*
X115779172Y-101290602D01*
X115633501Y-101230264D01*
X115633489Y-101230261D01*
X115478845Y-101199500D01*
X115478842Y-101199500D01*
X115321158Y-101199500D01*
X115321155Y-101199500D01*
X115166510Y-101230261D01*
X115166498Y-101230264D01*
X115020827Y-101290602D01*
X115020814Y-101290609D01*
X114889711Y-101378210D01*
X114889707Y-101378213D01*
X114778213Y-101489707D01*
X114778210Y-101489711D01*
X114690609Y-101620814D01*
X114690602Y-101620827D01*
X114630264Y-101766498D01*
X114630261Y-101766510D01*
X114599500Y-101921153D01*
X114599500Y-102412770D01*
X114591493Y-102440035D01*
X114586513Y-102468017D01*
X114581046Y-102475616D01*
X114579815Y-102479809D01*
X114566451Y-102497055D01*
X114564857Y-102498774D01*
X114507288Y-102556344D01*
X114498889Y-102569960D01*
X114490657Y-102578844D01*
X114470627Y-102590790D01*
X114453291Y-102606383D01*
X114441185Y-102608352D01*
X114430651Y-102614636D01*
X114407344Y-102613857D01*
X114384328Y-102617602D01*
X114373078Y-102612713D01*
X114360821Y-102612304D01*
X114341636Y-102599050D01*
X114320247Y-102589755D01*
X114308412Y-102576096D01*
X114303336Y-102572589D01*
X114301445Y-102568055D01*
X114294168Y-102559656D01*
X114292319Y-102556659D01*
X114292316Y-102556655D01*
X114168345Y-102432684D01*
X114019124Y-102340643D01*
X114019119Y-102340641D01*
X113852697Y-102285494D01*
X113852690Y-102285493D01*
X113749986Y-102275000D01*
X113700000Y-102275000D01*
X113200000Y-102275000D01*
X113199999Y-102274999D01*
X113150029Y-102275000D01*
X113150011Y-102275001D01*
X113047302Y-102285494D01*
X112880880Y-102340641D01*
X112880875Y-102340643D01*
X112731654Y-102432684D01*
X112607684Y-102556654D01*
X112515643Y-102705875D01*
X112515641Y-102705880D01*
X112460494Y-102872302D01*
X112460493Y-102872309D01*
X112450000Y-102975013D01*
X100500500Y-102975013D01*
X100500500Y-72169682D01*
X101899500Y-72169682D01*
X101899500Y-72327375D01*
X101930261Y-72482018D01*
X101930264Y-72482030D01*
X101990602Y-72627701D01*
X101990609Y-72627714D01*
X102078210Y-72758817D01*
X102078213Y-72758821D01*
X102189707Y-72870315D01*
X102189711Y-72870318D01*
X102320814Y-72957919D01*
X102320827Y-72957926D01*
X102432187Y-73004052D01*
X102466503Y-73018266D01*
X102619605Y-73048720D01*
X102621153Y-73049028D01*
X102621156Y-73049029D01*
X102621158Y-73049029D01*
X102778844Y-73049029D01*
X102778845Y-73049028D01*
X102880198Y-73028868D01*
X102933488Y-73018268D01*
X102933489Y-73018267D01*
X102933497Y-73018266D01*
X102957155Y-73008466D01*
X102965329Y-73006840D01*
X102969669Y-73004052D01*
X103004604Y-72999029D01*
X103237680Y-72999029D01*
X103304719Y-73018714D01*
X103336948Y-73048720D01*
X103342454Y-73056075D01*
X103342457Y-73056077D01*
X103457664Y-73142322D01*
X103457671Y-73142326D01*
X103592517Y-73192620D01*
X103592516Y-73192620D01*
X103598507Y-73193264D01*
X103652127Y-73199029D01*
X104747872Y-73199028D01*
X104807483Y-73192620D01*
X104882169Y-73164763D01*
X104951857Y-73159780D01*
X105013181Y-73193264D01*
X105046666Y-73254587D01*
X105049500Y-73280946D01*
X105049500Y-75316110D01*
X105029815Y-75383149D01*
X104977011Y-75428904D01*
X104907853Y-75438848D01*
X104882168Y-75432292D01*
X104807485Y-75404438D01*
X104807483Y-75404437D01*
X104747883Y-75398030D01*
X104747881Y-75398029D01*
X104747873Y-75398029D01*
X104747864Y-75398029D01*
X103652129Y-75398029D01*
X103652123Y-75398030D01*
X103592516Y-75404437D01*
X103457671Y-75454731D01*
X103457664Y-75454735D01*
X103342457Y-75540980D01*
X103342451Y-75540986D01*
X103336948Y-75548338D01*
X103333291Y-75551075D01*
X103331393Y-75555232D01*
X103305575Y-75571823D01*
X103281015Y-75590210D01*
X103275385Y-75591225D01*
X103272615Y-75593006D01*
X103237680Y-75598029D01*
X103004604Y-75598029D01*
X102957155Y-75588591D01*
X102933497Y-75578792D01*
X102933493Y-75578791D01*
X102933488Y-75578789D01*
X102778845Y-75548029D01*
X102778842Y-75548029D01*
X102621158Y-75548029D01*
X102621155Y-75548029D01*
X102466510Y-75578790D01*
X102466498Y-75578793D01*
X102320827Y-75639131D01*
X102320814Y-75639138D01*
X102189711Y-75726739D01*
X102189707Y-75726742D01*
X102078213Y-75838236D01*
X102078210Y-75838240D01*
X101990609Y-75969343D01*
X101990602Y-75969356D01*
X101930264Y-76115027D01*
X101930261Y-76115039D01*
X101899500Y-76269682D01*
X101899500Y-76427375D01*
X101930261Y-76582018D01*
X101930264Y-76582030D01*
X101990602Y-76727701D01*
X101990609Y-76727714D01*
X102078210Y-76858817D01*
X102078213Y-76858821D01*
X102189707Y-76970315D01*
X102189711Y-76970318D01*
X102320814Y-77057919D01*
X102320827Y-77057926D01*
X102420060Y-77099029D01*
X102466503Y-77118266D01*
X102616131Y-77148029D01*
X102621153Y-77149028D01*
X102621156Y-77149029D01*
X102621158Y-77149029D01*
X102778844Y-77149029D01*
X102778845Y-77149028D01*
X102855152Y-77133849D01*
X102933488Y-77118268D01*
X102933489Y-77118267D01*
X102933497Y-77118266D01*
X102957155Y-77108466D01*
X102965329Y-77106840D01*
X102969669Y-77104052D01*
X103004604Y-77099029D01*
X103237680Y-77099029D01*
X103304719Y-77118714D01*
X103336948Y-77148720D01*
X103342454Y-77156075D01*
X103342457Y-77156077D01*
X103457664Y-77242322D01*
X103457671Y-77242326D01*
X103592517Y-77292620D01*
X103592516Y-77292620D01*
X103599444Y-77293364D01*
X103652127Y-77299029D01*
X104747872Y-77299028D01*
X104807483Y-77292620D01*
X104942331Y-77242325D01*
X104942333Y-77242322D01*
X104943001Y-77242074D01*
X104943188Y-77241896D01*
X104943789Y-77241780D01*
X104950640Y-77239225D01*
X104951069Y-77240377D01*
X104976097Y-77235555D01*
X105008828Y-77228431D01*
X105010765Y-77228876D01*
X105011796Y-77228678D01*
X105017473Y-77230419D01*
X105046095Y-77237002D01*
X105055692Y-77240845D01*
X105057669Y-77242325D01*
X105082727Y-77251670D01*
X105084096Y-77252219D01*
X105110442Y-77272941D01*
X105137266Y-77293021D01*
X105137803Y-77294462D01*
X105139013Y-77295414D01*
X105149968Y-77327077D01*
X105161684Y-77358485D01*
X105161781Y-77361216D01*
X105161860Y-77361443D01*
X105161798Y-77361695D01*
X105162000Y-77367333D01*
X105162000Y-78660134D01*
X105143541Y-78725225D01*
X105141188Y-78729039D01*
X105140185Y-78730667D01*
X105103287Y-78842019D01*
X105085001Y-78897203D01*
X105085001Y-78897204D01*
X105085000Y-78897204D01*
X105074500Y-78999983D01*
X105074500Y-80000001D01*
X105074501Y-80000019D01*
X105085000Y-80102796D01*
X105085001Y-80102799D01*
X105097813Y-80141462D01*
X105140186Y-80269334D01*
X105232288Y-80418656D01*
X105356344Y-80542712D01*
X105505666Y-80634814D01*
X105672203Y-80689999D01*
X105774991Y-80700500D01*
X106400008Y-80700499D01*
X106400016Y-80700498D01*
X106400019Y-80700498D01*
X106456302Y-80694748D01*
X106502797Y-80689999D01*
X106669334Y-80634814D01*
X106818656Y-80542712D01*
X106912675Y-80448692D01*
X106973994Y-80415210D01*
X107043686Y-80420194D01*
X107088034Y-80448695D01*
X107181654Y-80542315D01*
X107330875Y-80634356D01*
X107330880Y-80634358D01*
X107497302Y-80689505D01*
X107497309Y-80689506D01*
X107600019Y-80699999D01*
X108162500Y-80699999D01*
X108224972Y-80699999D01*
X108224986Y-80699998D01*
X108327697Y-80689505D01*
X108494119Y-80634358D01*
X108494124Y-80634356D01*
X108643345Y-80542315D01*
X108767315Y-80418345D01*
X108859356Y-80269124D01*
X108859358Y-80269119D01*
X108914505Y-80102697D01*
X108914506Y-80102690D01*
X108924999Y-79999986D01*
X108925000Y-79999973D01*
X108925000Y-79750000D01*
X108162500Y-79750000D01*
X108162500Y-80699999D01*
X107600019Y-80699999D01*
X107662499Y-80699998D01*
X107662500Y-80699998D01*
X107662500Y-79624000D01*
X107682185Y-79556961D01*
X107734989Y-79511206D01*
X107786500Y-79500000D01*
X107912500Y-79500000D01*
X107912500Y-79374000D01*
X107932185Y-79306961D01*
X107984989Y-79261206D01*
X108036500Y-79250000D01*
X108924999Y-79250000D01*
X108924999Y-79000028D01*
X108924998Y-79000013D01*
X108914505Y-78897302D01*
X108859358Y-78730880D01*
X108859356Y-78730875D01*
X108767315Y-78581654D01*
X108643345Y-78457684D01*
X108494124Y-78365643D01*
X108494119Y-78365641D01*
X108353331Y-78318989D01*
X108295886Y-78279216D01*
X108269063Y-78214701D01*
X108270717Y-78177095D01*
X108292462Y-78067781D01*
X108300500Y-78027373D01*
X108300500Y-77869684D01*
X108300499Y-77869682D01*
X108269738Y-77715039D01*
X108269737Y-77715032D01*
X108230457Y-77620201D01*
X108209397Y-77569356D01*
X108209390Y-77569343D01*
X108121789Y-77438240D01*
X108121786Y-77438236D01*
X108010292Y-77326742D01*
X108010288Y-77326739D01*
X107879185Y-77239138D01*
X107879172Y-77239131D01*
X107733501Y-77178793D01*
X107733489Y-77178790D01*
X107578845Y-77148029D01*
X107578842Y-77148029D01*
X107421158Y-77148029D01*
X107421155Y-77148029D01*
X107266510Y-77178790D01*
X107266498Y-77178793D01*
X107120827Y-77239131D01*
X107120814Y-77239138D01*
X106989125Y-77327131D01*
X106971078Y-77332781D01*
X106955169Y-77343006D01*
X106924207Y-77347457D01*
X106922447Y-77348009D01*
X106920234Y-77348029D01*
X106787000Y-77348029D01*
X106719961Y-77328344D01*
X106674206Y-77275540D01*
X106663000Y-77224029D01*
X106663000Y-77190061D01*
X106682685Y-77123022D01*
X106687733Y-77115750D01*
X106731020Y-77057926D01*
X106743796Y-77040860D01*
X106794091Y-76906012D01*
X106800500Y-76846402D01*
X106800499Y-75850657D01*
X106794091Y-75791046D01*
X106790069Y-75780263D01*
X106743797Y-75656200D01*
X106743793Y-75656193D01*
X106663052Y-75548338D01*
X106657546Y-75540983D01*
X106641769Y-75529172D01*
X106600188Y-75498044D01*
X106558318Y-75442110D01*
X106550500Y-75398778D01*
X106550500Y-73198278D01*
X106550600Y-73197934D01*
X106550502Y-73197591D01*
X106560458Y-73164363D01*
X106570185Y-73131239D01*
X106570488Y-73130890D01*
X106570557Y-73130662D01*
X106572442Y-73128647D01*
X106593817Y-73104117D01*
X106596909Y-73101466D01*
X106657546Y-73056075D01*
X106671251Y-73037766D01*
X106681637Y-73028868D01*
X106701526Y-73019917D01*
X106718985Y-73006848D01*
X106738322Y-73003358D01*
X106745353Y-73000195D01*
X106751098Y-73001053D01*
X106762320Y-72999029D01*
X107710780Y-72999029D01*
X107777819Y-73018714D01*
X107823574Y-73071518D01*
X107828486Y-73084025D01*
X107840185Y-73119331D01*
X107840187Y-73119336D01*
X107854365Y-73142322D01*
X107925435Y-73257546D01*
X107932289Y-73268657D01*
X108056346Y-73392714D01*
X108059182Y-73394463D01*
X108060717Y-73396170D01*
X108062011Y-73397193D01*
X108061836Y-73397414D01*
X108105905Y-73446411D01*
X108117126Y-73515374D01*
X108089282Y-73579456D01*
X108059182Y-73605537D01*
X108056346Y-73607285D01*
X107932289Y-73731342D01*
X107840187Y-73880663D01*
X107840186Y-73880666D01*
X107785001Y-74047203D01*
X107785001Y-74047204D01*
X107785000Y-74047204D01*
X107774500Y-74149983D01*
X107774500Y-74750001D01*
X107774501Y-74750019D01*
X107785000Y-74852796D01*
X107785001Y-74852799D01*
X107806109Y-74916498D01*
X107840186Y-75019334D01*
X107932288Y-75168656D01*
X108056344Y-75292712D01*
X108205666Y-75384814D01*
X108372203Y-75439999D01*
X108474991Y-75450500D01*
X109525008Y-75450499D01*
X109525016Y-75450498D01*
X109525019Y-75450498D01*
X109594816Y-75443368D01*
X109627797Y-75439999D01*
X109794334Y-75384814D01*
X109943656Y-75292712D01*
X110067712Y-75168656D01*
X110111970Y-75096902D01*
X110119556Y-75090078D01*
X110123795Y-75080797D01*
X110145094Y-75067108D01*
X110163917Y-75050179D01*
X110175552Y-75047534D01*
X110182573Y-75043023D01*
X110217508Y-75038000D01*
X110322912Y-75038000D01*
X110389951Y-75057685D01*
X110428449Y-75096901D01*
X110457288Y-75143656D01*
X110581344Y-75267712D01*
X110730666Y-75359814D01*
X110897203Y-75414999D01*
X110999991Y-75425500D01*
X112000008Y-75425499D01*
X112000016Y-75425498D01*
X112000019Y-75425498D01*
X112056302Y-75419748D01*
X112102797Y-75414999D01*
X112269334Y-75359814D01*
X112418656Y-75267712D01*
X112542712Y-75143656D01*
X112634814Y-74994334D01*
X112689999Y-74827797D01*
X112700500Y-74725009D01*
X112700499Y-74099992D01*
X112689999Y-73997203D01*
X112634814Y-73830666D01*
X112542712Y-73681344D01*
X112449049Y-73587681D01*
X112447531Y-73584902D01*
X112444831Y-73583250D01*
X112430896Y-73554436D01*
X112415564Y-73526358D01*
X112415789Y-73523200D01*
X112414411Y-73520350D01*
X112418265Y-73488583D01*
X112420548Y-73456666D01*
X112422560Y-73453187D01*
X112422827Y-73450989D01*
X112429673Y-73440891D01*
X112441249Y-73420884D01*
X112444947Y-73416420D01*
X112542712Y-73318656D01*
X112591508Y-73239543D01*
X112597027Y-73232884D01*
X112619111Y-73217992D01*
X112638917Y-73200179D01*
X112648892Y-73197912D01*
X112654958Y-73193822D01*
X112668172Y-73193530D01*
X112692508Y-73188000D01*
X114615531Y-73188000D01*
X114682570Y-73207685D01*
X114728325Y-73260489D01*
X114737149Y-73287813D01*
X114737948Y-73291830D01*
X114737949Y-73291836D01*
X114813364Y-73473907D01*
X114813371Y-73473920D01*
X114922860Y-73637781D01*
X114922863Y-73637785D01*
X115062214Y-73777136D01*
X115062218Y-73777139D01*
X115226079Y-73886628D01*
X115226092Y-73886635D01*
X115408160Y-73962049D01*
X115408165Y-73962051D01*
X115408169Y-73962051D01*
X115408170Y-73962052D01*
X115601456Y-74000500D01*
X115601459Y-74000500D01*
X115798543Y-74000500D01*
X115928582Y-73974632D01*
X115991835Y-73962051D01*
X116173914Y-73886632D01*
X116337782Y-73777139D01*
X116477139Y-73637782D01*
X116586632Y-73473914D01*
X116662051Y-73291835D01*
X116680283Y-73200179D01*
X116700500Y-73098543D01*
X123335499Y-73098543D01*
X123373947Y-73291829D01*
X123373950Y-73291839D01*
X123449364Y-73473907D01*
X123449371Y-73473920D01*
X123558860Y-73637781D01*
X123558863Y-73637785D01*
X123698214Y-73777136D01*
X123698218Y-73777139D01*
X123862079Y-73886628D01*
X123862092Y-73886635D01*
X124044160Y-73962049D01*
X124044165Y-73962051D01*
X124044169Y-73962051D01*
X124044170Y-73962052D01*
X124237456Y-74000500D01*
X124237459Y-74000500D01*
X124434543Y-74000500D01*
X124564582Y-73974632D01*
X124627835Y-73962051D01*
X124809914Y-73886632D01*
X124973782Y-73777139D01*
X125113139Y-73637782D01*
X125222632Y-73473914D01*
X125298051Y-73291835D01*
X125316283Y-73200179D01*
X125336500Y-73098543D01*
X125336500Y-72301456D01*
X125298052Y-72108170D01*
X125298051Y-72108169D01*
X125298051Y-72108165D01*
X125261070Y-72018884D01*
X125222635Y-71926092D01*
X125222628Y-71926079D01*
X125113139Y-71762218D01*
X125113136Y-71762214D01*
X124973785Y-71622863D01*
X124973781Y-71622860D01*
X124809920Y-71513371D01*
X124809907Y-71513364D01*
X124627839Y-71437950D01*
X124627829Y-71437947D01*
X124434543Y-71399500D01*
X124434541Y-71399500D01*
X124237459Y-71399500D01*
X124237457Y-71399500D01*
X124044170Y-71437947D01*
X124044160Y-71437950D01*
X123862092Y-71513364D01*
X123862079Y-71513371D01*
X123698218Y-71622860D01*
X123698214Y-71622863D01*
X123558863Y-71762214D01*
X123558860Y-71762218D01*
X123449371Y-71926079D01*
X123449364Y-71926092D01*
X123373950Y-72108160D01*
X123373947Y-72108170D01*
X123335500Y-72301456D01*
X123335500Y-72301459D01*
X123335500Y-73098541D01*
X123335500Y-73098543D01*
X123335499Y-73098543D01*
X116700500Y-73098543D01*
X116700500Y-72301456D01*
X116662052Y-72108170D01*
X116662051Y-72108169D01*
X116662051Y-72108165D01*
X116625070Y-72018884D01*
X116586635Y-71926092D01*
X116586628Y-71926079D01*
X116477139Y-71762218D01*
X116477136Y-71762214D01*
X116337785Y-71622863D01*
X116337781Y-71622860D01*
X116173920Y-71513371D01*
X116173907Y-71513364D01*
X115991839Y-71437950D01*
X115991829Y-71437947D01*
X115798543Y-71399500D01*
X115798541Y-71399500D01*
X115601459Y-71399500D01*
X115601457Y-71399500D01*
X115408170Y-71437947D01*
X115408160Y-71437950D01*
X115226092Y-71513364D01*
X115226079Y-71513371D01*
X115062218Y-71622860D01*
X115062214Y-71622863D01*
X114922860Y-71762217D01*
X114809983Y-71931152D01*
X114807769Y-71929672D01*
X114766882Y-71971297D01*
X114706486Y-71987000D01*
X112692508Y-71987000D01*
X112625469Y-71967315D01*
X112586969Y-71928097D01*
X112542712Y-71856344D01*
X112418656Y-71732288D01*
X112325888Y-71675069D01*
X112269336Y-71640187D01*
X112269331Y-71640185D01*
X112267862Y-71639698D01*
X112102797Y-71585001D01*
X112102795Y-71585000D01*
X112000010Y-71574500D01*
X110999998Y-71574500D01*
X110999980Y-71574501D01*
X110897203Y-71585000D01*
X110897200Y-71585001D01*
X110730668Y-71640185D01*
X110730663Y-71640187D01*
X110581342Y-71732289D01*
X110457288Y-71856343D01*
X110457285Y-71856347D01*
X110375599Y-71988781D01*
X110323651Y-72035506D01*
X110254689Y-72046727D01*
X110190607Y-72018884D01*
X110165187Y-71985836D01*
X110163605Y-71986813D01*
X110151579Y-71967315D01*
X110067712Y-71831344D01*
X109943656Y-71707288D01*
X109834864Y-71640185D01*
X109794336Y-71615187D01*
X109794331Y-71615185D01*
X109792862Y-71614698D01*
X109627797Y-71560001D01*
X109627795Y-71560000D01*
X109525016Y-71549500D01*
X109525009Y-71549500D01*
X108996738Y-71549500D01*
X108949290Y-71540062D01*
X108917442Y-71526871D01*
X108917435Y-71526869D01*
X108772449Y-71498029D01*
X108772447Y-71498029D01*
X106762320Y-71498029D01*
X106695281Y-71478344D01*
X106663052Y-71448338D01*
X106657548Y-71440986D01*
X106657546Y-71440983D01*
X106653490Y-71437947D01*
X106542335Y-71354735D01*
X106542328Y-71354731D01*
X106407482Y-71304437D01*
X106407483Y-71304437D01*
X106347883Y-71298030D01*
X106347881Y-71298029D01*
X106347873Y-71298029D01*
X106347864Y-71298029D01*
X105252129Y-71298029D01*
X105252123Y-71298030D01*
X105192516Y-71304437D01*
X105049359Y-71357832D01*
X105048714Y-71356104D01*
X104991147Y-71368624D01*
X104951011Y-71356839D01*
X104950641Y-71357832D01*
X104807482Y-71304437D01*
X104807483Y-71304437D01*
X104747883Y-71298030D01*
X104747881Y-71298029D01*
X104747873Y-71298029D01*
X104747864Y-71298029D01*
X103652129Y-71298029D01*
X103652123Y-71298030D01*
X103592516Y-71304437D01*
X103457671Y-71354731D01*
X103457664Y-71354735D01*
X103342457Y-71440980D01*
X103342451Y-71440986D01*
X103336948Y-71448338D01*
X103333291Y-71451075D01*
X103331393Y-71455232D01*
X103305575Y-71471823D01*
X103281015Y-71490210D01*
X103275385Y-71491225D01*
X103272615Y-71493006D01*
X103237680Y-71498029D01*
X103004604Y-71498029D01*
X102957155Y-71488591D01*
X102933497Y-71478792D01*
X102933493Y-71478791D01*
X102933488Y-71478789D01*
X102778845Y-71448029D01*
X102778842Y-71448029D01*
X102621158Y-71448029D01*
X102621155Y-71448029D01*
X102466510Y-71478790D01*
X102466498Y-71478793D01*
X102320827Y-71539131D01*
X102320814Y-71539138D01*
X102189711Y-71626739D01*
X102189707Y-71626742D01*
X102078213Y-71738236D01*
X102078210Y-71738240D01*
X101990609Y-71869343D01*
X101990602Y-71869356D01*
X101930264Y-72015027D01*
X101930261Y-72015039D01*
X101899500Y-72169682D01*
X100500500Y-72169682D01*
X100500500Y-70624500D01*
X100520185Y-70557461D01*
X100572989Y-70511706D01*
X100624500Y-70500500D01*
X139375500Y-70500500D01*
X139442539Y-70520185D01*
G37*
%TD.AperFunction*%
%TD*%
%TA.AperFunction,Conductor*%
%TO.N,VBUS*%
G36*
X119966403Y-78919685D02*
G01*
X120012158Y-78972489D01*
X120022102Y-79041647D01*
X120010273Y-79079452D01*
X119600000Y-79900000D01*
X119600000Y-82276000D01*
X119580315Y-82343039D01*
X119527511Y-82388794D01*
X119476000Y-82400000D01*
X117924000Y-82400000D01*
X117856961Y-82380315D01*
X117811206Y-82327511D01*
X117800000Y-82276000D01*
X117800000Y-79024000D01*
X117819685Y-78956961D01*
X117872489Y-78911206D01*
X117924000Y-78900000D01*
X119899364Y-78900000D01*
X119966403Y-78919685D01*
G37*
%TD.AperFunction*%
%TD*%
M02*
