%TF.GenerationSoftware,KiCad,Pcbnew,9.0.0*%
%TF.CreationDate,2025-03-17T13:33:28-06:00*%
%TF.ProjectId,TempLog,54656d70-4c6f-4672-9e6b-696361645f70,rev?*%
%TF.SameCoordinates,Original*%
%TF.FileFunction,Copper,L2,Bot*%
%TF.FilePolarity,Positive*%
%FSLAX46Y46*%
G04 Gerber Fmt 4.6, Leading zero omitted, Abs format (unit mm)*
G04 Created by KiCad (PCBNEW 9.0.0) date 2025-03-17 13:33:28*
%MOMM*%
%LPD*%
G01*
G04 APERTURE LIST*
%TA.AperFunction,ComponentPad*%
%ADD10R,1.700000X1.700000*%
%TD*%
%TA.AperFunction,ComponentPad*%
%ADD11O,1.700000X1.700000*%
%TD*%
%TA.AperFunction,ComponentPad*%
%ADD12O,1.000000X1.600000*%
%TD*%
%TA.AperFunction,ComponentPad*%
%ADD13O,1.000000X2.100000*%
%TD*%
%TA.AperFunction,ComponentPad*%
%ADD14O,1.000000X1.000000*%
%TD*%
%TA.AperFunction,ComponentPad*%
%ADD15R,1.000000X1.000000*%
%TD*%
%TA.AperFunction,ViaPad*%
%ADD16C,0.600000*%
%TD*%
%TA.AperFunction,Conductor*%
%ADD17C,0.250000*%
%TD*%
%TA.AperFunction,Conductor*%
%ADD18C,0.200000*%
%TD*%
G04 APERTURE END LIST*
D10*
%TO.P,J3,1,Pin_1*%
%TO.N,GND*%
X135500000Y-111000000D03*
D11*
%TO.P,J3,2,Pin_2*%
%TO.N,USART1_RX*%
X132960000Y-111000000D03*
%TO.P,J3,3,Pin_3*%
%TO.N,USART1_TX*%
X130420000Y-111000000D03*
%TD*%
D12*
%TO.P,J6,S,SHIELD*%
%TO.N,GND*%
X115700000Y-72700000D03*
D13*
%TO.P,J6,NC3,NC*%
%TO.N,unconnected-(J6-NC-PadNC3)*%
X115700000Y-76880000D03*
%TO.P,J6,NC2,NC*%
%TO.N,unconnected-(J6-NC-PadNC2)*%
X124336000Y-76880000D03*
D12*
%TO.P,J6,NC1,NC*%
%TO.N,unconnected-(J6-NC-PadNC1)*%
X124336000Y-72700000D03*
%TD*%
D14*
%TO.P,J1,10,Pin_10*%
%TO.N,NRST*%
X134355000Y-80690000D03*
%TO.P,J1,8,Pin_8*%
%TO.N,unconnected-(J1-Pin_8-Pad8)*%
X134355000Y-81960000D03*
%TO.P,J1,7,Pin_7*%
%TO.N,unconnected-(J1-Pin_7-Pad7)*%
X135625000Y-81960000D03*
%TO.P,J1,6,Pin_6*%
%TO.N,unconnected-(J1-Pin_6-Pad6)*%
X134355000Y-83230000D03*
%TO.P,J1,4,Pin_4*%
%TO.N,SWDCLK*%
X134355000Y-84500000D03*
%TO.P,J1,2,Pin_2*%
%TO.N,SWDIO*%
X134355000Y-85770000D03*
D15*
%TO.P,J1,1,Pin_1*%
%TO.N,+3V3*%
X135625000Y-85770000D03*
D14*
%TO.P,J1,9,Pin_9*%
%TO.N,GND*%
X135625000Y-80690000D03*
%TO.P,J1,5,Pin_5*%
X135625000Y-83230000D03*
%TO.P,J1,3,Pin_3*%
X135625000Y-84500000D03*
%TD*%
D11*
%TO.P,J5,2,Pin_2*%
%TO.N,+3V3*%
X135515000Y-106000000D03*
D10*
%TO.P,J5,1,Pin_1*%
%TO.N,BOOT0*%
X132975000Y-106000000D03*
%TD*%
D11*
%TO.P,J7,2,Pin_2*%
%TO.N,VCC*%
X121265000Y-81500000D03*
D10*
%TO.P,J7,1,Pin_1*%
%TO.N,VBUS*%
X118725000Y-81500000D03*
%TD*%
D16*
%TO.N,+3V3*%
X111400000Y-104800000D03*
X111400000Y-108100000D03*
%TO.N,GND*%
X126500000Y-84600000D03*
X121200000Y-116200000D03*
X129600000Y-116200000D03*
X114700000Y-86900000D03*
X115400000Y-102000000D03*
X117200000Y-91400000D03*
X137400000Y-76550000D03*
X103600000Y-97000000D03*
X129200000Y-75150000D03*
X108400000Y-113600000D03*
X102700000Y-72248529D03*
X102700000Y-76348529D03*
X123200000Y-78700000D03*
X134182500Y-100933332D03*
X103600000Y-101000000D03*
X116800000Y-78700000D03*
X120000000Y-87200000D03*
X114400000Y-97700000D03*
X126100000Y-104900000D03*
X132682500Y-93000000D03*
X137400000Y-72450000D03*
%TO.N,NRST*%
X122400000Y-94400000D03*
%TO.N,BTN_1*%
X110500000Y-77948529D03*
X107500000Y-77948529D03*
%TO.N,FLASH_SCK*%
X105100000Y-109800000D03*
X111300000Y-110600000D03*
%TO.N,FLASH_MISO*%
X111400000Y-109400000D03*
X117500000Y-107800000D03*
%TO.N,FLASH_MOSI*%
X103500000Y-112300000D03*
X111200000Y-111900000D03*
X115700000Y-110500000D03*
X118400000Y-107800000D03*
%TO.N,BOOT0*%
X119300000Y-95900000D03*
%TO.N,unconnected-(U6-NC-Pad4)*%
X119000000Y-88300000D03*
%TD*%
D17*
%TO.N,FLASH_MISO*%
X117500000Y-107800000D02*
X115200000Y-107800000D01*
X115200000Y-107800000D02*
X113600000Y-109400000D01*
X113600000Y-109400000D02*
X111400000Y-109400000D01*
%TO.N,FLASH_MOSI*%
X111200000Y-111900000D02*
X103900000Y-111900000D01*
X103900000Y-111900000D02*
X103500000Y-112300000D01*
%TO.N,FLASH_SCK*%
X111300000Y-110600000D02*
X110700000Y-110000000D01*
X110700000Y-110000000D02*
X105300000Y-110000000D01*
X105300000Y-110000000D02*
X105100000Y-109800000D01*
D18*
%TO.N,BOOT0*%
X129400000Y-106000000D02*
X132975000Y-106000000D01*
D17*
%TO.N,NRST*%
X122400000Y-94400000D02*
X122400000Y-92645000D01*
X122400000Y-92645000D02*
X134355000Y-80690000D01*
D18*
%TO.N,+3V3*%
X111400000Y-108100000D02*
X111400000Y-104800000D01*
%TO.N,BTN_1*%
X110500000Y-77948529D02*
X107500000Y-77948529D01*
D17*
%TO.N,FLASH_MOSI*%
X115700000Y-110500000D02*
X118400000Y-107800000D01*
D18*
%TO.N,BOOT0*%
X119300000Y-95900000D02*
X129400000Y-106000000D01*
%TD*%
%TA.AperFunction,Conductor*%
%TO.N,GND*%
G36*
X139442539Y-70520185D02*
G01*
X139488294Y-70572989D01*
X139499500Y-70624500D01*
X139499500Y-119375500D01*
X139479815Y-119442539D01*
X139427011Y-119488294D01*
X139375500Y-119499500D01*
X100624500Y-119499500D01*
X100557461Y-119479815D01*
X100511706Y-119427011D01*
X100500500Y-119375500D01*
X100500500Y-112221153D01*
X102699500Y-112221153D01*
X102699500Y-112378846D01*
X102730261Y-112533489D01*
X102730264Y-112533501D01*
X102790602Y-112679172D01*
X102790609Y-112679185D01*
X102878210Y-112810288D01*
X102878213Y-112810292D01*
X102989707Y-112921786D01*
X102989711Y-112921789D01*
X103120814Y-113009390D01*
X103120827Y-113009397D01*
X103266498Y-113069735D01*
X103266503Y-113069737D01*
X103421153Y-113100499D01*
X103421156Y-113100500D01*
X103421158Y-113100500D01*
X103578844Y-113100500D01*
X103578845Y-113100499D01*
X103733497Y-113069737D01*
X103879179Y-113009394D01*
X104010289Y-112921789D01*
X104121789Y-112810289D01*
X104209394Y-112679179D01*
X104213306Y-112669735D01*
X104241343Y-112602048D01*
X104285184Y-112547644D01*
X104351478Y-112525579D01*
X104355904Y-112525500D01*
X110657650Y-112525500D01*
X110724689Y-112545185D01*
X110726541Y-112546398D01*
X110820821Y-112609394D01*
X110820823Y-112609395D01*
X110820827Y-112609397D01*
X110966498Y-112669735D01*
X110966503Y-112669737D01*
X111121153Y-112700499D01*
X111121156Y-112700500D01*
X111121158Y-112700500D01*
X111278844Y-112700500D01*
X111278845Y-112700499D01*
X111433497Y-112669737D01*
X111579179Y-112609394D01*
X111710289Y-112521789D01*
X111821789Y-112410289D01*
X111909394Y-112279179D01*
X111969737Y-112133497D01*
X112000500Y-111978842D01*
X112000500Y-111821158D01*
X112000500Y-111821155D01*
X112000499Y-111821153D01*
X111994244Y-111789707D01*
X111969737Y-111666503D01*
X111938298Y-111590602D01*
X111909397Y-111520827D01*
X111909390Y-111520814D01*
X111821789Y-111389711D01*
X111819766Y-111387688D01*
X111819043Y-111386365D01*
X111817924Y-111385001D01*
X111818182Y-111384788D01*
X111786276Y-111326368D01*
X111791255Y-111256676D01*
X111819757Y-111212320D01*
X111921789Y-111110289D01*
X112009394Y-110979179D01*
X112069737Y-110833497D01*
X112100500Y-110678842D01*
X112100500Y-110521158D01*
X112100500Y-110521155D01*
X112100499Y-110521153D01*
X112080734Y-110421789D01*
X112069737Y-110366503D01*
X112042583Y-110300946D01*
X112009397Y-110220827D01*
X112009390Y-110220814D01*
X112007771Y-110218391D01*
X112007312Y-110216927D01*
X112006521Y-110215446D01*
X112006801Y-110215295D01*
X111986893Y-110151713D01*
X112005378Y-110084333D01*
X112057356Y-110037643D01*
X112110873Y-110025500D01*
X113661607Y-110025500D01*
X113722029Y-110013481D01*
X113782452Y-110001463D01*
X113838587Y-109978211D01*
X113896286Y-109954312D01*
X113962169Y-109910289D01*
X113998733Y-109885858D01*
X114085858Y-109798733D01*
X114085858Y-109798731D01*
X114096066Y-109788524D01*
X114096067Y-109788521D01*
X115422772Y-108461819D01*
X115484095Y-108428334D01*
X115510453Y-108425500D01*
X116590547Y-108425500D01*
X116657586Y-108445185D01*
X116703341Y-108497989D01*
X116713285Y-108567147D01*
X116684260Y-108630703D01*
X116678228Y-108637181D01*
X115641203Y-109674205D01*
X115579880Y-109707690D01*
X115577714Y-109708141D01*
X115466508Y-109730261D01*
X115466498Y-109730264D01*
X115320827Y-109790602D01*
X115320814Y-109790609D01*
X115189711Y-109878210D01*
X115189707Y-109878213D01*
X115078213Y-109989707D01*
X115078210Y-109989711D01*
X114990609Y-110120814D01*
X114990602Y-110120827D01*
X114930264Y-110266498D01*
X114930261Y-110266510D01*
X114899500Y-110421153D01*
X114899500Y-110578846D01*
X114930261Y-110733489D01*
X114930264Y-110733501D01*
X114990602Y-110879172D01*
X114990609Y-110879185D01*
X115078210Y-111010288D01*
X115078213Y-111010292D01*
X115189707Y-111121786D01*
X115189711Y-111121789D01*
X115320814Y-111209390D01*
X115320827Y-111209397D01*
X115448686Y-111262357D01*
X115466503Y-111269737D01*
X115621153Y-111300499D01*
X115621156Y-111300500D01*
X115621158Y-111300500D01*
X115778844Y-111300500D01*
X115778845Y-111300499D01*
X115933497Y-111269737D01*
X116079179Y-111209394D01*
X116210289Y-111121789D01*
X116321789Y-111010289D01*
X116399683Y-110893713D01*
X129069500Y-110893713D01*
X129069500Y-111106286D01*
X129100260Y-111300500D01*
X129102754Y-111316243D01*
X129162721Y-111500803D01*
X129168444Y-111518414D01*
X129264951Y-111707820D01*
X129389890Y-111879786D01*
X129540213Y-112030109D01*
X129712179Y-112155048D01*
X129712181Y-112155049D01*
X129712184Y-112155051D01*
X129901588Y-112251557D01*
X130103757Y-112317246D01*
X130313713Y-112350500D01*
X130313714Y-112350500D01*
X130526286Y-112350500D01*
X130526287Y-112350500D01*
X130736243Y-112317246D01*
X130938412Y-112251557D01*
X131127816Y-112155051D01*
X131214478Y-112092088D01*
X131299786Y-112030109D01*
X131299788Y-112030106D01*
X131299792Y-112030104D01*
X131450104Y-111879792D01*
X131450106Y-111879788D01*
X131450109Y-111879786D01*
X131575048Y-111707820D01*
X131575047Y-111707820D01*
X131575051Y-111707816D01*
X131579514Y-111699054D01*
X131627488Y-111648259D01*
X131695308Y-111631463D01*
X131761444Y-111653999D01*
X131800486Y-111699056D01*
X131804951Y-111707820D01*
X131929890Y-111879786D01*
X132080213Y-112030109D01*
X132252179Y-112155048D01*
X132252181Y-112155049D01*
X132252184Y-112155051D01*
X132441588Y-112251557D01*
X132643757Y-112317246D01*
X132853713Y-112350500D01*
X132853714Y-112350500D01*
X133066286Y-112350500D01*
X133066287Y-112350500D01*
X133276243Y-112317246D01*
X133478412Y-112251557D01*
X133667816Y-112155051D01*
X133754478Y-112092088D01*
X133839784Y-112030110D01*
X133839784Y-112030109D01*
X133839792Y-112030104D01*
X133953717Y-111916178D01*
X134015036Y-111882696D01*
X134084728Y-111887680D01*
X134140662Y-111929551D01*
X134157577Y-111960528D01*
X134206646Y-112092088D01*
X134206649Y-112092093D01*
X134292809Y-112207187D01*
X134292812Y-112207190D01*
X134407906Y-112293350D01*
X134407913Y-112293354D01*
X134542620Y-112343596D01*
X134542627Y-112343598D01*
X134602155Y-112349999D01*
X134602172Y-112350000D01*
X135250000Y-112350000D01*
X135250000Y-111433012D01*
X135307007Y-111465925D01*
X135434174Y-111500000D01*
X135565826Y-111500000D01*
X135692993Y-111465925D01*
X135750000Y-111433012D01*
X135750000Y-112350000D01*
X136397828Y-112350000D01*
X136397844Y-112349999D01*
X136457372Y-112343598D01*
X136457379Y-112343596D01*
X136592086Y-112293354D01*
X136592093Y-112293350D01*
X136707187Y-112207190D01*
X136707190Y-112207187D01*
X136793350Y-112092093D01*
X136793354Y-112092086D01*
X136843596Y-111957379D01*
X136843598Y-111957372D01*
X136849999Y-111897844D01*
X136850000Y-111897827D01*
X136850000Y-111250000D01*
X135933012Y-111250000D01*
X135965925Y-111192993D01*
X136000000Y-111065826D01*
X136000000Y-110934174D01*
X135965925Y-110807007D01*
X135933012Y-110750000D01*
X136850000Y-110750000D01*
X136850000Y-110102172D01*
X136849999Y-110102155D01*
X136843598Y-110042627D01*
X136843596Y-110042620D01*
X136793354Y-109907913D01*
X136793350Y-109907906D01*
X136707190Y-109792812D01*
X136707187Y-109792809D01*
X136592093Y-109706649D01*
X136592086Y-109706645D01*
X136457379Y-109656403D01*
X136457372Y-109656401D01*
X136397844Y-109650000D01*
X135750000Y-109650000D01*
X135750000Y-110566988D01*
X135692993Y-110534075D01*
X135565826Y-110500000D01*
X135434174Y-110500000D01*
X135307007Y-110534075D01*
X135250000Y-110566988D01*
X135250000Y-109650000D01*
X134602155Y-109650000D01*
X134542627Y-109656401D01*
X134542620Y-109656403D01*
X134407913Y-109706645D01*
X134407906Y-109706649D01*
X134292812Y-109792809D01*
X134292809Y-109792812D01*
X134206649Y-109907906D01*
X134206646Y-109907912D01*
X134157577Y-110039471D01*
X134115705Y-110095404D01*
X134050241Y-110119821D01*
X133981968Y-110104969D01*
X133953714Y-110083818D01*
X133839786Y-109969890D01*
X133667820Y-109844951D01*
X133478414Y-109748444D01*
X133478413Y-109748443D01*
X133478412Y-109748443D01*
X133276243Y-109682754D01*
X133276241Y-109682753D01*
X133276240Y-109682753D01*
X133114957Y-109657208D01*
X133066287Y-109649500D01*
X132853713Y-109649500D01*
X132805042Y-109657208D01*
X132643760Y-109682753D01*
X132441585Y-109748444D01*
X132252179Y-109844951D01*
X132080213Y-109969890D01*
X131929890Y-110120213D01*
X131804949Y-110292182D01*
X131800484Y-110300946D01*
X131752509Y-110351742D01*
X131684688Y-110368536D01*
X131618553Y-110345998D01*
X131579516Y-110300946D01*
X131575050Y-110292182D01*
X131450109Y-110120213D01*
X131299786Y-109969890D01*
X131127820Y-109844951D01*
X130938414Y-109748444D01*
X130938413Y-109748443D01*
X130938412Y-109748443D01*
X130736243Y-109682754D01*
X130736241Y-109682753D01*
X130736240Y-109682753D01*
X130574957Y-109657208D01*
X130526287Y-109649500D01*
X130313713Y-109649500D01*
X130265042Y-109657208D01*
X130103760Y-109682753D01*
X129901585Y-109748444D01*
X129712179Y-109844951D01*
X129540213Y-109969890D01*
X129389890Y-110120213D01*
X129264951Y-110292179D01*
X129168444Y-110481585D01*
X129168443Y-110481587D01*
X129168443Y-110481588D01*
X129155587Y-110521155D01*
X129102753Y-110683760D01*
X129069500Y-110893713D01*
X116399683Y-110893713D01*
X116409394Y-110879179D01*
X116469737Y-110733497D01*
X116491858Y-110622282D01*
X116524240Y-110560375D01*
X116525734Y-110558854D01*
X118458798Y-108625791D01*
X118520119Y-108592308D01*
X118522114Y-108591892D01*
X118633497Y-108569737D01*
X118779179Y-108509394D01*
X118910289Y-108421789D01*
X119021789Y-108310289D01*
X119109394Y-108179179D01*
X119169737Y-108033497D01*
X119200500Y-107878842D01*
X119200500Y-107721158D01*
X119200500Y-107721155D01*
X119200499Y-107721153D01*
X119174353Y-107589711D01*
X119169737Y-107566503D01*
X119150572Y-107520234D01*
X119109397Y-107420827D01*
X119109390Y-107420814D01*
X119021789Y-107289711D01*
X119021786Y-107289707D01*
X118910292Y-107178213D01*
X118910288Y-107178210D01*
X118779185Y-107090609D01*
X118779172Y-107090602D01*
X118633501Y-107030264D01*
X118633489Y-107030261D01*
X118478845Y-106999500D01*
X118478842Y-106999500D01*
X118321158Y-106999500D01*
X118321155Y-106999500D01*
X118166510Y-107030261D01*
X118166498Y-107030264D01*
X118020822Y-107090604D01*
X118020820Y-107090605D01*
X118018885Y-107091899D01*
X118017717Y-107092264D01*
X118015451Y-107093476D01*
X118015221Y-107093045D01*
X117952206Y-107112773D01*
X117884827Y-107094285D01*
X117881115Y-107091899D01*
X117879179Y-107090605D01*
X117879177Y-107090604D01*
X117733501Y-107030264D01*
X117733489Y-107030261D01*
X117578845Y-106999500D01*
X117578842Y-106999500D01*
X117421158Y-106999500D01*
X117421155Y-106999500D01*
X117266510Y-107030261D01*
X117266498Y-107030264D01*
X117120827Y-107090602D01*
X117120815Y-107090609D01*
X117026541Y-107153602D01*
X116959864Y-107174480D01*
X116957650Y-107174500D01*
X115267741Y-107174500D01*
X115267721Y-107174499D01*
X115261607Y-107174499D01*
X115138394Y-107174499D01*
X115037597Y-107194548D01*
X115037592Y-107194548D01*
X115017553Y-107198535D01*
X114995796Y-107207547D01*
X114903717Y-107245686D01*
X114903708Y-107245691D01*
X114801267Y-107314141D01*
X114801263Y-107314144D01*
X113377229Y-108738181D01*
X113315906Y-108771666D01*
X113289548Y-108774500D01*
X112144055Y-108774500D01*
X112077016Y-108754815D01*
X112031261Y-108702011D01*
X112021317Y-108632853D01*
X112040953Y-108581609D01*
X112109390Y-108479185D01*
X112109390Y-108479184D01*
X112109394Y-108479179D01*
X112169737Y-108333497D01*
X112200500Y-108178842D01*
X112200500Y-108021158D01*
X112200500Y-108021155D01*
X112200499Y-108021153D01*
X112172192Y-107878846D01*
X112169737Y-107866503D01*
X112109534Y-107721158D01*
X112109397Y-107720827D01*
X112109390Y-107720814D01*
X112021398Y-107589125D01*
X112000520Y-107522447D01*
X112000500Y-107520234D01*
X112000500Y-105379765D01*
X112020185Y-105312726D01*
X112021398Y-105310874D01*
X112109390Y-105179185D01*
X112109390Y-105179184D01*
X112109394Y-105179179D01*
X112169737Y-105033497D01*
X112200500Y-104878842D01*
X112200500Y-104721158D01*
X112200500Y-104721155D01*
X112200499Y-104721153D01*
X112169738Y-104566510D01*
X112169737Y-104566503D01*
X112169735Y-104566498D01*
X112109397Y-104420827D01*
X112109390Y-104420814D01*
X112021789Y-104289711D01*
X112021786Y-104289707D01*
X111910292Y-104178213D01*
X111910288Y-104178210D01*
X111779185Y-104090609D01*
X111779172Y-104090602D01*
X111633501Y-104030264D01*
X111633489Y-104030261D01*
X111478845Y-103999500D01*
X111478842Y-103999500D01*
X111321158Y-103999500D01*
X111321155Y-103999500D01*
X111166510Y-104030261D01*
X111166498Y-104030264D01*
X111020827Y-104090602D01*
X111020814Y-104090609D01*
X110889711Y-104178210D01*
X110889707Y-104178213D01*
X110778213Y-104289707D01*
X110778210Y-104289711D01*
X110690609Y-104420814D01*
X110690602Y-104420827D01*
X110630264Y-104566498D01*
X110630261Y-104566510D01*
X110599500Y-104721153D01*
X110599500Y-104878846D01*
X110630261Y-105033489D01*
X110630264Y-105033501D01*
X110690602Y-105179172D01*
X110690609Y-105179185D01*
X110778602Y-105310874D01*
X110799480Y-105377551D01*
X110799500Y-105379765D01*
X110799500Y-107520234D01*
X110779815Y-107587273D01*
X110778602Y-107589125D01*
X110690609Y-107720814D01*
X110690602Y-107720827D01*
X110630264Y-107866498D01*
X110630261Y-107866510D01*
X110599500Y-108021153D01*
X110599500Y-108178846D01*
X110630261Y-108333489D01*
X110630264Y-108333501D01*
X110690602Y-108479172D01*
X110690609Y-108479185D01*
X110778210Y-108610288D01*
X110778213Y-108610292D01*
X110830240Y-108662319D01*
X110863725Y-108723642D01*
X110858741Y-108793334D01*
X110830240Y-108837681D01*
X110778213Y-108889707D01*
X110778210Y-108889711D01*
X110690609Y-109020814D01*
X110690602Y-109020827D01*
X110630264Y-109166498D01*
X110630261Y-109166508D01*
X110608742Y-109274692D01*
X110576357Y-109336603D01*
X110515641Y-109371177D01*
X110487125Y-109374500D01*
X105844723Y-109374500D01*
X105777684Y-109354815D01*
X105741621Y-109319391D01*
X105721789Y-109289711D01*
X105721786Y-109289707D01*
X105610292Y-109178213D01*
X105610288Y-109178210D01*
X105479185Y-109090609D01*
X105479172Y-109090602D01*
X105333501Y-109030264D01*
X105333489Y-109030261D01*
X105178845Y-108999500D01*
X105178842Y-108999500D01*
X105021158Y-108999500D01*
X105021155Y-108999500D01*
X104866510Y-109030261D01*
X104866498Y-109030264D01*
X104720827Y-109090602D01*
X104720814Y-109090609D01*
X104589711Y-109178210D01*
X104589707Y-109178213D01*
X104478213Y-109289707D01*
X104478210Y-109289711D01*
X104390609Y-109420814D01*
X104390602Y-109420827D01*
X104330264Y-109566498D01*
X104330261Y-109566510D01*
X104299500Y-109721153D01*
X104299500Y-109878846D01*
X104330261Y-110033489D01*
X104330264Y-110033501D01*
X104390602Y-110179172D01*
X104390609Y-110179185D01*
X104478210Y-110310288D01*
X104478213Y-110310292D01*
X104589707Y-110421786D01*
X104589711Y-110421789D01*
X104720814Y-110509390D01*
X104720827Y-110509397D01*
X104840086Y-110558795D01*
X104866503Y-110569737D01*
X105018147Y-110599901D01*
X105021153Y-110600499D01*
X105021156Y-110600500D01*
X105021158Y-110600500D01*
X105100495Y-110600500D01*
X105124686Y-110602883D01*
X105238389Y-110625499D01*
X105238393Y-110625500D01*
X105238394Y-110625500D01*
X105361607Y-110625500D01*
X110387126Y-110625500D01*
X110454165Y-110645185D01*
X110499920Y-110697989D01*
X110508743Y-110725309D01*
X110530261Y-110833489D01*
X110530264Y-110833501D01*
X110590602Y-110979172D01*
X110590609Y-110979185D01*
X110659047Y-111081609D01*
X110679925Y-111148287D01*
X110661440Y-111215667D01*
X110609462Y-111262357D01*
X110555945Y-111274500D01*
X103838388Y-111274500D01*
X103717555Y-111298535D01*
X103717547Y-111298537D01*
X103603716Y-111345687D01*
X103501269Y-111414140D01*
X103441201Y-111474207D01*
X103379877Y-111507691D01*
X103377713Y-111508141D01*
X103266508Y-111530261D01*
X103266498Y-111530264D01*
X103120827Y-111590602D01*
X103120814Y-111590609D01*
X102989711Y-111678210D01*
X102989707Y-111678213D01*
X102878213Y-111789707D01*
X102878210Y-111789711D01*
X102790609Y-111920814D01*
X102790602Y-111920827D01*
X102730264Y-112066498D01*
X102730261Y-112066510D01*
X102699500Y-112221153D01*
X100500500Y-112221153D01*
X100500500Y-95821153D01*
X118499500Y-95821153D01*
X118499500Y-95978846D01*
X118530261Y-96133489D01*
X118530264Y-96133501D01*
X118590602Y-96279172D01*
X118590609Y-96279185D01*
X118678210Y-96410288D01*
X118678213Y-96410292D01*
X118789707Y-96521786D01*
X118789711Y-96521789D01*
X118920814Y-96609390D01*
X118920827Y-96609397D01*
X119066498Y-96669735D01*
X119066503Y-96669737D01*
X119131147Y-96682595D01*
X119221849Y-96700638D01*
X119283760Y-96733023D01*
X119285339Y-96734574D01*
X128915139Y-106364374D01*
X128915149Y-106364385D01*
X128919479Y-106368715D01*
X128919480Y-106368716D01*
X129031284Y-106480520D01*
X129096917Y-106518412D01*
X129118095Y-106530639D01*
X129118097Y-106530641D01*
X129156151Y-106552611D01*
X129168215Y-106559577D01*
X129320943Y-106600501D01*
X129320946Y-106600501D01*
X129486653Y-106600501D01*
X129486669Y-106600500D01*
X131500501Y-106600500D01*
X131567540Y-106620185D01*
X131613295Y-106672989D01*
X131624501Y-106724500D01*
X131624501Y-106897876D01*
X131630908Y-106957483D01*
X131681202Y-107092328D01*
X131681206Y-107092335D01*
X131767452Y-107207544D01*
X131767454Y-107207546D01*
X131882664Y-107293793D01*
X131882671Y-107293797D01*
X132017517Y-107344091D01*
X132017516Y-107344091D01*
X132024444Y-107344835D01*
X132077127Y-107350500D01*
X133872872Y-107350499D01*
X133932483Y-107344091D01*
X134067331Y-107293796D01*
X134182546Y-107207546D01*
X134268796Y-107092331D01*
X134317810Y-106960916D01*
X134359681Y-106904984D01*
X134425145Y-106880566D01*
X134493418Y-106895417D01*
X134521673Y-106916569D01*
X134635213Y-107030109D01*
X134807179Y-107155048D01*
X134807181Y-107155049D01*
X134807184Y-107155051D01*
X134996588Y-107251557D01*
X135198757Y-107317246D01*
X135408713Y-107350500D01*
X135408714Y-107350500D01*
X135621286Y-107350500D01*
X135621287Y-107350500D01*
X135831243Y-107317246D01*
X136033412Y-107251557D01*
X136222816Y-107155051D01*
X136306454Y-107094285D01*
X136394786Y-107030109D01*
X136394788Y-107030106D01*
X136394792Y-107030104D01*
X136545104Y-106879792D01*
X136545106Y-106879788D01*
X136545109Y-106879786D01*
X136670048Y-106707820D01*
X136670047Y-106707820D01*
X136670051Y-106707816D01*
X136766557Y-106518412D01*
X136832246Y-106316243D01*
X136865500Y-106106287D01*
X136865500Y-105893713D01*
X136832246Y-105683757D01*
X136766557Y-105481588D01*
X136670051Y-105292184D01*
X136670049Y-105292181D01*
X136670048Y-105292179D01*
X136545109Y-105120213D01*
X136394786Y-104969890D01*
X136222820Y-104844951D01*
X136033414Y-104748444D01*
X136033413Y-104748443D01*
X136033412Y-104748443D01*
X135831243Y-104682754D01*
X135831241Y-104682753D01*
X135831240Y-104682753D01*
X135669957Y-104657208D01*
X135621287Y-104649500D01*
X135408713Y-104649500D01*
X135360042Y-104657208D01*
X135198760Y-104682753D01*
X134996585Y-104748444D01*
X134807179Y-104844951D01*
X134635215Y-104969889D01*
X134521673Y-105083431D01*
X134460350Y-105116915D01*
X134390658Y-105111931D01*
X134334725Y-105070059D01*
X134317810Y-105039082D01*
X134268797Y-104907671D01*
X134268793Y-104907664D01*
X134182547Y-104792455D01*
X134182544Y-104792452D01*
X134067335Y-104706206D01*
X134067328Y-104706202D01*
X133932482Y-104655908D01*
X133932483Y-104655908D01*
X133872883Y-104649501D01*
X133872881Y-104649500D01*
X133872873Y-104649500D01*
X133872864Y-104649500D01*
X132077129Y-104649500D01*
X132077123Y-104649501D01*
X132017516Y-104655908D01*
X131882671Y-104706202D01*
X131882664Y-104706206D01*
X131767455Y-104792452D01*
X131767452Y-104792455D01*
X131681206Y-104907664D01*
X131681202Y-104907671D01*
X131630908Y-105042517D01*
X131624501Y-105102116D01*
X131624500Y-105102135D01*
X131624500Y-105275500D01*
X131604815Y-105342539D01*
X131552011Y-105388294D01*
X131500500Y-105399500D01*
X129700097Y-105399500D01*
X129633058Y-105379815D01*
X129612416Y-105363181D01*
X120134574Y-95885339D01*
X120101089Y-95824016D01*
X120100638Y-95821849D01*
X120069738Y-95666510D01*
X120069737Y-95666503D01*
X120069735Y-95666498D01*
X120009397Y-95520827D01*
X120009390Y-95520814D01*
X119921789Y-95389711D01*
X119921786Y-95389707D01*
X119810292Y-95278213D01*
X119810288Y-95278210D01*
X119679185Y-95190609D01*
X119679172Y-95190602D01*
X119533501Y-95130264D01*
X119533489Y-95130261D01*
X119378845Y-95099500D01*
X119378842Y-95099500D01*
X119221158Y-95099500D01*
X119221155Y-95099500D01*
X119066510Y-95130261D01*
X119066498Y-95130264D01*
X118920827Y-95190602D01*
X118920814Y-95190609D01*
X118789711Y-95278210D01*
X118789707Y-95278213D01*
X118678213Y-95389707D01*
X118678210Y-95389711D01*
X118590609Y-95520814D01*
X118590602Y-95520827D01*
X118530264Y-95666498D01*
X118530261Y-95666510D01*
X118499500Y-95821153D01*
X100500500Y-95821153D01*
X100500500Y-94321153D01*
X121599500Y-94321153D01*
X121599500Y-94478846D01*
X121630261Y-94633489D01*
X121630264Y-94633501D01*
X121690602Y-94779172D01*
X121690609Y-94779185D01*
X121778210Y-94910288D01*
X121778213Y-94910292D01*
X121889707Y-95021786D01*
X121889711Y-95021789D01*
X122020814Y-95109390D01*
X122020827Y-95109397D01*
X122166498Y-95169735D01*
X122166503Y-95169737D01*
X122321153Y-95200499D01*
X122321156Y-95200500D01*
X122321158Y-95200500D01*
X122478844Y-95200500D01*
X122478845Y-95200499D01*
X122633497Y-95169737D01*
X122779179Y-95109394D01*
X122910289Y-95021789D01*
X123021789Y-94910289D01*
X123109394Y-94779179D01*
X123169737Y-94633497D01*
X123200500Y-94478842D01*
X123200500Y-94321158D01*
X123200500Y-94321155D01*
X123200499Y-94321153D01*
X123169738Y-94166510D01*
X123169737Y-94166503D01*
X123109394Y-94020821D01*
X123046397Y-93926539D01*
X123025520Y-93859863D01*
X123025500Y-93857650D01*
X123025500Y-92955451D01*
X123045185Y-92888412D01*
X123061814Y-92867775D01*
X133236068Y-82693520D01*
X133297389Y-82660037D01*
X133367081Y-82665021D01*
X133423014Y-82706893D01*
X133447431Y-82772357D01*
X133438308Y-82828655D01*
X133392949Y-82938165D01*
X133392948Y-82938168D01*
X133392948Y-82938169D01*
X133392947Y-82938170D01*
X133354500Y-83131456D01*
X133354500Y-83131459D01*
X133354500Y-83328541D01*
X133354500Y-83328543D01*
X133354499Y-83328543D01*
X133392947Y-83521829D01*
X133392950Y-83521839D01*
X133406686Y-83555000D01*
X133468368Y-83703914D01*
X133512352Y-83769740D01*
X133529971Y-83796110D01*
X133550848Y-83862787D01*
X133532363Y-83930167D01*
X133529971Y-83933890D01*
X133468366Y-84026089D01*
X133392950Y-84208160D01*
X133392947Y-84208170D01*
X133354500Y-84401456D01*
X133354500Y-84401459D01*
X133354500Y-84598541D01*
X133354500Y-84598543D01*
X133354499Y-84598543D01*
X133392947Y-84791829D01*
X133392950Y-84791839D01*
X133468366Y-84973910D01*
X133468368Y-84973914D01*
X133496102Y-85015421D01*
X133529971Y-85066110D01*
X133550848Y-85132787D01*
X133532363Y-85200167D01*
X133529971Y-85203890D01*
X133468366Y-85296089D01*
X133392950Y-85478160D01*
X133392947Y-85478170D01*
X133354500Y-85671456D01*
X133354500Y-85671459D01*
X133354500Y-85868541D01*
X133354500Y-85868543D01*
X133354499Y-85868543D01*
X133392947Y-86061829D01*
X133392950Y-86061839D01*
X133468364Y-86243907D01*
X133468371Y-86243920D01*
X133577860Y-86407781D01*
X133577863Y-86407785D01*
X133717214Y-86547136D01*
X133717218Y-86547139D01*
X133881079Y-86656628D01*
X133881092Y-86656635D01*
X134063160Y-86732049D01*
X134063165Y-86732051D01*
X134063169Y-86732051D01*
X134063170Y-86732052D01*
X134256456Y-86770500D01*
X134256459Y-86770500D01*
X134453543Y-86770500D01*
X134583582Y-86744632D01*
X134646835Y-86732051D01*
X134749126Y-86689680D01*
X134818590Y-86682212D01*
X134870887Y-86704976D01*
X134882668Y-86713795D01*
X134882671Y-86713797D01*
X135017517Y-86764091D01*
X135017516Y-86764091D01*
X135024444Y-86764835D01*
X135077127Y-86770500D01*
X136172872Y-86770499D01*
X136232483Y-86764091D01*
X136367331Y-86713796D01*
X136482546Y-86627546D01*
X136568796Y-86512331D01*
X136619091Y-86377483D01*
X136625500Y-86317873D01*
X136625499Y-85222128D01*
X136619091Y-85162517D01*
X136608002Y-85132787D01*
X136568797Y-85027671D01*
X136568793Y-85027664D01*
X136559628Y-85015421D01*
X136535210Y-84949957D01*
X136544333Y-84893656D01*
X136586570Y-84791687D01*
X136594862Y-84750000D01*
X135834618Y-84750000D01*
X135885064Y-84699554D01*
X135927851Y-84625445D01*
X135950000Y-84542787D01*
X135950000Y-84457213D01*
X135927851Y-84374555D01*
X135885064Y-84300446D01*
X135834618Y-84250000D01*
X135875000Y-84250000D01*
X136594862Y-84250000D01*
X136586569Y-84208309D01*
X136586569Y-84208307D01*
X136511192Y-84026328D01*
X136449427Y-83933892D01*
X136428549Y-83867214D01*
X136447033Y-83799834D01*
X136449427Y-83796108D01*
X136511192Y-83703671D01*
X136586569Y-83521692D01*
X136586569Y-83521690D01*
X136594862Y-83480000D01*
X135875000Y-83480000D01*
X135875000Y-84250000D01*
X135834618Y-84250000D01*
X135824554Y-84239936D01*
X135750445Y-84197149D01*
X135667787Y-84175000D01*
X135582213Y-84175000D01*
X135499555Y-84197149D01*
X135425446Y-84239936D01*
X135375000Y-84290382D01*
X135375000Y-83439618D01*
X135425446Y-83490064D01*
X135499555Y-83532851D01*
X135582213Y-83555000D01*
X135667787Y-83555000D01*
X135750445Y-83532851D01*
X135824554Y-83490064D01*
X135885064Y-83429554D01*
X135927851Y-83355445D01*
X135950000Y-83272787D01*
X135950000Y-83187213D01*
X135927851Y-83104555D01*
X135885064Y-83030446D01*
X135834618Y-82980000D01*
X136594862Y-82980000D01*
X136586569Y-82938309D01*
X136586569Y-82938307D01*
X136511192Y-82756328D01*
X136511188Y-82756321D01*
X136449728Y-82664341D01*
X136428850Y-82597663D01*
X136447334Y-82530283D01*
X136449704Y-82526595D01*
X136511632Y-82433914D01*
X136518817Y-82416569D01*
X136587049Y-82251839D01*
X136587051Y-82251835D01*
X136625500Y-82058541D01*
X136625500Y-81861459D01*
X136625500Y-81861456D01*
X136587052Y-81668170D01*
X136587051Y-81668169D01*
X136587051Y-81668165D01*
X136587049Y-81668160D01*
X136511635Y-81486092D01*
X136511628Y-81486079D01*
X136449728Y-81393440D01*
X136428850Y-81326763D01*
X136447334Y-81259383D01*
X136449729Y-81255657D01*
X136511189Y-81163676D01*
X136511191Y-81163673D01*
X136586569Y-80981692D01*
X136586569Y-80981690D01*
X136594862Y-80940000D01*
X135834618Y-80940000D01*
X135885064Y-80889554D01*
X135927851Y-80815445D01*
X135950000Y-80732787D01*
X135950000Y-80647213D01*
X135927851Y-80564555D01*
X135885064Y-80490446D01*
X135834618Y-80440000D01*
X135875000Y-80440000D01*
X136594862Y-80440000D01*
X136586569Y-80398309D01*
X136586569Y-80398307D01*
X136511192Y-80216328D01*
X136511185Y-80216315D01*
X136401751Y-80052537D01*
X136401748Y-80052533D01*
X136262466Y-79913251D01*
X136262462Y-79913248D01*
X136098684Y-79803814D01*
X136098671Y-79803807D01*
X135916691Y-79728429D01*
X135916683Y-79728427D01*
X135875000Y-79720135D01*
X135875000Y-80440000D01*
X135834618Y-80440000D01*
X135824554Y-80429936D01*
X135750445Y-80387149D01*
X135667787Y-80365000D01*
X135582213Y-80365000D01*
X135499555Y-80387149D01*
X135425446Y-80429936D01*
X135375000Y-80480382D01*
X135375000Y-79720136D01*
X135374999Y-79720135D01*
X135333316Y-79728427D01*
X135333308Y-79728429D01*
X135151325Y-79803809D01*
X135059339Y-79865271D01*
X134992661Y-79886148D01*
X134925281Y-79867663D01*
X134921559Y-79865271D01*
X134889552Y-79843885D01*
X134828914Y-79803368D01*
X134828911Y-79803366D01*
X134828910Y-79803366D01*
X134646839Y-79727950D01*
X134646829Y-79727947D01*
X134453543Y-79689500D01*
X134453541Y-79689500D01*
X134256459Y-79689500D01*
X134256457Y-79689500D01*
X134063170Y-79727947D01*
X134063160Y-79727950D01*
X133881092Y-79803364D01*
X133881079Y-79803371D01*
X133717218Y-79912860D01*
X133717214Y-79912863D01*
X133577863Y-80052214D01*
X133577860Y-80052218D01*
X133468371Y-80216079D01*
X133468364Y-80216092D01*
X133392950Y-80398160D01*
X133392947Y-80398170D01*
X133354500Y-80591456D01*
X133354500Y-80754547D01*
X133334815Y-80821586D01*
X133318181Y-80842228D01*
X121914144Y-92246264D01*
X121914138Y-92246272D01*
X121845692Y-92348705D01*
X121845684Y-92348719D01*
X121812347Y-92429207D01*
X121806823Y-92442543D01*
X121798537Y-92462545D01*
X121798535Y-92462553D01*
X121774500Y-92583389D01*
X121774500Y-93857650D01*
X121754815Y-93924689D01*
X121753602Y-93926541D01*
X121690609Y-94020815D01*
X121690602Y-94020828D01*
X121630264Y-94166498D01*
X121630261Y-94166510D01*
X121599500Y-94321153D01*
X100500500Y-94321153D01*
X100500500Y-88221153D01*
X118199500Y-88221153D01*
X118199500Y-88378846D01*
X118230261Y-88533489D01*
X118230264Y-88533501D01*
X118290602Y-88679172D01*
X118290609Y-88679185D01*
X118378210Y-88810288D01*
X118378213Y-88810292D01*
X118489707Y-88921786D01*
X118489711Y-88921789D01*
X118620814Y-89009390D01*
X118620827Y-89009397D01*
X118766498Y-89069735D01*
X118766503Y-89069737D01*
X118921153Y-89100499D01*
X118921156Y-89100500D01*
X118921158Y-89100500D01*
X119078844Y-89100500D01*
X119078845Y-89100499D01*
X119233497Y-89069737D01*
X119379179Y-89009394D01*
X119510289Y-88921789D01*
X119621789Y-88810289D01*
X119709394Y-88679179D01*
X119769737Y-88533497D01*
X119800500Y-88378842D01*
X119800500Y-88221158D01*
X119800500Y-88221155D01*
X119800499Y-88221153D01*
X119769738Y-88066510D01*
X119769737Y-88066503D01*
X119769735Y-88066498D01*
X119709397Y-87920827D01*
X119709390Y-87920814D01*
X119621789Y-87789711D01*
X119621786Y-87789707D01*
X119510292Y-87678213D01*
X119510288Y-87678210D01*
X119379185Y-87590609D01*
X119379172Y-87590602D01*
X119233501Y-87530264D01*
X119233489Y-87530261D01*
X119078845Y-87499500D01*
X119078842Y-87499500D01*
X118921158Y-87499500D01*
X118921155Y-87499500D01*
X118766510Y-87530261D01*
X118766498Y-87530264D01*
X118620827Y-87590602D01*
X118620814Y-87590609D01*
X118489711Y-87678210D01*
X118489707Y-87678213D01*
X118378213Y-87789707D01*
X118378210Y-87789711D01*
X118290609Y-87920814D01*
X118290602Y-87920827D01*
X118230264Y-88066498D01*
X118230261Y-88066510D01*
X118199500Y-88221153D01*
X100500500Y-88221153D01*
X100500500Y-80602135D01*
X117374500Y-80602135D01*
X117374500Y-82397870D01*
X117374501Y-82397876D01*
X117380908Y-82457483D01*
X117431202Y-82592328D01*
X117431206Y-82592335D01*
X117517452Y-82707544D01*
X117517455Y-82707547D01*
X117632664Y-82793793D01*
X117632671Y-82793797D01*
X117767517Y-82844091D01*
X117767516Y-82844091D01*
X117774444Y-82844835D01*
X117827127Y-82850500D01*
X119622872Y-82850499D01*
X119682483Y-82844091D01*
X119817331Y-82793796D01*
X119932546Y-82707546D01*
X120018796Y-82592331D01*
X120067810Y-82460916D01*
X120109681Y-82404984D01*
X120175145Y-82380566D01*
X120243418Y-82395417D01*
X120271673Y-82416569D01*
X120385213Y-82530109D01*
X120557179Y-82655048D01*
X120557181Y-82655049D01*
X120557184Y-82655051D01*
X120746588Y-82751557D01*
X120948757Y-82817246D01*
X121158713Y-82850500D01*
X121158714Y-82850500D01*
X121371286Y-82850500D01*
X121371287Y-82850500D01*
X121581243Y-82817246D01*
X121783412Y-82751557D01*
X121972816Y-82655051D01*
X122051641Y-82597782D01*
X122144786Y-82530109D01*
X122144788Y-82530106D01*
X122144792Y-82530104D01*
X122295104Y-82379792D01*
X122295106Y-82379788D01*
X122295109Y-82379786D01*
X122420048Y-82207820D01*
X122420047Y-82207820D01*
X122420051Y-82207816D01*
X122516557Y-82018412D01*
X122582246Y-81816243D01*
X122615500Y-81606287D01*
X122615500Y-81393713D01*
X122582246Y-81183757D01*
X122516557Y-80981588D01*
X122420051Y-80792184D01*
X122420049Y-80792181D01*
X122420048Y-80792179D01*
X122295109Y-80620213D01*
X122144786Y-80469890D01*
X121972820Y-80344951D01*
X121783414Y-80248444D01*
X121783413Y-80248443D01*
X121783412Y-80248443D01*
X121581243Y-80182754D01*
X121581241Y-80182753D01*
X121581240Y-80182753D01*
X121419957Y-80157208D01*
X121371287Y-80149500D01*
X121158713Y-80149500D01*
X121110042Y-80157208D01*
X120948760Y-80182753D01*
X120746585Y-80248444D01*
X120557179Y-80344951D01*
X120385215Y-80469889D01*
X120271673Y-80583431D01*
X120210350Y-80616915D01*
X120140658Y-80611931D01*
X120084725Y-80570059D01*
X120067810Y-80539082D01*
X120018797Y-80407671D01*
X120018793Y-80407664D01*
X119932547Y-80292455D01*
X119932544Y-80292452D01*
X119817335Y-80206206D01*
X119817328Y-80206202D01*
X119682482Y-80155908D01*
X119682483Y-80155908D01*
X119622883Y-80149501D01*
X119622881Y-80149500D01*
X119622873Y-80149500D01*
X119622864Y-80149500D01*
X117827129Y-80149500D01*
X117827123Y-80149501D01*
X117767516Y-80155908D01*
X117632671Y-80206202D01*
X117632664Y-80206206D01*
X117517455Y-80292452D01*
X117517452Y-80292455D01*
X117431206Y-80407664D01*
X117431202Y-80407671D01*
X117380908Y-80542517D01*
X117374501Y-80602116D01*
X117374500Y-80602135D01*
X100500500Y-80602135D01*
X100500500Y-77869682D01*
X106699500Y-77869682D01*
X106699500Y-78027375D01*
X106730261Y-78182018D01*
X106730264Y-78182030D01*
X106790602Y-78327701D01*
X106790609Y-78327714D01*
X106878210Y-78458817D01*
X106878213Y-78458821D01*
X106989707Y-78570315D01*
X106989711Y-78570318D01*
X107120814Y-78657919D01*
X107120827Y-78657926D01*
X107266498Y-78718264D01*
X107266503Y-78718266D01*
X107421153Y-78749028D01*
X107421156Y-78749029D01*
X107421158Y-78749029D01*
X107578844Y-78749029D01*
X107578845Y-78749028D01*
X107733497Y-78718266D01*
X107879179Y-78657923D01*
X107879185Y-78657919D01*
X108010875Y-78569927D01*
X108077553Y-78549049D01*
X108079766Y-78549029D01*
X109920234Y-78549029D01*
X109987273Y-78568714D01*
X109989125Y-78569927D01*
X110120814Y-78657919D01*
X110120827Y-78657926D01*
X110266498Y-78718264D01*
X110266503Y-78718266D01*
X110421153Y-78749028D01*
X110421156Y-78749029D01*
X110421158Y-78749029D01*
X110578844Y-78749029D01*
X110578845Y-78749028D01*
X110733497Y-78718266D01*
X110879179Y-78657923D01*
X111010289Y-78570318D01*
X111121789Y-78458818D01*
X111209394Y-78327708D01*
X111213984Y-78316628D01*
X111269735Y-78182030D01*
X111269737Y-78182026D01*
X111300500Y-78027371D01*
X111300500Y-77869687D01*
X111300500Y-77869684D01*
X111300499Y-77869682D01*
X111269738Y-77715039D01*
X111269737Y-77715032D01*
X111269735Y-77715027D01*
X111209397Y-77569356D01*
X111209390Y-77569343D01*
X111182128Y-77528543D01*
X114699499Y-77528543D01*
X114737947Y-77721829D01*
X114737950Y-77721839D01*
X114813364Y-77903907D01*
X114813371Y-77903920D01*
X114922860Y-78067781D01*
X114922863Y-78067785D01*
X115062214Y-78207136D01*
X115062218Y-78207139D01*
X115226079Y-78316628D01*
X115226092Y-78316635D01*
X115408160Y-78392049D01*
X115408165Y-78392051D01*
X115408169Y-78392051D01*
X115408170Y-78392052D01*
X115601456Y-78430500D01*
X115601459Y-78430500D01*
X115798543Y-78430500D01*
X115928582Y-78404632D01*
X115991835Y-78392051D01*
X116132655Y-78333721D01*
X116173907Y-78316635D01*
X116173907Y-78316634D01*
X116173914Y-78316632D01*
X116337782Y-78207139D01*
X116477139Y-78067782D01*
X116586632Y-77903914D01*
X116662051Y-77721835D01*
X116674632Y-77658582D01*
X116700500Y-77528543D01*
X116700500Y-76982488D01*
X116720185Y-76915449D01*
X116772989Y-76869694D01*
X116842147Y-76859750D01*
X116886500Y-76875100D01*
X116905865Y-76886281D01*
X117052234Y-76925500D01*
X117052236Y-76925500D01*
X117203764Y-76925500D01*
X117203766Y-76925500D01*
X117350135Y-76886281D01*
X117481365Y-76810515D01*
X117588515Y-76703365D01*
X117664281Y-76572135D01*
X117703500Y-76425766D01*
X117703500Y-76274234D01*
X122332500Y-76274234D01*
X122332500Y-76425765D01*
X122371719Y-76572136D01*
X122409602Y-76637750D01*
X122447485Y-76703365D01*
X122554635Y-76810515D01*
X122685865Y-76886281D01*
X122832234Y-76925500D01*
X122832236Y-76925500D01*
X122983764Y-76925500D01*
X122983766Y-76925500D01*
X123130135Y-76886281D01*
X123149499Y-76875100D01*
X123217399Y-76858628D01*
X123283426Y-76881480D01*
X123326617Y-76936401D01*
X123335500Y-76982488D01*
X123335500Y-77528541D01*
X123335500Y-77528543D01*
X123335499Y-77528543D01*
X123373947Y-77721829D01*
X123373950Y-77721839D01*
X123449364Y-77903907D01*
X123449371Y-77903920D01*
X123558860Y-78067781D01*
X123558863Y-78067785D01*
X123698214Y-78207136D01*
X123698218Y-78207139D01*
X123862079Y-78316628D01*
X123862092Y-78316635D01*
X124044160Y-78392049D01*
X124044165Y-78392051D01*
X124044169Y-78392051D01*
X124044170Y-78392052D01*
X124237456Y-78430500D01*
X124237459Y-78430500D01*
X124434543Y-78430500D01*
X124564582Y-78404632D01*
X124627835Y-78392051D01*
X124768655Y-78333721D01*
X124809907Y-78316635D01*
X124809907Y-78316634D01*
X124809914Y-78316632D01*
X124973782Y-78207139D01*
X125113139Y-78067782D01*
X125222632Y-77903914D01*
X125298051Y-77721835D01*
X125310632Y-77658582D01*
X125336500Y-77528543D01*
X125336500Y-76231456D01*
X125298052Y-76038170D01*
X125298051Y-76038169D01*
X125298051Y-76038165D01*
X125298049Y-76038160D01*
X125222635Y-75856092D01*
X125222628Y-75856079D01*
X125113139Y-75692218D01*
X125113136Y-75692214D01*
X124973785Y-75552863D01*
X124973781Y-75552860D01*
X124809920Y-75443371D01*
X124809907Y-75443364D01*
X124627839Y-75367950D01*
X124627829Y-75367947D01*
X124434543Y-75329500D01*
X124434541Y-75329500D01*
X124237459Y-75329500D01*
X124237457Y-75329500D01*
X124044170Y-75367947D01*
X124044160Y-75367950D01*
X123862092Y-75443364D01*
X123862079Y-75443371D01*
X123698218Y-75552860D01*
X123698214Y-75552863D01*
X123558863Y-75692214D01*
X123558860Y-75692218D01*
X123445983Y-75861151D01*
X123444238Y-75859985D01*
X123401944Y-75903031D01*
X123333804Y-75918482D01*
X123268128Y-75894641D01*
X123266074Y-75893099D01*
X123261365Y-75889485D01*
X123130136Y-75813719D01*
X123056950Y-75794109D01*
X122983766Y-75774500D01*
X122832234Y-75774500D01*
X122685863Y-75813719D01*
X122554635Y-75889485D01*
X122554632Y-75889487D01*
X122447487Y-75996632D01*
X122447485Y-75996635D01*
X122371719Y-76127863D01*
X122332500Y-76274234D01*
X117703500Y-76274234D01*
X117664281Y-76127865D01*
X117588515Y-75996635D01*
X117481365Y-75889485D01*
X117415750Y-75851602D01*
X117350136Y-75813719D01*
X117276950Y-75794109D01*
X117203766Y-75774500D01*
X117052234Y-75774500D01*
X116905863Y-75813719D01*
X116774627Y-75889489D01*
X116769920Y-75893102D01*
X116704751Y-75918295D01*
X116636306Y-75904255D01*
X116591293Y-75860299D01*
X116590017Y-75861152D01*
X116477139Y-75692217D01*
X116337785Y-75552863D01*
X116337781Y-75552860D01*
X116173920Y-75443371D01*
X116173907Y-75443364D01*
X115991839Y-75367950D01*
X115991829Y-75367947D01*
X115798543Y-75329500D01*
X115798541Y-75329500D01*
X115601459Y-75329500D01*
X115601457Y-75329500D01*
X115408170Y-75367947D01*
X115408160Y-75367950D01*
X115226092Y-75443364D01*
X115226079Y-75443371D01*
X115062218Y-75552860D01*
X115062214Y-75552863D01*
X114922863Y-75692214D01*
X114922860Y-75692218D01*
X114813371Y-75856079D01*
X114813364Y-75856092D01*
X114737950Y-76038160D01*
X114737947Y-76038170D01*
X114699500Y-76231456D01*
X114699500Y-76231459D01*
X114699500Y-77528541D01*
X114699500Y-77528543D01*
X114699499Y-77528543D01*
X111182128Y-77528543D01*
X111121789Y-77438240D01*
X111121786Y-77438236D01*
X111010292Y-77326742D01*
X111010288Y-77326739D01*
X110879185Y-77239138D01*
X110879172Y-77239131D01*
X110733501Y-77178793D01*
X110733489Y-77178790D01*
X110578845Y-77148029D01*
X110578842Y-77148029D01*
X110421158Y-77148029D01*
X110421155Y-77148029D01*
X110266510Y-77178790D01*
X110266498Y-77178793D01*
X110120827Y-77239131D01*
X110120814Y-77239138D01*
X109989125Y-77327131D01*
X109922447Y-77348009D01*
X109920234Y-77348029D01*
X108079766Y-77348029D01*
X108012727Y-77328344D01*
X108010875Y-77327131D01*
X107879185Y-77239138D01*
X107879172Y-77239131D01*
X107733501Y-77178793D01*
X107733489Y-77178790D01*
X107578845Y-77148029D01*
X107578842Y-77148029D01*
X107421158Y-77148029D01*
X107421155Y-77148029D01*
X107266510Y-77178790D01*
X107266498Y-77178793D01*
X107120827Y-77239131D01*
X107120814Y-77239138D01*
X106989711Y-77326739D01*
X106989707Y-77326742D01*
X106878213Y-77438236D01*
X106878210Y-77438240D01*
X106790609Y-77569343D01*
X106790602Y-77569356D01*
X106730264Y-77715027D01*
X106730261Y-77715039D01*
X106699500Y-77869682D01*
X100500500Y-77869682D01*
X100500500Y-72301504D01*
X114700000Y-72301504D01*
X114700000Y-72450000D01*
X115400000Y-72450000D01*
X115400000Y-72950000D01*
X114700000Y-72950000D01*
X114700000Y-73098495D01*
X114738427Y-73291681D01*
X114738430Y-73291693D01*
X114813807Y-73473671D01*
X114813814Y-73473684D01*
X114923248Y-73637462D01*
X114923251Y-73637466D01*
X115062533Y-73776748D01*
X115062537Y-73776751D01*
X115226315Y-73886185D01*
X115226328Y-73886192D01*
X115408308Y-73961569D01*
X115450000Y-73969862D01*
X115450000Y-73166988D01*
X115459940Y-73184205D01*
X115515795Y-73240060D01*
X115584204Y-73279556D01*
X115660504Y-73300000D01*
X115739496Y-73300000D01*
X115815796Y-73279556D01*
X115884205Y-73240060D01*
X115940060Y-73184205D01*
X115950000Y-73166988D01*
X115950000Y-73969862D01*
X115991690Y-73961569D01*
X115991692Y-73961569D01*
X116173671Y-73886192D01*
X116173684Y-73886185D01*
X116337462Y-73776751D01*
X116337466Y-73776748D01*
X116476748Y-73637466D01*
X116476751Y-73637462D01*
X116586185Y-73473684D01*
X116586192Y-73473671D01*
X116661569Y-73291693D01*
X116661572Y-73291681D01*
X116699989Y-73098543D01*
X123335499Y-73098543D01*
X123373947Y-73291829D01*
X123373950Y-73291839D01*
X123449364Y-73473907D01*
X123449371Y-73473920D01*
X123558860Y-73637781D01*
X123558863Y-73637785D01*
X123698214Y-73777136D01*
X123698218Y-73777139D01*
X123862079Y-73886628D01*
X123862092Y-73886635D01*
X124043001Y-73961569D01*
X124044165Y-73962051D01*
X124044169Y-73962051D01*
X124044170Y-73962052D01*
X124237456Y-74000500D01*
X124237459Y-74000500D01*
X124434543Y-74000500D01*
X124588567Y-73969862D01*
X124627835Y-73962051D01*
X124809914Y-73886632D01*
X124973782Y-73777139D01*
X125113139Y-73637782D01*
X125222632Y-73473914D01*
X125298051Y-73291835D01*
X125336500Y-73098541D01*
X125336500Y-72301459D01*
X125336500Y-72301456D01*
X125298052Y-72108170D01*
X125298051Y-72108169D01*
X125298051Y-72108165D01*
X125294669Y-72100000D01*
X125222635Y-71926092D01*
X125222628Y-71926079D01*
X125113139Y-71762218D01*
X125113136Y-71762214D01*
X124973785Y-71622863D01*
X124973781Y-71622860D01*
X124809920Y-71513371D01*
X124809907Y-71513364D01*
X124627839Y-71437950D01*
X124627829Y-71437947D01*
X124434543Y-71399500D01*
X124434541Y-71399500D01*
X124237459Y-71399500D01*
X124237457Y-71399500D01*
X124044170Y-71437947D01*
X124044160Y-71437950D01*
X123862092Y-71513364D01*
X123862079Y-71513371D01*
X123698218Y-71622860D01*
X123698214Y-71622863D01*
X123558863Y-71762214D01*
X123558860Y-71762218D01*
X123449371Y-71926079D01*
X123449364Y-71926092D01*
X123373950Y-72108160D01*
X123373947Y-72108170D01*
X123335500Y-72301456D01*
X123335500Y-72301459D01*
X123335500Y-73098541D01*
X123335500Y-73098543D01*
X123335499Y-73098543D01*
X116699989Y-73098543D01*
X116699999Y-73098495D01*
X116700000Y-73098492D01*
X116700000Y-72950000D01*
X116000000Y-72950000D01*
X116000000Y-72450000D01*
X116700000Y-72450000D01*
X116700000Y-72301507D01*
X116699999Y-72301505D01*
X116661572Y-72108318D01*
X116661569Y-72108306D01*
X116586192Y-71926328D01*
X116586185Y-71926315D01*
X116476751Y-71762537D01*
X116476748Y-71762533D01*
X116337466Y-71623251D01*
X116337462Y-71623248D01*
X116173684Y-71513814D01*
X116173671Y-71513807D01*
X115991691Y-71438429D01*
X115991683Y-71438427D01*
X115950000Y-71430135D01*
X115950000Y-72233011D01*
X115940060Y-72215795D01*
X115884205Y-72159940D01*
X115815796Y-72120444D01*
X115739496Y-72100000D01*
X115660504Y-72100000D01*
X115584204Y-72120444D01*
X115515795Y-72159940D01*
X115459940Y-72215795D01*
X115450000Y-72233011D01*
X115450000Y-71430136D01*
X115449999Y-71430135D01*
X115408316Y-71438427D01*
X115408308Y-71438429D01*
X115226328Y-71513807D01*
X115226315Y-71513814D01*
X115062537Y-71623248D01*
X115062533Y-71623251D01*
X114923251Y-71762533D01*
X114923248Y-71762537D01*
X114813814Y-71926315D01*
X114813807Y-71926328D01*
X114738430Y-72108306D01*
X114738427Y-72108318D01*
X114700000Y-72301504D01*
X100500500Y-72301504D01*
X100500500Y-70624500D01*
X100520185Y-70557461D01*
X100572989Y-70511706D01*
X100624500Y-70500500D01*
X139375500Y-70500500D01*
X139442539Y-70520185D01*
G37*
%TD.AperFunction*%
%TD*%
M02*
